<svg xmlns="http://www.w3.org/2000/svg" xmlns:xlink="http://www.w3.org/1999/xlink" width="2000" zoomAndPan="magnify" viewBox="0 0 1500 1499.999933" height="2000" preserveAspectRatio="xMidYMid meet" version="1.0"><defs><clipPath id="92b8bd26c3"><path d="M 323.355469 0 L 1220 0 L 1220 1499 L 323.355469 1499 Z M 323.355469 0 " clip-rule="nonzero"/></clipPath><clipPath id="1d5b2e2f88"><path d="M 1 2 L 896.679688 2 L 896.679688 1497 L 1 1497 Z M 1 2 " clip-rule="nonzero"/></clipPath><clipPath id="c01c58467a"><rect x="0" width="897" y="0" height="1499"/></clipPath></defs><g clip-path="url(#92b8bd26c3)"><g transform="matrix(1, 0, 0, 1, 323, 0.000000000000112861)"><g clip-path="url(#c01c58467a)"><g clip-path="url(#1d5b2e2f88)"><path fill="#e8640a" d="M 465.21875 1172.839844 C 467.535156 1174 469.855469 1175.738281 472.175781 1177.476562 C 481.449219 1186.753906 494.199219 1191.390625 504.632812 1198.34375 C 507.53125 1200.082031 510.429688 1201.242188 513.328125 1201.824219 C 517.964844 1202.980469 523.179688 1204.722656 527.820312 1206.460938 C 553.324219 1219.210938 577.667969 1212.835938 601.433594 1202.980469 C 613.605469 1197.765625 622.296875 1186.753906 625.195312 1174 C 628.675781 1159.507812 630.992188 1145.019531 630.992188 1129.949219 C 630.992188 1127.050781 631.574219 1124.730469 631.574219 1120.675781 C 636.789062 1121.832031 641.425781 1124.152344 644.902344 1127.628906 C 655.917969 1138.644531 666.351562 1149.65625 676.785156 1160.089844 C 684.898438 1168.203125 693.011719 1176.320312 701.128906 1184.433594 C 710.980469 1194.289062 720.257812 1204.140625 730.109375 1213.996094 C 735.90625 1219.792969 742.28125 1225.007812 748.65625 1230.226562 C 758.511719 1238.339844 768.945312 1246.453125 779.957031 1253.410156 C 789.8125 1259.785156 800.824219 1265.582031 811.839844 1269.640625 C 831.546875 1277.753906 854.152344 1274.855469 871.539062 1262.683594 C 881.972656 1256.308594 888.929688 1245.875 891.828125 1234.28125 C 896.464844 1216.3125 897.625 1197.765625 894.726562 1179.21875 C 894.726562 1178.058594 894.726562 1176.320312 894.726562 1175.160156 C 894.726562 1161.25 892.988281 1147.335938 890.089844 1134.007812 C 887.191406 1113.140625 883.710938 1092.273438 879.65625 1071.40625 C 876.757812 1054.015625 872.699219 1037.207031 869.222656 1019.820312 C 866.324219 1004.75 861.105469 990.257812 857.628906 975.765625 C 852.992188 957.796875 845.457031 940.988281 842.558594 922.441406 C 841.398438 917.222656 839.660156 912.007812 837.339844 906.789062 C 827.488281 879.546875 812.996094 854.625 795.027344 832.019531 C 792.128906 828.539062 789.8125 825.640625 788.074219 821.585938 C 785.753906 818.6875 786.335938 815.207031 788.652344 812.890625 C 789.230469 812.308594 789.230469 812.308594 789.8125 812.308594 C 804.882812 804.773438 814.15625 790.863281 824.589844 778.691406 C 829.226562 772.316406 833.285156 765.359375 835.601562 757.824219 C 839.082031 749.128906 841.398438 740.4375 843.71875 731.160156 C 847.773438 716.089844 850.09375 700.441406 850.671875 684.792969 C 850.09375 676.675781 848.933594 667.980469 846.617188 660.445312 C 845.457031 654.652344 843.136719 648.855469 841.398438 643.058594 C 837.339844 631.464844 832.125 619.871094 825.167969 609.4375 C 817.632812 596.109375 808.941406 583.355469 799.085938 571.761719 C 788.652344 558.433594 777.640625 545.101562 766.625 532.347656 C 756.191406 520.175781 744.601562 509.164062 732.429688 498.148438 C 723.15625 489.457031 713.878906 481.921875 704.027344 473.804688 C 693.011719 464.53125 682 455.835938 670.40625 446.5625 C 667.507812 444.246094 664.613281 441.925781 661.714844 439.605469 C 646.0625 426.855469 631.574219 413.523438 615.921875 401.929688 C 603.171875 392.078125 590.417969 382.222656 577.085938 372.949219 C 570.710938 368.890625 567.234375 361.355469 569.550781 353.820312 C 573.03125 336.433594 576.507812 318.464844 579.40625 300.496094 C 581.144531 288.902344 581.722656 276.730469 582.304688 264.558594 C 582.304688 261.660156 582.882812 259.34375 583.464844 256.445312 C 585.78125 246.011719 586.941406 235.578125 587.519531 225.144531 C 588.101562 217.609375 587.519531 209.492188 585.78125 201.957031 C 582.882812 189.207031 578.824219 175.875 574.1875 163.703125 C 567.8125 146.894531 558.539062 131.824219 546.367188 119.070312 C 537.671875 110.375 527.820312 102.839844 516.804688 96.464844 C 504.632812 88.929688 490.722656 87.191406 477.96875 83.132812 C 466.957031 80.234375 455.363281 80.816406 444.929688 84.871094 C 442.03125 86.03125 438.554688 86.613281 435.078125 87.769531 C 431.601562 79.65625 428.121094 72.699219 424.644531 65.164062 C 419.425781 54.152344 413.050781 43.71875 405.515625 34.445312 C 394.503906 21.691406 381.171875 11.839844 365.523438 5.464844 C 355.089844 1.40625 343.496094 0.828125 332.484375 4.304688 C 311.035156 9.519531 291.910156 19.953125 276.257812 35.605469 C 275.097656 36.761719 273.941406 37.34375 273.359375 38.503906 C 263.507812 49.515625 254.234375 60.527344 244.957031 72.121094 C 235.683594 83.714844 226.410156 97.046875 217.136719 109.21875 C 213.078125 114.433594 209.019531 119.070312 204.964844 124.867188 C 199.167969 122.550781 193.949219 119.070312 189.3125 115.015625 C 177.722656 106.320312 166.707031 97.625 155.695312 88.929688 C 149.320312 84.292969 142.941406 79.65625 135.988281 76.179688 C 123.234375 69.800781 107.585938 72.121094 97.730469 81.976562 C 96.574219 83.132812 95.414062 84.871094 94.832031 86.613281 C 91.355469 95.886719 87.878906 104.582031 84.980469 113.855469 C 83.820312 117.910156 82.660156 121.96875 82.082031 126.027344 C 79.761719 143.414062 76.867188 160.804688 74.546875 178.195312 C 74.546875 178.773438 74.546875 179.351562 74.546875 179.351562 C 78.023438 192.683594 71.070312 206.015625 74.546875 218.769531 C 73.386719 226.304688 73.386719 234.417969 75.125 241.953125 C 75.125 244.273438 75.125 246.589844 75.707031 248.910156 C 79.761719 257.601562 78.023438 266.878906 78.023438 276.152344 C 78.605469 295.859375 76.867188 315.566406 76.867188 335.273438 C 77.445312 342.808594 75.125 350.34375 70.488281 356.140625 C 67.589844 359.617188 65.851562 364.253906 65.851562 368.890625 C 65.273438 375.269531 64.113281 381.644531 62.953125 388.019531 C 61.792969 393.238281 61.792969 399.035156 63.535156 404.25 C 69.332031 420.480469 72.226562 437.867188 78.605469 454.679688 C 86.71875 474.964844 93.675781 495.253906 101.789062 515.539062 C 104.109375 523.652344 104.6875 531.769531 103.527344 540.464844 C 103.527344 546.839844 101.789062 553.214844 101.210938 559.589844 C 100.628906 563.648438 100.050781 567.707031 100.050781 571.761719 C 99.472656 582.777344 97.730469 593.789062 94.835938 604.222656 C 94.253906 607.121094 93.09375 609.441406 90.777344 611.179688 C 84.980469 617.554688 82.660156 626.828125 75.125 632.046875 C 74.546875 632.046875 74.546875 632.625 74.546875 633.203125 C 67.589844 649.433594 53.101562 661.027344 42.667969 674.9375 C 40.347656 677.257812 38.03125 678.996094 34.550781 680.15625 C 21.222656 685.949219 11.367188 696.964844 5.570312 710.296875 C 1.511719 721.886719 0.355469 734.058594 2.09375 745.652344 C 3.253906 757.246094 3.832031 768.839844 9.046875 779.269531 C 11.945312 801.296875 21.222656 821.003906 27.015625 841.871094 C 27.597656 844.769531 27.597656 848.246094 28.757812 851.144531 C 30.496094 860.421875 32.8125 869.113281 36.292969 877.808594 C 39.191406 884.765625 40.929688 891.71875 41.507812 899.253906 C 43.828125 913.746094 50.78125 927.65625 49.042969 942.726562 C 49.042969 945.046875 49.621094 947.363281 50.78125 949.105469 C 54.261719 958.378906 57.738281 968.230469 60.054688 978.085938 C 64.113281 993.15625 69.332031 1008.226562 75.125 1022.714844 C 78.605469 1031.410156 82.082031 1039.527344 86.140625 1048.21875 C 91.355469 1057.496094 97.152344 1066.1875 104.109375 1074.304688 C 108.746094 1079.519531 112.222656 1085.316406 116.859375 1090.535156 L 124.394531 1099.808594 C 126.714844 1102.125 129.03125 1104.445312 130.769531 1107.34375 C 136.566406 1117.195312 140.625 1128.210938 141.785156 1139.800781 C 142.363281 1144.4375 142.945312 1149.078125 144.683594 1153.132812 C 149.898438 1169.941406 157.433594 1185.59375 165.550781 1200.664062 C 169.027344 1205.878906 170.765625 1212.257812 170.765625 1219.210938 C 170.1875 1224.429688 173.664062 1230.226562 171.34375 1235.441406 C 170.765625 1237.179688 171.34375 1239.5 172.503906 1240.660156 C 177.140625 1248.195312 175.984375 1256.886719 176.5625 1265.003906 C 177.722656 1276.015625 179.460938 1287.027344 181.777344 1298.042969 C 183.519531 1307.316406 185.257812 1317.167969 188.15625 1326.445312 C 191.054688 1335.136719 193.371094 1344.414062 194.53125 1353.105469 C 194.53125 1354.265625 195.109375 1354.84375 195.109375 1356.003906 C 198.589844 1361.800781 202.066406 1367.597656 204.382812 1373.972656 C 204.964844 1380.347656 206.125 1386.726562 207.863281 1393.101562 C 211.339844 1401.214844 214.238281 1409.332031 217.714844 1417.445312 C 218.875 1419.765625 220.035156 1421.503906 220.613281 1423.820312 C 221.773438 1429.039062 224.09375 1434.253906 226.410156 1439.472656 C 236.84375 1453.382812 243.800781 1470.191406 257.132812 1482.363281 C 267.5625 1492.21875 279.738281 1499.171875 294.226562 1495.695312 C 301.183594 1493.378906 308.136719 1490.480469 314.515625 1487 C 318.570312 1484.683594 322.628906 1482.363281 326.105469 1480.046875 C 327.265625 1479.464844 328.425781 1478.886719 329.585938 1477.726562 C 345.234375 1463.238281 360.304688 1448.746094 371.316406 1429.617188 C 380.59375 1415.128906 388.707031 1400.058594 396.242188 1384.988281 C 401.460938 1372.234375 407.253906 1359.484375 411.890625 1346.152344 C 417.6875 1331.082031 421.746094 1315.429688 427.542969 1300.359375 C 436.816406 1274.855469 443.773438 1248.195312 448.988281 1221.53125 C 452.464844 1206.460938 458.84375 1192.546875 460 1177.476562 C 461.160156 1176.320312 463.480469 1175.160156 465.21875 1172.839844 Z M 586.363281 938.671875 C 593.898438 931.132812 601.433594 924.179688 609.546875 917.804688 C 624.039062 907.371094 638.527344 896.9375 654.179688 887.664062 C 676.203125 873.75 699.390625 861 723.15625 849.40625 C 733.585938 844.769531 743.441406 838.972656 753.875 834.335938 C 759.671875 831.4375 764.308594 832.019531 767.207031 837.234375 C 774.742188 851.144531 785.753906 862.160156 793.289062 876.070312 C 797.347656 885.921875 803.144531 894.617188 810.097656 902.734375 C 812.996094 906.789062 814.734375 910.847656 815.316406 915.484375 C 818.214844 927.078125 821.691406 938.671875 826.328125 949.683594 C 830.386719 957.21875 832.703125 965.332031 833.863281 973.449219 C 835.023438 980.402344 837.339844 987.9375 840.238281 994.316406 C 841.398438 996.632812 842.558594 999.53125 842.558594 1001.851562 C 842.558594 1008.226562 843.71875 1014.601562 846.035156 1020.976562 C 848.355469 1026.195312 849.515625 1031.410156 850.09375 1037.207031 C 850.09375 1049.960938 857.628906 1062.132812 855.308594 1075.464844 C 855.308594 1076.621094 855.308594 1078.359375 856.46875 1079.519531 C 860.527344 1088.214844 862.265625 1098.070312 862.265625 1107.921875 C 862.265625 1110.820312 862.84375 1113.71875 864.003906 1116.039062 C 868.640625 1129.949219 871.539062 1144.4375 872.121094 1159.507812 C 873.277344 1176.898438 873.277344 1194.289062 875.019531 1211.675781 C 875.597656 1219.792969 872.699219 1227.328125 867.484375 1233.121094 C 864.003906 1238.339844 858.789062 1241.816406 852.992188 1242.398438 C 850.09375 1242.976562 846.617188 1244.136719 843.71875 1245.296875 C 841.398438 1245.875 838.5 1245.875 835.601562 1245.875 C 821.113281 1241.816406 806.621094 1235.441406 794.449219 1227.328125 C 775.902344 1214.574219 757.933594 1200.664062 741.703125 1185.011719 C 722.574219 1165.886719 702.289062 1147.335938 683.738281 1127.628906 C 673.304688 1116.617188 661.714844 1106.761719 651.28125 1095.75 C 648.382812 1093.433594 645.484375 1091.113281 642.585938 1088.792969 C 632.730469 1081.257812 624.039062 1072.566406 621.71875 1059.234375 C 616.503906 1029.671875 604.910156 1001.851562 597.375 972.867188 C 593.898438 960.695312 590.417969 950.84375 586.363281 938.671875 Z M 290.75 1467.292969 C 286.691406 1466.132812 283.214844 1464.394531 280.316406 1462.65625 C 275.679688 1458.597656 271.621094 1454.542969 268.144531 1449.90625 C 254.8125 1431.9375 244.378906 1412.230469 237.421875 1391.363281 C 228.148438 1367.019531 220.613281 1342.671875 213.078125 1317.75 C 210.761719 1309.632812 209.019531 1301.519531 207.863281 1293.40625 C 206.703125 1286.449219 204.964844 1280.074219 203.226562 1273.117188 C 202.644531 1270.800781 202.066406 1268.480469 202.066406 1266.160156 C 200.328125 1252.832031 199.746094 1239.5 197.429688 1226.167969 C 196.269531 1220.371094 198.585938 1217.472656 204.382812 1216.894531 C 209.019531 1216.3125 213.660156 1215.734375 217.714844 1214.574219 C 238.003906 1208.777344 257.710938 1200.082031 275.679688 1189.070312 C 292.488281 1178.058594 307.558594 1164.726562 319.730469 1149.078125 C 328.425781 1138.0625 336.539062 1127.050781 343.496094 1114.878906 C 345.8125 1111.398438 348.710938 1108.503906 352.191406 1106.761719 C 359.726562 1102.125 367.261719 1097.488281 374.796875 1093.433594 C 378.273438 1091.113281 382.910156 1091.691406 385.230469 1095.171875 C 385.230469 1095.171875 385.230469 1095.75 385.808594 1095.75 C 388.128906 1099.808594 391.027344 1103.285156 393.921875 1106.761719 C 406.097656 1119.515625 418.847656 1131.6875 431.601562 1143.859375 C 443.773438 1155.453125 443.773438 1154.871094 439.714844 1171.101562 C 439.136719 1174 437.976562 1177.476562 436.816406 1180.375 C 435.078125 1183.855469 434.496094 1187.332031 434.496094 1190.808594 C 434.496094 1193.128906 433.917969 1195.445312 432.757812 1197.1875 C 428.121094 1206.460938 426.382812 1216.3125 426.382812 1226.167969 C 425.804688 1228.484375 425.222656 1230.804688 424.644531 1232.542969 C 422.90625 1236.601562 421.746094 1240.078125 420.585938 1244.136719 C 418.847656 1252.832031 416.53125 1261.523438 413.632812 1269.640625 C 410.152344 1278.335938 408.992188 1287.609375 406.675781 1296.304688 C 404.355469 1303.839844 401.457031 1311.375 398.5625 1318.328125 C 401.457031 1328.183594 391.027344 1332.238281 389.285156 1340.355469 C 388.707031 1342.671875 388.128906 1344.992188 387.546875 1346.730469 C 385.808594 1354.265625 382.910156 1361.800781 379.433594 1368.757812 C 374.796875 1377.453125 370.160156 1385.566406 365.523438 1394.261719 C 353.929688 1417.445312 341.757812 1431.355469 321.46875 1452.222656 C 312.773438 1463.238281 301.761719 1463.238281 290.75 1467.292969 Z M 565.496094 398.453125 C 573.609375 404.25 582.304688 407.148438 589.257812 413.523438 C 597.953125 422.21875 607.808594 429.753906 618.242188 436.710938 C 630.414062 445.402344 642.007812 454.097656 653.019531 463.953125 C 658.816406 468.589844 664.03125 473.804688 669.25 478.441406 C 679.101562 487.714844 690.695312 494.09375 700.546875 503.367188 C 708.082031 510.324219 715.621094 518.4375 723.734375 524.8125 C 731.847656 531.1875 737.066406 540.464844 745.179688 545.679688 C 748.65625 548 750.398438 553.214844 753.875 556.113281 C 761.410156 562.488281 767.785156 569.445312 773.003906 577.558594 C 774.742188 581.039062 776.480469 583.933594 778.800781 586.832031 C 789.230469 597.847656 797.925781 610.019531 804.882812 622.769531 C 807.78125 627.988281 811.839844 632.625 814.15625 637.839844 C 822.269531 656.390625 830.964844 674.9375 825.75 696.382812 C 824.011719 704.5 824.589844 713.191406 821.113281 721.308594 C 820.53125 723.046875 819.953125 724.785156 820.53125 726.523438 C 821.113281 731.160156 819.953125 735.800781 817.054688 739.855469 C 810.097656 752.609375 804.882812 767.097656 791.550781 775.214844 C 790.390625 775.792969 789.230469 776.953125 788.652344 778.113281 C 785.753906 784.488281 779.378906 785.648438 774.742188 788.546875 C 770.105469 791.445312 766.046875 790.863281 761.988281 785.066406 C 760.832031 783.328125 760.25 782.167969 759.089844 780.429688 C 746.917969 760.144531 734.746094 740.4375 721.996094 720.148438 C 716.199219 710.875 709.242188 701.601562 702.867188 692.90625 C 696.492188 684.210938 690.117188 676.097656 682.582031 667.980469 C 669.828125 653.492188 657.65625 639.582031 644.902344 625.667969 C 635.628906 615.234375 625.777344 605.960938 615.34375 595.527344 C 615.34375 590.890625 615.34375 586.253906 615.34375 581.617188 C 614.761719 569.445312 617.082031 557.273438 613.605469 545.679688 C 610.125 532.929688 606.070312 520.175781 600.851562 507.425781 C 593.898438 489.457031 584.042969 473.226562 571.289062 459.316406 C 566.652344 454.675781 562.015625 449.460938 556.800781 444.246094 C 556.21875 429.753906 562.597656 414.683594 565.496094 398.453125 Z M 218.296875 168.339844 C 225.832031 171.816406 234.523438 173.554688 237.421875 182.832031 C 237.421875 183.410156 238.003906 183.410156 238.582031 183.988281 C 245.539062 185.148438 251.335938 189.785156 253.652344 196.742188 C 253.652344 197.320312 254.8125 197.902344 255.972656 198.480469 C 263.507812 203.117188 271.042969 207.753906 277.996094 212.972656 C 284.953125 218.1875 291.910156 223.984375 298.863281 228.621094 C 308.71875 235.578125 309.296875 237.316406 302.34375 247.167969 C 297.125 255.285156 291.328125 262.820312 286.691406 271.515625 C 283.792969 274.992188 282.054688 279.628906 280.316406 283.6875 C 276.257812 295.277344 270.460938 306.292969 263.507812 316.726562 C 255.972656 330.058594 249.59375 343.96875 245.539062 358.457031 C 244.957031 363.097656 240.902344 366.574219 235.683594 367.152344 C 224.671875 368.3125 213.660156 370.050781 202.644531 372.371094 C 200.90625 372.371094 199.167969 372.949219 197.429688 373.53125 C 193.949219 375.269531 191.632812 379.324219 191.632812 383.382812 C 192.210938 388.019531 195.691406 390.917969 200.328125 390.339844 C 203.804688 390.339844 207.863281 389.757812 211.339844 389.179688 C 215.398438 388.601562 219.453125 387.441406 223.511719 386.859375 C 227.570312 386.28125 230.46875 390.339844 228.148438 393.238281 C 222.351562 400.773438 221.195312 410.046875 214.816406 417 C 213.078125 418.742188 212.5 421.058594 211.917969 423.378906 C 211.339844 427.433594 209.019531 431.492188 206.125 434.96875 C 204.964844 435.550781 204.382812 435.550781 204.382812 436.128906 C 203.226562 436.710938 201.484375 436.710938 200.328125 436.710938 C 191.054688 434.96875 184.097656 441.925781 175.402344 443.664062 C 167.867188 451.199219 157.433594 451.78125 147 455.835938 C 144.683594 452.359375 142.945312 448.882812 141.203125 444.824219 C 134.25 427.433594 127.292969 410.625 120.917969 393.238281 C 116.859375 382.804688 112.800781 372.371094 108.746094 362.515625 C 107.007812 358.457031 107.585938 354.402344 109.90625 350.921875 C 118.597656 336.433594 126.714844 322.523438 135.40625 308.03125 C 142.363281 296.4375 148.738281 284.84375 153.957031 272.09375 C 155.695312 268.617188 158.015625 264.558594 160.332031 261.082031 C 164.96875 254.703125 169.027344 248.328125 172.503906 240.792969 C 176.5625 228.042969 186.414062 219.347656 192.210938 207.753906 C 197.429688 197.902344 203.226562 188.625 209.601562 179.351562 C 210.179688 172.976562 213.660156 169.5 218.296875 168.339844 Z M 249.59375 888.820312 C 252.492188 894.039062 254.234375 898.097656 257.128906 902.734375 C 261.1875 907.949219 264.664062 914.324219 267.5625 920.703125 C 270.460938 933.453125 279.15625 942.726562 283.792969 953.742188 C 287.851562 962.433594 293.066406 970.550781 298.863281 978.664062 C 305.820312 989.097656 313.355469 998.953125 320.890625 1008.804688 C 324.367188 1013.441406 326.105469 1020.398438 330.742188 1023.296875 C 339.4375 1029.09375 341.175781 1039.527344 348.132812 1046.480469 C 350.453125 1049.378906 351.03125 1054.015625 348.710938 1056.914062 C 346.394531 1060.394531 344.65625 1063.871094 342.917969 1067.929688 C 339.4375 1080.679688 330.164062 1086.476562 319.152344 1091.691406 C 309.878906 1096.328125 300.023438 1100.386719 290.167969 1103.863281 C 276.257812 1107.921875 261.769531 1111.398438 247.277344 1113.140625 C 240.320312 1114.878906 232.785156 1114.878906 225.832031 1111.980469 C 222.933594 1110.820312 219.453125 1110.242188 215.976562 1110.242188 C 210.179688 1109.660156 203.804688 1109.660156 198.007812 1107.921875 C 187.574219 1105.605469 185.257812 1101.546875 184.675781 1092.851562 C 184.097656 1085.894531 183.519531 1078.941406 182.9375 1071.984375 C 182.359375 1067.347656 181.777344 1062.710938 181.777344 1058.074219 C 180.039062 1041.265625 179.460938 1025.035156 175.980469 1008.226562 C 174.242188 997.792969 173.085938 987.359375 171.925781 976.925781 C 171.34375 969.96875 173.664062 963.015625 178.878906 957.796875 C 182.9375 953.742188 187.574219 949.683594 192.210938 946.207031 C 195.691406 943.886719 199.167969 941.566406 202.066406 938.671875 C 212.5 926.496094 225.25 916.0625 233.945312 902.152344 C 236.265625 896.9375 242.058594 891.140625 249.59375 888.820312 Z M 611.863281 632.625 C 613.605469 633.203125 616.503906 633.203125 617.660156 634.363281 C 621.71875 638.421875 625.195312 643.636719 629.832031 647.695312 C 637.949219 654.652344 644.902344 662.765625 650.699219 671.460938 C 654.179688 675.515625 657.65625 680.15625 660.554688 684.210938 C 662.871094 687.109375 665.191406 690.007812 667.511719 692.90625 C 670.40625 697.542969 674.464844 701.601562 679.101562 704.5 C 683.160156 706.816406 686.636719 710.296875 687.21875 714.933594 C 687.796875 716.671875 688.375 718.410156 690.117188 719.570312 C 700.546875 732.902344 709.824219 747.390625 718.515625 761.882812 C 719.675781 764.78125 721.414062 767.679688 723.734375 769.996094 C 731.847656 777.53125 734.167969 787.964844 739.964844 796.660156 C 743.441406 801.878906 741.703125 805.933594 735.90625 808.832031 C 717.9375 818.105469 700.546875 828.539062 682 836.65625 C 662.871094 845.347656 644.902344 855.78125 628.675781 868.535156 C 614.761719 878.386719 600.851562 888.242188 588.101562 899.253906 C 585.203125 901.574219 582.304688 904.472656 578.246094 902.734375 C 574.1875 900.996094 575.929688 896.9375 575.347656 894.039062 C 574.1875 889.402344 571.871094 884.183594 570.710938 879.546875 C 568.972656 873.75 568.394531 867.957031 566.074219 862.160156 C 564.335938 856.363281 564.914062 849.988281 567.8125 844.769531 C 573.609375 833.175781 578.824219 820.425781 582.882812 807.671875 C 584.621094 798.398438 586.941406 788.546875 589.839844 779.273438 C 591.578125 774.632812 592.738281 769.417969 593.316406 764.199219 C 596.214844 748.550781 599.113281 732.320312 602.011719 716.671875 C 603.75 707.976562 605.488281 699.28125 606.648438 691.167969 C 607.808594 673.199219 609.546875 653.492188 611.863281 632.625 Z M 369.578125 1020.976562 C 364.941406 1020.976562 360.304688 1018.078125 357.988281 1014.023438 C 351.609375 1005.90625 345.234375 997.210938 339.4375 988.519531 C 335.382812 982.722656 331.324219 976.347656 327.265625 969.96875 C 316.253906 953.160156 304.660156 936.351562 294.226562 918.382812 C 285.53125 903.890625 278.578125 888.242188 269.882812 873.171875 C 263.507812 863.898438 264.664062 851.726562 272.203125 843.609375 C 275.097656 840.132812 277.417969 836.074219 279.15625 832.019531 C 283.792969 819.84375 289.589844 808.253906 296.546875 797.820312 C 302.34375 789.125 306.980469 779.269531 310.457031 769.417969 C 311.035156 767.679688 312.777344 765.941406 313.933594 765.941406 C 315.09375 765.941406 319.152344 766.519531 319.730469 768.257812 C 322.628906 774.054688 326.6875 779.269531 331.902344 782.75 C 332.484375 783.328125 332.484375 783.328125 332.484375 783.910156 C 338.277344 797.820312 352.191406 805.933594 359.144531 819.265625 C 359.726562 819.84375 360.304688 821.003906 360.886719 821.003906 C 365.523438 823.902344 369 828.539062 371.316406 833.175781 C 372.476562 835.496094 373.636719 837.234375 375.957031 838.394531 C 378.851562 840.132812 380.59375 843.03125 381.171875 845.929688 C 381.75 848.246094 382.910156 849.988281 384.648438 851.726562 C 395.082031 865.058594 405.515625 878.96875 416.53125 891.71875 C 421.746094 896.9375 422.90625 905.632812 419.425781 912.007812 C 415.371094 920.121094 409.574219 926.496094 409.574219 935.773438 C 409.574219 936.351562 408.996094 936.351562 408.996094 936.929688 C 399.140625 949.683594 392.183594 964.753906 388.128906 979.824219 C 388.128906 980.984375 387.546875 982.722656 386.386719 983.882812 C 378.851562 994.894531 373.058594 1007.644531 369.578125 1020.976562 Z M 446.089844 835.496094 C 440.875 834.914062 436.238281 832.019531 432.757812 827.960938 C 421.167969 816.949219 409.574219 805.355469 397.980469 793.761719 C 391.605469 788.546875 385.808594 782.75 380.011719 776.375 C 369 760.722656 354.507812 748.550781 341.175781 734.640625 C 327.847656 720.730469 329.003906 727.105469 335.382812 707.398438 C 335.960938 705.660156 336.539062 703.917969 337.699219 702.179688 C 341.757812 692.90625 345.8125 683.632812 349.292969 673.777344 C 352.191406 665.664062 353.929688 656.96875 356.828125 648.273438 C 362.042969 634.941406 366.101562 621.03125 369.578125 607.121094 C 371.316406 599.007812 375.957031 591.472656 376.535156 583.355469 C 376.535156 581.617188 380.59375 579.878906 382.332031 581.039062 C 384.070312 582.195312 386.386719 583.355469 388.128906 585.09375 C 397.402344 590.890625 404.355469 599.585938 414.210938 604.800781 C 426.382812 611.179688 432.179688 623.351562 442.03125 631.464844 C 442.613281 631.464844 442.613281 632.046875 442.613281 632.625 C 443.773438 642.476562 449.570312 651.171875 448.988281 662.1875 C 448.410156 670.300781 449.570312 678.996094 451.308594 686.53125 C 453.046875 693.484375 456.523438 700.441406 453.625 707.976562 C 453.046875 709.714844 454.207031 712.613281 454.785156 714.933594 C 456.523438 721.886719 457.683594 729.421875 458.84375 736.957031 C 460 749.128906 460.582031 760.722656 460.582031 772.894531 C 460.582031 782.167969 460 791.445312 457.683594 800.136719 C 454.785156 809.414062 453.046875 818.6875 450.148438 827.960938 C 448.988281 830.277344 447.828125 832.597656 446.089844 835.496094 Z M 559.699219 274.992188 C 559.117188 285.425781 553.902344 295.277344 559.699219 305.132812 C 554.480469 313.828125 548.683594 321.941406 552.742188 332.375 C 553.324219 334.113281 552.742188 335.851562 551.582031 337.59375 C 549.265625 341.648438 546.367188 345.128906 543.46875 348.605469 C 541.730469 347.445312 539.992188 346.867188 537.671875 345.707031 C 526.660156 338.171875 516.226562 330.058594 505.214844 322.523438 C 495.359375 315.566406 485.503906 309.191406 475.070312 302.234375 C 469.277344 298.757812 465.796875 291.800781 466.378906 284.847656 C 466.957031 262.820312 465.796875 240.792969 462.320312 218.769531 C 462.320312 217.609375 462.320312 215.871094 462.320312 214.710938 C 463.480469 206.015625 462.898438 197.320312 460.582031 188.625 C 460 185.730469 460 182.832031 459.421875 180.511719 C 458.261719 167.179688 455.945312 153.847656 451.886719 141.097656 C 448.988281 134.140625 446.671875 126.605469 446.089844 118.492188 L 452.464844 115.015625 C 460.582031 110.957031 468.695312 108.058594 477.390625 112.117188 C 480.289062 112.695312 483.765625 113.273438 486.664062 113.855469 C 495.359375 116.171875 505.214844 116.753906 512.75 121.96875 C 527.238281 131.242188 539.410156 143.996094 546.945312 159.644531 C 550.425781 166.601562 553.324219 174.136719 556.800781 181.089844 C 564.335938 199.058594 563.753906 199.058594 563.175781 217.609375 C 562.597656 223.40625 562.597656 229.78125 563.175781 235.578125 C 564.914062 242.53125 564.335938 249.488281 562.597656 255.863281 C 561.4375 260.5 561.4375 265.136719 563.753906 269.195312 C 564.335938 269.773438 563.753906 270.933594 563.175781 272.09375 Z M 230.46875 143.996094 C 233.945312 140.515625 237.421875 136.460938 240.320312 131.824219 C 247.855469 119.070312 256.550781 107.476562 266.40625 95.886719 C 277.996094 80.816406 290.75 66.902344 304.660156 54.152344 C 316.253906 43.71875 330.742188 36.761719 346.394531 33.285156 C 358.566406 30.96875 371.316406 34.445312 381.171875 42.558594 C 388.707031 47.777344 395.082031 54.730469 399.71875 62.847656 C 403.777344 70.382812 406.675781 79.078125 411.3125 86.613281 C 415.949219 94.148438 414.789062 98.203125 407.253906 104.582031 C 402.617188 108.058594 398.5625 111.535156 395.082031 115.59375 C 383.492188 130.664062 372.476562 145.734375 361.464844 161.382812 C 350.453125 177.035156 342.335938 192.683594 331.324219 207.175781 C 330.164062 208.335938 329.003906 210.074219 327.265625 211.234375 C 325.527344 211.234375 323.207031 210.652344 321.46875 210.074219 C 294.226562 193.84375 268.722656 174.136719 243.21875 155.589844 C 238.582031 152.109375 234.523438 148.050781 230.46875 143.996094 Z M 101.789062 652.332031 C 101.789062 656.96875 102.367188 659.867188 102.367188 662.765625 C 102.367188 670.878906 102.949219 679.574219 104.109375 687.691406 C 105.265625 692.328125 105.847656 697.542969 105.265625 702.761719 C 105.265625 707.398438 105.847656 712.035156 106.425781 716.671875 C 107.007812 718.988281 107.585938 721.308594 108.164062 723.625 C 108.746094 738.695312 110.484375 753.765625 113.382812 768.839844 C 114.542969 777.53125 114.542969 786.226562 114.542969 794.921875 C 114.542969 797.238281 113.960938 799.558594 113.382812 801.296875 C 106.425781 815.789062 100.628906 830.859375 95.992188 846.507812 C 93.09375 856.941406 90.777344 867.953125 90.195312 878.96875 C 88.457031 896.9375 89.617188 914.90625 92.515625 932.875 C 95.414062 948.523438 101.210938 963.015625 109.902344 976.347656 C 113.382812 983.300781 121.496094 986.78125 129.03125 984.460938 C 132.511719 983.882812 135.40625 982.722656 138.304688 982.722656 C 141.203125 982.722656 143.523438 984.460938 144.101562 987.359375 C 144.683594 993.15625 144.101562 999.53125 143.523438 1005.328125 C 141.203125 1019.820312 136.566406 1033.730469 137.148438 1049.378906 C 136.566406 1053.4375 135.988281 1057.496094 135.988281 1061.550781 C 135.988281 1062.710938 134.828125 1063.871094 133.667969 1064.449219 C 132.511719 1065.03125 131.351562 1063.871094 130.191406 1063.289062 C 129.613281 1062.710938 129.03125 1062.132812 128.453125 1061.550781 C 112.800781 1042.425781 100.628906 1019.820312 93.09375 996.054688 C 90.195312 986.199219 88.457031 976.347656 84.980469 966.492188 C 78.605469 947.363281 73.96875 928.238281 71.070312 908.527344 C 68.171875 895.199219 65.273438 882.445312 61.792969 869.695312 C 57.15625 854.042969 51.941406 838.972656 47.304688 823.324219 C 41.507812 802.457031 32.234375 782.75 30.496094 760.722656 C 30.496094 759.5625 29.914062 757.824219 29.335938 756.664062 C 25.277344 748.550781 27.015625 740.4375 27.015625 732.320312 C 26.4375 727.683594 28.757812 723.046875 32.8125 720.730469 C 42.667969 716.089844 49.621094 707.976562 57.738281 701.019531 C 69.332031 691.167969 81.503906 681.894531 89.039062 667.980469 C 90.195312 660.445312 95.414062 655.230469 101.789062 652.332031 Z M 442.03125 506.265625 C 435.65625 507.425781 429.859375 505.683594 424.066406 502.789062 C 384.070312 488.296875 345.8125 469.167969 305.820312 455.257812 C 289.589844 449.460938 273.359375 445.402344 257.128906 440.1875 C 250.175781 437.867188 242.640625 437.867188 235.683594 433.230469 L 260.609375 385.121094 C 262.925781 384.542969 265.246094 383.960938 267.5625 383.382812 C 275.097656 383.382812 283.214844 382.804688 290.75 383.382812 C 309.296875 383.960938 327.265625 381.066406 345.8125 384.542969 C 360.882812 387.441406 375.957031 388.601562 391.027344 391.496094 C 403.199219 393.816406 415.371094 397.292969 427.542969 399.613281 C 446.089844 403.671875 441.453125 401.351562 445.511719 420.480469 C 445.511719 422.796875 445.511719 425.117188 445.511719 427.433594 C 446.089844 445.402344 443.191406 463.371094 445.511719 481.339844 C 446.089844 489.457031 444.929688 498.148438 442.03125 506.265625 Z M 567.8125 1183.273438 C 559.699219 1183.855469 551.582031 1182.695312 543.46875 1180.957031 C 528.398438 1176.320312 513.90625 1169.941406 500.574219 1161.828125 C 492.460938 1157.191406 485.503906 1151.394531 477.96875 1146.179688 C 474.492188 1144.4375 473.332031 1140.382812 474.492188 1136.324219 C 475.070312 1134.007812 475.652344 1131.6875 476.230469 1129.367188 C 479.710938 1120.09375 482.027344 1110.820312 483.765625 1101.546875 C 489.5625 1076.621094 493.039062 1051.699219 494.199219 1026.195312 C 494.78125 1022.714844 495.9375 1019.238281 498.257812 1016.339844 C 500.574219 1013.441406 502.894531 1010.542969 505.214844 1008.226562 C 509.851562 1003.589844 513.328125 1003.589844 517.964844 1008.226562 C 524.339844 1014.023438 530.714844 1019.820312 537.09375 1026.195312 C 538.25 1027.355469 539.992188 1028.511719 541.148438 1030.25 C 552.742188 1045.902344 567.234375 1060.394531 582.882812 1071.984375 C 596.214844 1083 607.808594 1094.589844 605.488281 1113.71875 C 605.488281 1114.878906 605.488281 1116.617188 606.070312 1117.777344 C 610.125 1127.628906 607.226562 1138.0625 607.226562 1147.917969 C 607.226562 1157.769531 604.328125 1167.625 595.054688 1172.839844 C 590.417969 1175.738281 588.679688 1182.117188 582.304688 1182.695312 C 575.929688 1183.273438 570.710938 1183.273438 567.8125 1183.273438 Z M 274.519531 361.355469 C 274.519531 359.039062 274.519531 356.71875 275.097656 354.402344 C 276.257812 351.503906 277.996094 348.605469 279.15625 345.707031 C 287.273438 324.839844 297.703125 304.554688 309.878906 286.003906 C 316.253906 277.308594 321.46875 268.617188 327.847656 259.921875 C 334.800781 250.066406 337.699219 249.488281 348.710938 255.285156 C 351.609375 257.023438 354.507812 258.761719 357.40625 259.34375 C 365.523438 260.5 370.738281 266.296875 377.113281 270.933594 C 379.433594 272.671875 381.171875 274.992188 383.492188 276.152344 C 397.980469 281.367188 408.992188 291.800781 422.90625 298.757812 C 428.121094 301.65625 432.757812 305.132812 437.394531 309.191406 C 440.875 311.507812 442.613281 315.566406 443.191406 319.625 C 444.929688 330.636719 442.03125 341.648438 447.828125 352.082031 L 445.511719 379.90625 C 437.394531 379.90625 429.28125 379.324219 421.746094 377.585938 C 405.515625 372.371094 388.707031 368.890625 371.898438 367.734375 C 359.726562 367.152344 348.132812 365.414062 335.960938 364.835938 C 324.367188 363.675781 312.773438 363.097656 301.761719 363.675781 C 291.910156 363.097656 283.214844 362.515625 274.519531 361.355469 Z M 535.355469 579.878906 L 565.496094 590.890625 C 570.132812 592.628906 574.1875 596.109375 577.085938 600.164062 C 578.824219 603.0625 581.144531 605.382812 584.042969 607.121094 C 588.101562 609.4375 590.417969 614.65625 589.257812 619.292969 C 588.679688 623.351562 588.679688 627.40625 588.101562 631.464844 C 586.941406 639.582031 585.78125 647.695312 585.203125 656.390625 C 585.203125 663.925781 584.621094 670.878906 582.882812 678.414062 C 581.722656 686.53125 580.566406 694.644531 580.566406 703.339844 C 580.566406 706.816406 580.566406 709.714844 579.984375 712.613281 C 574.1875 728.265625 573.609375 745.074219 567.234375 760.722656 C 566.652344 762.460938 566.652344 764.199219 566.652344 765.941406 C 567.8125 781.589844 562.015625 794.339844 553.902344 807.09375 C 552.742188 809.414062 550.425781 809.992188 548.105469 809.414062 C 544.628906 803.035156 541.730469 796.082031 539.992188 789.125 C 535.933594 774.054688 531.296875 758.984375 525.5 744.492188 C 520.863281 732.320312 517.386719 720.148438 512.167969 707.976562 C 508.691406 700.441406 508.691406 692.328125 512.167969 685.371094 C 513.328125 682.472656 513.90625 678.996094 514.488281 676.097656 C 518.542969 655.230469 522.023438 634.363281 526.078125 613.496094 C 527.238281 607.699219 528.398438 601.902344 530.136719 596.109375 C 531.296875 590.3125 533.035156 586.253906 535.355469 579.878906 Z M 135.40625 596.6875 C 137.148438 597.847656 138.304688 598.425781 138.886719 599.585938 C 142.363281 605.960938 145.839844 612.917969 148.738281 619.292969 C 155.695312 637.839844 162.070312 656.390625 169.027344 675.515625 C 171.34375 681.3125 173.664062 687.691406 175.980469 693.484375 C 178.300781 699.28125 181.199219 707.398438 183.515625 714.351562 C 184.675781 716.671875 185.257812 718.410156 185.835938 720.730469 C 187.574219 732.320312 191.632812 742.753906 198.589844 752.027344 C 198.007812 757.824219 197.429688 763.621094 196.847656 768.839844 C 196.847656 778.691406 194.53125 787.964844 190.472656 796.660156 C 189.3125 798.980469 188.15625 801.875 187.574219 804.195312 C 183.515625 818.105469 178.878906 832.597656 175.402344 846.507812 C 173.085938 851.144531 172.503906 856.363281 174.242188 861.578125 C 174.824219 863.316406 174.242188 865.058594 173.085938 866.796875 C 167.289062 877.230469 164.390625 888.242188 163.808594 899.835938 C 163.808594 902.152344 163.808594 905.632812 159.753906 906.789062 C 159.171875 905.632812 157.433594 903.890625 157.433594 902.734375 C 156.273438 885.34375 149.898438 868.535156 148.160156 851.144531 C 147 836.65625 144.683594 822.742188 141.785156 808.832031 C 140.046875 800.71875 142.363281 792.023438 148.738281 786.226562 C 155.117188 779.269531 160.910156 771.15625 165.550781 762.460938 C 170.1875 754.925781 174.242188 747.390625 178.300781 739.277344 C 181.199219 733.480469 180.039062 725.945312 174.242188 721.886719 C 168.445312 720.148438 162.070312 723.046875 158.59375 728.265625 C 156.273438 731.742188 153.957031 735.21875 151.636719 738.695312 C 147.582031 745.652344 141.203125 750.871094 134.25 754.925781 C 133.089844 752.609375 132.511719 750.289062 131.929688 747.390625 C 131.351562 739.277344 130.769531 730.582031 129.613281 722.46875 C 128.453125 707.976562 126.132812 694.066406 125.554688 679.574219 C 124.394531 658.128906 124.394531 637.261719 123.816406 615.816406 C 124.394531 608.28125 128.453125 600.746094 135.40625 596.6875 Z M 108.164062 288.324219 C 107.007812 286.003906 105.847656 283.105469 105.265625 280.207031 C 104.109375 263.980469 101.789062 248.328125 101.210938 232.097656 C 100.628906 220.507812 101.210938 208.914062 101.789062 197.320312 C 102.371094 187.46875 103.527344 178.195312 104.6875 168.339844 C 105.847656 149.792969 109.90625 131.824219 115.699219 113.855469 C 119.179688 105.160156 120.917969 101.101562 133.089844 104.582031 C 135.988281 105.160156 138.304688 106.320312 140.625 108.058594 C 153.957031 115.59375 166.128906 124.867188 177.140625 135.300781 C 181.777344 139.359375 185.835938 143.414062 188.734375 148.632812 C 188.15625 152.691406 187.574219 156.746094 186.414062 160.804688 C 184.675781 164.28125 182.9375 167.179688 180.621094 170.078125 L 169.027344 186.886719 C 164.390625 192.683594 160.332031 199.058594 156.855469 205.4375 C 150.480469 219.347656 142.363281 233.257812 133.089844 246.011719 C 131.351562 247.75 130.191406 250.066406 129.613281 252.386719 C 127.292969 264.558594 117.441406 272.671875 112.800781 284.265625 C 113.382812 285.425781 111.0625 286.003906 108.164062 288.324219 Z M 248.4375 614.65625 C 245.539062 612.917969 243.21875 612.335938 242.058594 611.179688 C 236.84375 604.222656 231.625 597.265625 226.988281 589.730469 C 213.660156 568.285156 199.746094 546.839844 186.414062 525.394531 C 185.257812 523.074219 184.097656 520.753906 182.9375 518.4375 C 186.996094 506.84375 196.269531 499.890625 202.066406 490.613281 C 203.804688 487.714844 207.863281 487.136719 210.761719 488.875 C 214.816406 490.613281 218.875 492.933594 223.511719 494.671875 C 229.886719 496.410156 236.84375 498.730469 243.21875 501.628906 C 254.8125 508.003906 266.984375 513.21875 279.738281 517.859375 C 286.691406 520.175781 293.648438 523.652344 293.648438 532.929688 C 289.011719 540.464844 284.375 548 280.316406 554.953125 C 278.578125 557.273438 277.996094 559.589844 277.417969 562.488281 C 276.839844 567.707031 274.519531 572.34375 270.460938 575.820312 C 266.984375 578.71875 264.664062 582.777344 263.507812 587.414062 C 259.449219 597.265625 254.8125 606.542969 248.4375 614.65625 Z M 311.035156 698.703125 C 306.980469 695.226562 302.921875 691.746094 299.445312 688.269531 C 290.167969 678.414062 282.054688 667.980469 272.78125 658.128906 C 271.042969 655.808594 269.304688 654.070312 267.5625 651.753906 C 262.925781 645.957031 262.925781 638.421875 266.984375 632.046875 C 268.722656 629.148438 270.460938 626.828125 272.199219 623.929688 C 282.632812 602.484375 294.226562 581.617188 307.558594 561.328125 C 309.878906 557.273438 312.773438 553.792969 315.671875 550.316406 C 318.570312 546.257812 324.367188 545.101562 328.425781 548 C 328.425781 548 329.003906 548.578125 329.003906 548.578125 C 333.640625 551.476562 338.277344 554.375 342.917969 557.273438 C 349.292969 559.589844 352.191406 566.546875 351.03125 572.921875 C 349.292969 583.355469 347.554688 593.789062 346.394531 604.222656 C 345.8125 608.28125 344.074219 612.335938 342.917969 615.816406 C 340.597656 623.351562 334.800781 630.304688 334.800781 639 C 334.222656 641.898438 333.0625 644.21875 331.902344 646.535156 C 330.164062 651.171875 327.847656 655.808594 326.105469 660.445312 C 323.789062 667.402344 322.050781 674.359375 319.730469 681.3125 C 317.992188 686.53125 314.515625 691.746094 311.035156 698.703125 Z M 440.875 277.308594 C 437.976562 276.152344 436.238281 274.992188 433.917969 273.832031 C 421.167969 266.296875 408.414062 257.601562 395.082031 250.648438 C 382.910156 244.273438 370.160156 239.054688 358.566406 231.519531 C 356.828125 230.359375 355.089844 228.621094 353.347656 226.882812 C 356.246094 222.246094 357.988281 218.1875 360.886719 214.710938 C 372.476562 197.320312 384.648438 179.351562 396.242188 161.964844 C 399.140625 156.746094 402.617188 152.109375 406.097656 147.472656 C 411.3125 141.675781 415.371094 134.722656 422.90625 131.824219 C 424.066406 132.980469 425.804688 133.5625 426.382812 134.722656 C 429.28125 142.257812 431.601562 150.371094 432.757812 158.484375 C 432.757812 163.125 433.339844 167.761719 435.078125 171.816406 C 435.65625 173.554688 436.238281 175.296875 436.238281 177.035156 C 436.816406 181.671875 437.394531 186.308594 437.394531 190.945312 C 437.976562 200.21875 439.136719 208.914062 439.136719 218.1875 C 439.136719 236.734375 437.394531 255.285156 442.03125 273.253906 C 442.03125 273.253906 441.453125 274.414062 440.875 277.308594 Z M 442.613281 924.179688 C 444.351562 924.757812 446.089844 925.339844 446.671875 926.496094 C 454.207031 935.191406 461.742188 943.886719 468.695312 953.160156 C 470.433594 955.480469 471.59375 958.957031 471.59375 961.855469 C 471.59375 973.449219 471.59375 985.039062 471.59375 996.632812 C 471.59375 1001.269531 469.277344 1005.90625 465.21875 1008.226562 C 451.308594 1017.5 439.136719 1028.511719 425.222656 1037.207031 C 415.371094 1043.582031 404.355469 1047.0625 394.503906 1052.855469 C 391.605469 1054.597656 387.546875 1053.4375 385.808594 1050.539062 C 382.910156 1047.640625 382.332031 1043.582031 384.070312 1040.105469 C 386.386719 1033.730469 388.707031 1027.933594 392.183594 1022.714844 C 402.039062 1008.804688 407.253906 993.15625 415.371094 978.664062 C 424.644531 961.855469 432.179688 943.886719 440.292969 926.496094 C 440.875 925.917969 441.453125 925.339844 442.613281 924.179688 Z M 250.175781 821.585938 C 248.4375 818.6875 246.699219 815.789062 244.957031 812.308594 C 240.902344 803.617188 237.421875 794.339844 233.367188 785.648438 C 230.46875 778.691406 228.730469 771.734375 226.410156 764.78125 C 224.671875 759.5625 224.671875 753.765625 226.988281 748.550781 C 232.785156 730.582031 238.582031 712.613281 244.378906 694.644531 C 244.957031 690.007812 247.855469 685.371094 251.335938 681.894531 C 253.074219 683.050781 255.972656 683.632812 256.550781 684.792969 C 263.507812 695.226562 272.78125 703.917969 278.578125 714.933594 C 283.214844 723.625 289.011719 731.160156 294.808594 739.855469 C 294.226562 741.59375 294.226562 742.753906 293.648438 744.492188 C 286.691406 758.984375 280.316406 774.054688 272.78125 788.546875 C 268.722656 796.660156 264.664062 804.773438 260.027344 812.308594 C 257.710938 815.789062 255.972656 821.003906 250.175781 821.585938 Z M 472.753906 417 C 480.867188 421.640625 488.984375 422.21875 495.9375 426.855469 C 502.894531 431.492188 511.007812 436.128906 518.542969 440.765625 C 521.441406 443.085938 524.339844 445.402344 527.238281 447.722656 C 530.136719 450.039062 531.875 454.097656 530.714844 457.574219 C 527.238281 473.226562 528.398438 489.457031 523.179688 505.105469 C 522.601562 506.265625 522.601562 508.003906 522.601562 509.164062 C 523.179688 515.539062 522.023438 521.914062 519.703125 527.710938 C 517.386719 535.824219 513.90625 537.566406 506.953125 534.667969 C 497.097656 530.609375 487.246094 527.132812 477.390625 523.074219 C 475.070312 521.914062 472.175781 520.175781 469.855469 519.015625 C 468.117188 487.714844 471.015625 456.417969 471.59375 425.117188 C 471.015625 422.21875 472.175781 419.320312 472.753906 417 Z M 469.855469 332.375 C 475.070312 332.957031 480.289062 335.273438 483.765625 339.332031 C 486.664062 342.230469 490.140625 344.546875 493.621094 346.867188 C 507.53125 353.242188 517.964844 364.835938 531.875 371.789062 C 537.09375 374.109375 539.992188 379.90625 538.832031 385.703125 C 538.832031 391.496094 538.832031 396.714844 537.671875 401.929688 C 537.09375 408.886719 535.355469 416.421875 533.035156 423.378906 C 523.761719 422.21875 519.125 415.261719 512.167969 411.785156 C 505.214844 408.308594 498.257812 404.25 491.300781 400.773438 C 483.1875 398.453125 476.230469 394.394531 469.855469 388.601562 Z M 500.574219 742.175781 L 504.054688 752.609375 C 506.953125 760.722656 508.691406 769.417969 512.167969 777.53125 C 518.542969 789.703125 523.179688 802.457031 525.5 815.789062 C 525.5 817.527344 526.078125 819.265625 526.660156 821.003906 C 528.398438 826.222656 530.136719 831.4375 530.714844 836.65625 C 533.613281 844.191406 530.136719 852.882812 523.179688 856.941406 C 515.066406 863.316406 505.214844 867.375 494.78125 867.953125 C 491.300781 865.636719 489.5625 861.578125 490.140625 857.523438 C 488.984375 838.394531 487.824219 819.84375 485.503906 800.71875 C 484.347656 791.445312 484.925781 782.167969 487.246094 773.476562 C 490.140625 763.621094 493.039062 753.765625 495.9375 744.492188 C 497.679688 743.914062 498.835938 743.335938 500.574219 742.175781 Z M 188.734375 1138.644531 C 190.472656 1138.0625 191.632812 1136.902344 192.792969 1136.902344 C 199.167969 1139.222656 206.125 1140.382812 213.078125 1139.800781 C 222.933594 1145.019531 232.785156 1143.28125 243.21875 1142.699219 C 254.234375 1143.28125 265.246094 1141.539062 275.679688 1138.0625 C 280.894531 1135.164062 287.273438 1134.585938 293.066406 1136.324219 C 293.066406 1138.0625 293.066406 1139.222656 293.066406 1140.960938 C 293.066406 1142.699219 281.476562 1154.871094 280.894531 1154.871094 C 271.042969 1159.507812 263.507812 1167.625 253.074219 1169.941406 C 250.175781 1170.523438 247.855469 1172.261719 246.699219 1174.578125 C 242.058594 1182.113281 235.105469 1182.695312 227.570312 1182.695312 C 224.671875 1183.273438 222.351562 1183.273438 219.453125 1183.855469 C 214.238281 1184.433594 209.601562 1185.011719 204.382812 1185.011719 C 196.847656 1185.011719 193.371094 1182.113281 192.210938 1174.578125 C 190.472656 1163.566406 189.894531 1150.816406 188.734375 1138.644531 Z M 515.644531 960.117188 C 513.90625 958.957031 512.167969 957.21875 510.429688 955.480469 C 506.953125 951.421875 504.632812 947.363281 500.574219 943.886719 C 496.519531 939.828125 494.199219 933.453125 494.78125 927.65625 C 494.78125 921.859375 494.199219 916.0625 494.199219 909.6875 C 494.199219 906.789062 494.199219 903.3125 494.199219 899.835938 C 496.519531 899.253906 498.835938 898.097656 501.15625 897.515625 C 508.691406 895.199219 516.226562 894.039062 523.761719 891.71875 C 527.238281 890.5625 530.714844 888.820312 533.613281 887.082031 C 536.511719 885.34375 539.410156 880.707031 542.308594 880.707031 C 548.105469 880.707031 545.207031 887.082031 548.105469 889.980469 C 554.480469 897.515625 553.902344 907.371094 556.21875 916.0625 C 557.960938 921.859375 555.640625 928.816406 549.84375 931.714844 C 546.945312 934.03125 544.046875 936.351562 541.730469 938.671875 C 533.613281 946.785156 524.921875 953.742188 515.644531 960.117188 Z M 162.070312 585.09375 C 171.925781 594.367188 181.777344 604.222656 189.894531 615.234375 C 191.632812 617.554688 192.792969 620.453125 194.53125 622.191406 C 206.703125 630.886719 213.660156 644.21875 225.832031 652.910156 C 229.308594 655.808594 230.46875 661.027344 228.730469 665.664062 C 226.410156 672.039062 224.671875 678.996094 222.933594 685.371094 C 222.933594 687.691406 221.773438 690.007812 221.195312 691.746094 C 217.714844 696.964844 215.398438 703.339844 214.238281 709.714844 C 213.660156 712.035156 213.660156 715.511719 209.019531 715.511719 C 194.53125 681.894531 183.515625 645.957031 168.445312 612.335938 C 165.550781 605.382812 163.230469 598.425781 160.910156 591.46875 C 160.910156 590.3125 160.332031 589.730469 160.332031 588.574219 C 160.332031 587.992188 160.332031 587.414062 160.910156 587.414062 C 161.492188 586.253906 161.492188 586.253906 162.070312 585.09375 Z M 468.117188 554.375 C 471.015625 553.792969 472.175781 553.214844 472.753906 553.792969 C 482.027344 556.691406 491.300781 559.011719 500.574219 562.488281 C 506.371094 565.386719 509.851562 571.761719 508.691406 578.71875 C 508.109375 582.195312 507.53125 585.675781 506.953125 589.152344 C 505.214844 598.425781 502.316406 607.699219 501.15625 617.554688 C 499.417969 629.148438 494.199219 639.582031 496.519531 651.753906 C 497.097656 654.652344 494.78125 658.128906 491.882812 658.128906 C 491.882812 658.128906 491.300781 658.128906 491.300781 658.128906 C 490.140625 657.546875 489.5625 657.546875 488.984375 656.96875 C 483.1875 647.695312 477.390625 638.421875 471.59375 628.566406 C 468.695312 623.929688 467.535156 618.132812 467.535156 612.335938 C 467.535156 597.847656 466.957031 582.777344 466.957031 568.285156 C 467.535156 563.648438 468.117188 559.011719 468.117188 554.375 Z M 553.902344 476.125 C 564.335938 483.660156 568.972656 493.511719 574.1875 503.367188 C 577.085938 509.164062 579.984375 514.960938 582.304688 520.753906 C 583.464844 524.234375 582.882812 528.289062 584.042969 531.1875 C 589.839844 543.359375 589.839844 556.113281 591 568.863281 C 591 570.605469 590.417969 572.34375 589.839844 573.503906 C 584.621094 574.660156 578.824219 572.921875 575.347656 568.863281 C 567.8125 563.070312 559.699219 558.433594 551.003906 555.535156 C 540.570312 550.898438 539.992188 550.316406 540.570312 539.304688 C 540.570312 538.144531 540.570312 536.40625 541.148438 535.246094 C 542.308594 527.132812 543.46875 519.015625 545.207031 510.902344 C 546.945312 502.789062 551.003906 494.671875 549.84375 485.398438 C 549.84375 482.5 552.164062 479.601562 553.902344 476.125 Z M 439.714844 589.152344 C 433.917969 586.832031 428.121094 582.777344 424.066406 578.140625 C 421.746094 575.820312 419.425781 574.082031 416.53125 572.34375 C 406.097656 567.125 397.980469 559.011719 388.128906 553.792969 C 383.492188 550.898438 380.011719 546.257812 378.851562 540.464844 C 377.113281 533.507812 375.957031 525.972656 374.796875 519.015625 C 374.796875 517.859375 376.535156 516.117188 378.273438 515.539062 C 380.011719 514.960938 381.171875 516.117188 382.332031 516.699219 C 392.183594 521.335938 402.039062 525.972656 412.472656 530.609375 C 415.949219 532.347656 420.007812 534.085938 424.066406 534.667969 C 429.28125 535.824219 434.496094 537.566406 439.714844 540.464844 C 442.613281 541.621094 444.351562 545.101562 444.351562 548.578125 C 444.351562 560.171875 444.351562 571.761719 443.773438 582.777344 C 442.03125 584.515625 440.875 586.832031 439.714844 589.152344 Z M 186.414062 919.542969 L 183.515625 918.960938 C 183.515625 912.007812 184.675781 905.632812 185.835938 898.675781 C 189.894531 884.765625 192.210938 870.851562 196.269531 857.523438 C 201.484375 841.292969 203.226562 823.902344 210.761719 808.832031 C 211.917969 807.09375 213.078125 805.355469 214.238281 804.195312 C 221.195312 815.207031 220.613281 827.378906 228.730469 836.074219 C 229.308594 836.65625 229.308594 838.972656 229.308594 840.132812 C 229.308594 843.609375 230.46875 847.667969 231.046875 851.144531 C 233.945312 858.101562 230.46875 863.898438 226.988281 869.113281 C 222.351562 876.648438 216.554688 884.183594 210.761719 891.140625 C 203.226562 900.414062 194.53125 910.269531 186.414062 919.542969 Z M 468.695312 1044.164062 C 469.855469 1051.117188 469.277344 1058.074219 466.957031 1065.03125 C 465.21875 1068.507812 464.640625 1072.566406 464.058594 1077.203125 C 464.058594 1080.679688 463.480469 1084.738281 462.320312 1087.636719 C 460.582031 1094.589844 458.261719 1101.546875 456.523438 1109.082031 C 455.945312 1113.71875 453.625 1118.355469 449.566406 1121.832031 C 441.453125 1116.617188 433.917969 1109.660156 427.542969 1102.125 C 420.007812 1095.171875 413.632812 1087.636719 408.414062 1078.941406 C 418.847656 1073.144531 428.121094 1066.769531 437.976562 1062.132812 C 447.828125 1057.496094 455.363281 1046.480469 468.695312 1044.164062 Z M 590.417969 1038.367188 C 588.101562 1037.785156 585.78125 1036.628906 583.464844 1034.890625 C 574.1875 1026.195312 566.074219 1016.921875 556.800781 1008.804688 C 550.425781 1002.429688 544.046875 995.472656 538.832031 987.9375 C 535.933594 985.039062 535.355469 980.402344 538.253906 977.503906 C 538.832031 976.925781 539.410156 976.347656 539.992188 976.347656 C 544.046875 972.289062 548.683594 968.230469 553.324219 964.171875 C 556.800781 961.855469 560.277344 959.535156 564.335938 957.796875 C 567.8125 956.058594 573.03125 958.957031 572.449219 963.015625 C 571.289062 971.128906 575.347656 977.503906 577.085938 984.460938 C 577.667969 985.621094 578.246094 986.777344 578.246094 988.519531 C 582.304688 1002.429688 586.363281 1015.761719 589.839844 1029.671875 C 589.839844 1031.992188 589.839844 1034.890625 590.417969 1038.367188 Z M 120.917969 849.40625 L 123.234375 849.40625 C 123.816406 852.882812 124.394531 856.363281 124.976562 859.839844 C 127.871094 869.695312 129.613281 879.546875 130.191406 889.980469 C 130.769531 893.457031 131.351562 896.9375 132.511719 900.414062 C 133.089844 903.3125 134.828125 906.789062 134.828125 909.6875 C 136.566406 920.703125 137.726562 931.714844 139.464844 942.726562 C 139.464844 944.464844 139.464844 946.785156 138.886719 948.523438 C 137.148438 949.101562 135.40625 950.261719 133.667969 950.84375 C 127.292969 952.582031 124.976562 952 123.234375 945.625 C 120.335938 935.773438 117.4375 925.917969 115.121094 916.0625 C 112.222656 897.515625 112.800781 878.386719 116.859375 859.839844 C 117.441406 856.363281 119.179688 852.882812 120.917969 849.40625 Z M 119.757812 489.457031 C 117.441406 487.136719 115.699219 484.820312 114.542969 482.5 C 109.90625 470.328125 105.265625 458.15625 101.210938 446.5625 C 97.152344 433.230469 93.09375 419.898438 89.617188 407.148438 C 88.457031 401.351562 89.617188 394.976562 93.09375 390.339844 C 97.152344 394.394531 100.050781 399.03125 101.789062 404.25 C 103.527344 411.207031 105.847656 418.160156 108.746094 425.117188 C 111.0625 433.230469 113.960938 440.765625 118.597656 447.722656 C 123.234375 454.675781 123.234375 462.792969 126.714844 469.167969 C 127.871094 472.066406 127.292969 475.542969 126.132812 478.441406 C 124.394531 481.921875 122.078125 485.976562 119.757812 489.457031 Z M 233.945312 466.269531 C 239.742188 466.269531 245.539062 466.269531 250.753906 466.269531 C 252.492188 466.269531 254.234375 466.269531 255.972656 467.429688 C 261.1875 470.328125 266.984375 472.066406 272.78125 472.644531 C 277.417969 473.226562 281.476562 474.964844 285.53125 476.703125 C 294.808594 481.339844 304.660156 485.398438 315.09375 488.296875 C 319.730469 488.875 324.367188 491.773438 326.105469 496.410156 L 314.515625 505.683594 L 245.539062 472.644531 C 242.058594 470.90625 238.003906 468.589844 233.945312 466.269531 Z M 471.015625 910.269531 C 466.957031 906.210938 465.21875 904.472656 463.480469 902.734375 C 460.582031 899.835938 458.261719 896.355469 455.945312 892.878906 C 454.207031 889.980469 455.363281 886.503906 458.261719 884.765625 C 458.261719 884.765625 458.84375 884.183594 459.421875 884.183594 C 468.117188 889.980469 472.753906 899.835938 471.015625 910.269531 Z M 174.242188 557.851562 C 174.824219 556.113281 174.824219 554.375 175.980469 553.792969 C 177.140625 553.214844 178.300781 554.375 179.460938 554.375 C 179.460938 555.535156 179.460938 557.273438 178.300781 557.851562 C 177.140625 558.433594 175.980469 558.433594 174.242188 557.851562 Z M 156.855469 577.558594 L 156.855469 576.398438 L 158.015625 576.980469 Z M 479.128906 702.179688 C 479.710938 701.601562 480.289062 701.019531 480.867188 701.019531 C 480.867188 701.019531 481.449219 701.601562 481.449219 701.601562 C 481.449219 702.179688 480.867188 702.761719 480.289062 703.339844 Z M 479.128906 702.179688 " fill-opacity="1" fill-rule="nonzero"/></g></g></g></g></svg>