<svg xmlns="http://www.w3.org/2000/svg" xmlns:xlink="http://www.w3.org/1999/xlink" width="750" zoomAndPan="magnify" viewBox="380 320 750 600" height="300" preserveAspectRatio="xMidYMid meet" version="1.0"><defs><g/><clipPath id="61e036b7cb"><rect x="0" width="697" y="0" height="260"/></clipPath><clipPath id="0d06978fe0"><rect x="0" width="436" y="0" height="64"/></clipPath></defs><g transform="matrix(1, 0, 0, 1, 403, 608)"><g clip-path="url(#61e036b7cb)"><g fill="#EEEEE8" fill-opacity="1"><g transform="translate(7.082068, 204.99991)"><g><path d="M 6.71875 -105.265625 L -4.484375 -108.625 L -4.484375 -112 L 21.28125 -112 C 29.195312 -112 35.46875 -110.351562 40.09375 -107.0625 C 44.71875 -103.78125 48.523438 -99.078125 51.515625 -92.953125 L 76.15625 -41.4375 L 88.921875 -74.140625 L 73.921875 -105.265625 L 62.71875 -108.625 L 62.71875 -112 L 88.46875 -112 C 96.382812 -112 102.65625 -110.351562 107.28125 -107.0625 C 111.914062 -103.78125 115.726562 -99.078125 118.71875 -92.953125 L 143.34375 -41.4375 L 166.875 -101.90625 L 150.0625 -108.625 L 150.0625 -112 L 191.5 -112 L 191.5 -108.625 L 173.59375 -101.90625 L 132.15625 2.234375 L 125.4375 2.234375 L 92.28125 -66.75 L 64.953125 2.234375 L 58.234375 2.234375 Z M 6.71875 -105.265625 "/></g></g></g><g fill="#EEEEE8" fill-opacity="1"><g transform="translate(194.095953, 204.99991)"><g><path d="M 8.953125 -3.359375 L 22.40625 -6.71875 L 22.40625 -105.265625 L 8.953125 -108.625 L 8.953125 -112 L 38.078125 -112 C 51.515625 -112 58.234375 -105.273438 58.234375 -91.828125 L 58.234375 -6.71875 L 71.671875 -3.359375 L 71.671875 0 L 8.953125 0 Z M 38.078125 -125.4375 C 33.597656 -125.4375 29.863281 -126.925781 26.875 -129.90625 C 23.882812 -132.894531 22.390625 -136.628906 22.390625 -141.109375 C 22.390625 -145.585938 23.882812 -149.320312 26.875 -152.3125 C 29.863281 -155.300781 33.597656 -156.796875 38.078125 -156.796875 C 42.554688 -156.796875 46.285156 -155.300781 49.265625 -152.3125 C 52.253906 -149.320312 53.75 -145.585938 53.75 -141.109375 C 53.75 -136.628906 52.253906 -132.894531 49.265625 -129.90625 C 46.285156 -126.925781 42.554688 -125.4375 38.078125 -125.4375 Z M 38.078125 -125.4375 "/></g></g></g><g fill="#EEEEE8" fill-opacity="1"><g transform="translate(270.2453, 204.99991)"><g><path d="M 8.953125 -3.359375 L 22.40625 -6.71875 L 22.40625 -150.0625 L 8.953125 -153.421875 L 8.953125 -156.796875 L 38.078125 -156.796875 C 51.515625 -156.796875 58.234375 -150.070312 58.234375 -136.625 L 58.234375 -6.71875 L 71.671875 -3.359375 L 71.671875 0 L 8.953125 0 Z M 8.953125 -3.359375 "/></g></g></g><g fill="#EEEEE8" fill-opacity="1"><g transform="translate(346.394647, 204.99991)"><g><path d="M 54.875 3.359375 C 46.0625 3.359375 38.21875 1.082031 31.34375 -3.46875 C 24.476562 -8.019531 19.03125 -14.738281 15 -23.625 C 10.96875 -32.507812 8.953125 -43.300781 8.953125 -56 C 8.953125 -75.113281 13.394531 -89.785156 22.28125 -100.015625 C 31.164062 -110.242188 43.148438 -115.359375 58.234375 -115.359375 C 65.398438 -115.359375 71.671875 -113.863281 77.046875 -110.875 C 79.285156 -109.820312 81.601562 -108.328125 84 -106.390625 L 84 -150.0625 L 70.5625 -153.421875 L 70.5625 -156.796875 L 99.671875 -156.796875 C 113.109375 -156.796875 119.828125 -150.070312 119.828125 -136.625 L 119.828125 -6.71875 L 133.265625 -3.359375 L 133.265625 0 L 113.109375 0 C 104.148438 0 97.207031 -2.757812 92.28125 -8.28125 C 90.1875 -10.519531 88.546875 -13.359375 87.359375 -16.796875 C 85.410156 -13.066406 82.945312 -9.707031 79.96875 -6.71875 C 73.25 0 64.882812 3.359375 54.875 3.359375 Z M 63.828125 -4.484375 C 69.359375 -4.484375 74.363281 -7.46875 78.84375 -13.4375 C 80.488281 -15.675781 82.207031 -18.664062 84 -22.40625 L 84 -99.671875 C 82.351562 -101.316406 80.632812 -102.8125 78.84375 -104.15625 C 74.8125 -107.132812 70.929688 -108.625 67.203125 -108.625 C 60.773438 -108.625 55.804688 -104.890625 52.296875 -97.421875 C 48.785156 -89.960938 47.03125 -76.15625 47.03125 -56 C 47.03125 -36.738281 48.632812 -23.335938 51.84375 -15.796875 C 55.0625 -8.253906 59.054688 -4.484375 63.828125 -4.484375 Z M 63.828125 -4.484375 "/></g></g></g><g fill="#EEEEE8" fill-opacity="1"><g transform="translate(485.255275, 204.99991)"><g><path d="M 8.953125 -3.359375 L 22.40625 -6.71875 L 22.40625 -150.0625 L 8.953125 -153.421875 L 8.953125 -156.796875 L 38.078125 -156.796875 C 51.515625 -156.796875 58.234375 -150.070312 58.234375 -136.625 L 58.234375 -6.71875 L 71.671875 -3.359375 L 71.671875 0 L 8.953125 0 Z M 8.953125 -3.359375 "/></g></g></g><g fill="#EEEEE8" fill-opacity="1"><g transform="translate(561.404623, 204.99991)"><g><path d="M 33.59375 48.15625 C 26.875 48.15625 21.644531 46.363281 17.90625 42.78125 C 14.175781 39.195312 12.3125 34.269531 12.3125 28 C 12.3125 22.320312 13.84375 17.914062 16.90625 14.78125 C 19.96875 11.644531 24.039062 10.078125 29.125 10.078125 C 30.3125 10.078125 31.503906 10.1875 32.703125 10.40625 C 33.898438 10.632812 34.722656 10.75 35.171875 10.75 L 38.078125 11.203125 L 38.078125 41.4375 C 42.410156 40.6875 46.21875 38.296875 49.5 34.265625 C 52.78125 30.234375 56.4375 23.289062 60.46875 13.4375 L 64.953125 2.234375 L 6.71875 -105.265625 L -4.484375 -108.625 L -4.484375 -112 L 23.515625 -112 C 31.285156 -112 37.445312 -110.390625 42 -107.171875 C 46.550781 -103.960938 50.46875 -99.222656 53.75 -92.953125 L 81.75 -41.21875 L 105.265625 -101.90625 L 88.46875 -108.625 L 88.46875 -112 L 129.90625 -112 L 129.90625 -108.625 L 112 -101.90625 L 67.203125 13.4375 C 62.421875 25.6875 57.34375 34.535156 51.96875 39.984375 C 46.59375 45.429688 40.46875 48.15625 33.59375 48.15625 Z M 33.59375 48.15625 "/></g></g></g></g></g><g transform="matrix(1, 0, 0, 1, 543, 829)"><g clip-path="url(#0d06978fe0)"><g fill="#EEEEE8" fill-opacity="1"><g transform="translate(2.654487, 48.799904)"><g><path d="M 20.71875 0.84375 C 17.0625 0.84375 13.859375 0.0507812 11.109375 -1.53125 C 8.367188 -3.125 6.25 -5.445312 4.75 -8.5 C 3.257812 -11.5625 2.515625 -15.257812 2.515625 -19.59375 C 2.515625 -23.925781 3.257812 -27.617188 4.75 -30.671875 C 6.25 -33.734375 8.367188 -36.054688 11.109375 -37.640625 C 13.859375 -39.234375 17.0625 -40.03125 20.71875 -40.03125 C 24.375 -40.03125 27.570312 -39.234375 30.3125 -37.640625 C 33.0625 -36.054688 35.179688 -33.734375 36.671875 -30.671875 C 38.160156 -27.617188 38.90625 -23.925781 38.90625 -19.59375 C 38.90625 -15.257812 38.160156 -11.5625 36.671875 -8.5 C 35.179688 -5.445312 33.0625 -3.125 30.3125 -1.53125 C 27.570312 0.0507812 24.375 0.84375 20.71875 0.84375 Z M 20.71875 -0.28125 C 22.164062 -0.28125 23.515625 -0.894531 24.765625 -2.125 C 26.023438 -3.351562 27.0625 -5.40625 27.875 -8.28125 C 28.695312 -11.15625 29.109375 -14.925781 29.109375 -19.59375 C 29.109375 -24.257812 28.695312 -28.03125 27.875 -30.90625 C 27.0625 -33.78125 26.023438 -35.832031 24.765625 -37.0625 C 23.515625 -38.289062 22.164062 -38.90625 20.71875 -38.90625 C 19.257812 -38.90625 17.90625 -38.289062 16.65625 -37.0625 C 15.40625 -35.832031 14.367188 -33.78125 13.546875 -30.90625 C 12.722656 -28.03125 12.3125 -24.257812 12.3125 -19.59375 C 12.3125 -14.925781 12.722656 -11.15625 13.546875 -8.28125 C 14.367188 -5.40625 15.40625 -3.351562 16.65625 -2.125 C 17.90625 -0.894531 19.257812 -0.28125 20.71875 -0.28125 Z M 20.71875 -0.28125 "/></g></g></g><g fill="#EEEEE8" fill-opacity="1"><g transform="translate(66.471406, 48.799904)"><g><path d="M 1.671875 -37.515625 L -1.125 -38.34375 L -1.125 -39.1875 L 5.59375 -39.1875 C 7.539062 -39.1875 9.128906 -38.75 10.359375 -37.875 C 11.585938 -37 12.519531 -35.851562 13.15625 -34.4375 L 23.0625 -11.875 L 32.1875 -36.671875 L 27.984375 -38.34375 L 27.984375 -39.1875 L 38.34375 -39.1875 L 38.34375 -38.34375 L 33.875 -36.671875 L 20.15625 0.5625 L 18.46875 0.5625 Z M 1.671875 -37.515625 "/></g></g></g><g fill="#EEEEE8" fill-opacity="1"><g transform="translate(126.090632, 48.799904)"><g><path d="M 2.796875 -0.84375 L 6.15625 -1.671875 L 6.15625 -37.515625 L 2.796875 -38.34375 L 2.796875 -39.1875 L 32.75 -39.1875 L 32.75 -29.109375 L 31.078125 -29.109375 C 30.359375 -29.671875 29.738281 -30.378906 29.21875 -31.234375 C 28.03125 -33.253906 27.4375 -35.441406 27.4375 -37.796875 L 15.390625 -37.796875 L 15.390625 -20.15625 L 21.828125 -20.15625 C 22.085938 -21.570312 22.578125 -22.894531 23.296875 -24.125 C 23.585938 -24.6875 23.941406 -25.226562 24.359375 -25.75 L 26.03125 -25.75 L 26.03125 -13.15625 L 24.359375 -13.15625 C 23.941406 -13.675781 23.585938 -14.21875 23.296875 -14.78125 C 22.578125 -16.007812 22.085938 -17.332031 21.828125 -18.75 L 15.390625 -18.75 L 15.390625 -1.40625 L 28.546875 -1.40625 C 28.546875 -3.75 29.144531 -5.929688 30.34375 -7.953125 C 30.863281 -8.804688 31.476562 -9.515625 32.1875 -10.078125 L 33.875 -10.078125 L 33.875 0 L 2.796875 0 Z M 2.796875 -0.84375 "/></g></g></g><g fill="#EEEEE8" fill-opacity="1"><g transform="translate(184.590488, 48.799904)"><g><path d="M 2.796875 -0.84375 L 6.15625 -1.671875 L 6.15625 -37.515625 L 2.796875 -38.34375 L 2.796875 -39.1875 L 17.640625 -39.1875 C 23.984375 -39.1875 28.550781 -38.222656 31.34375 -36.296875 C 34.144531 -34.378906 35.546875 -31.703125 35.546875 -28.265625 C 35.546875 -25.953125 34.929688 -24.078125 33.703125 -22.640625 C 32.472656 -21.203125 30.882812 -20.128906 28.9375 -19.421875 C 26.882812 -18.640625 24.703125 -18.226562 22.390625 -18.1875 L 22.390625 -17.921875 C 23.773438 -17.835938 24.988281 -17.628906 26.03125 -17.296875 C 28.644531 -16.472656 30.414062 -15 31.34375 -12.875 L 36.390625 -1.671875 L 39.1875 -0.84375 L 39.1875 0 L 31.34375 0 C 28.289062 0 26.054688 -1.585938 24.640625 -4.765625 L 19.03125 -17.359375 L 15.390625 -17.359375 L 15.390625 -1.671875 L 19.3125 -0.84375 L 19.3125 0 L 2.796875 0 Z M 17.640625 -18.75 C 20.242188 -18.75 22.289062 -19.570312 23.78125 -21.21875 C 25.28125 -22.863281 26.03125 -25.210938 26.03125 -28.265625 C 26.03125 -31.328125 25.28125 -33.679688 23.78125 -35.328125 C 22.289062 -36.972656 20.242188 -37.796875 17.640625 -37.796875 L 15.390625 -37.796875 L 15.390625 -18.75 Z M 17.640625 -18.75 "/></g></g></g><g fill="#EEEEE8" fill-opacity="1"><g transform="translate(246.168624, 48.799904)"><g><path d="M 2.796875 -0.84375 L 6.15625 -1.671875 L 6.15625 -37.515625 L 2.796875 -38.34375 L 2.796875 -39.1875 L 17.640625 -39.1875 C 23.984375 -39.1875 28.550781 -38.222656 31.34375 -36.296875 C 34.144531 -34.378906 35.546875 -31.703125 35.546875 -28.265625 C 35.546875 -25.953125 34.929688 -24.078125 33.703125 -22.640625 C 32.472656 -21.203125 30.882812 -20.128906 28.9375 -19.421875 C 26.882812 -18.640625 24.703125 -18.226562 22.390625 -18.1875 L 22.390625 -17.921875 C 23.773438 -17.835938 24.988281 -17.628906 26.03125 -17.296875 C 28.644531 -16.472656 30.414062 -15 31.34375 -12.875 L 36.390625 -1.671875 L 39.1875 -0.84375 L 39.1875 0 L 31.34375 0 C 28.289062 0 26.054688 -1.585938 24.640625 -4.765625 L 19.03125 -17.359375 L 15.390625 -17.359375 L 15.390625 -1.671875 L 19.3125 -0.84375 L 19.3125 0 L 2.796875 0 Z M 17.640625 -18.75 C 20.242188 -18.75 22.289062 -19.570312 23.78125 -21.21875 C 25.28125 -22.863281 26.03125 -25.210938 26.03125 -28.265625 C 26.03125 -31.328125 25.28125 -33.679688 23.78125 -35.328125 C 22.289062 -36.972656 20.242188 -37.796875 17.640625 -37.796875 L 15.390625 -37.796875 L 15.390625 -18.75 Z M 17.640625 -18.75 "/></g></g></g><g fill="#EEEEE8" fill-opacity="1"><g transform="translate(307.74676, 48.799904)"><g><path d="M 22.109375 0.84375 C 16.585938 0.84375 12.40625 -0.453125 9.5625 -3.046875 C 6.726562 -5.640625 5.3125 -9.289062 5.3125 -14 L 5.3125 -37.515625 L 1.953125 -38.34375 L 1.953125 -39.1875 L 17.921875 -39.1875 L 17.921875 -38.34375 L 14.5625 -37.515625 L 14.5625 -14 C 14.5625 -9.1875 15.304688 -5.742188 16.796875 -3.671875 C 18.285156 -1.597656 20.429688 -0.5625 23.234375 -0.5625 C 24.953125 -0.5625 26.582031 -1.109375 28.125 -2.203125 C 29.675781 -3.304688 30.925781 -4.875 31.875 -6.90625 C 32.832031 -8.945312 33.3125 -11.3125 33.3125 -14 L 33.3125 -36.671875 L 28.828125 -38.34375 L 28.828125 -39.1875 L 39.46875 -39.1875 L 39.46875 -38.34375 L 34.984375 -36.671875 L 34.984375 -14 C 34.984375 -10.976562 34.421875 -8.347656 33.296875 -6.109375 C 32.179688 -3.867188 30.65625 -2.148438 28.71875 -0.953125 C 26.78125 0.242188 24.578125 0.84375 22.109375 0.84375 Z M 22.109375 0.84375 "/></g></g></g><g fill="#EEEEE8" fill-opacity="1"><g transform="translate(369.884603, 48.799904)"><g><path d="M 7.84375 -29.671875 L 7.84375 -2.515625 L 12.3125 -0.84375 L 12.3125 0 L 1.671875 0 L 1.671875 -0.84375 L 6.15625 -2.515625 L 6.15625 -37.234375 L 2.234375 -38.34375 L 2.234375 -39.1875 L 8.125 -39.1875 C 10.09375 -39.1875 11.632812 -38.832031 12.75 -38.125 C 13.875 -37.414062 14.941406 -36.460938 15.953125 -35.265625 L 33.875 -14.28125 L 33.875 -36.671875 L 29.390625 -38.34375 L 29.390625 -39.1875 L 40.03125 -39.1875 L 40.03125 -38.34375 L 35.546875 -36.671875 L 35.546875 0.84375 L 33.875 0.84375 Z M 7.84375 -29.671875 "/></g></g></g></g></g></svg>