<svg xmlns="http://www.w3.org/2000/svg" xmlns:xlink="http://www.w3.org/1999/xlink" width="1000" zoomAndPan="magnify" viewBox="280 360 1000 600" height="360" preserveAspectRatio="xMidYMid meet" version="1.0"><defs><g/><clipPath id="f9b3ea0cdf"><path d="M 989.636719 328.042969 L 1426 328.042969 L 1426 1057 L 989.636719 1057 Z M 989.636719 328.042969 " clip-rule="nonzero"/></clipPath><clipPath id="4f50534cad"><path d="M 1 1 L 436.359375 1 L 436.359375 728 L 1 728 Z M 1 1 " clip-rule="nonzero"/></clipPath><clipPath id="2d7f61c331"><rect x="0" width="437" y="0" height="729"/></clipPath><clipPath id="8da88a34fd"><rect x="0" width="1006" y="0" height="383"/></clipPath><clipPath id="4aadb0824d"><rect x="0" width="716" y="0" height="161"/></clipPath></defs><g clip-path="url(#f9b3ea0cdf)"><g transform="matrix(1, 0, 0, 1, 989, 328)"><g clip-path="url(#2d7f61c331)"><g clip-path="url(#4f50534cad)"><path fill="#e8640a" d="M 226.605469 570.15625 C 227.734375 570.71875 228.859375 571.566406 229.988281 572.410156 C 234.496094 576.917969 240.695312 579.171875 245.765625 582.554688 C 247.175781 583.398438 248.585938 583.960938 249.992188 584.242188 C 252.246094 584.808594 254.78125 585.652344 257.035156 586.496094 C 269.433594 592.695312 281.269531 589.597656 292.820312 584.808594 C 298.738281 582.273438 302.964844 576.917969 304.371094 570.71875 C 306.0625 563.675781 307.191406 556.632812 307.191406 549.304688 C 307.191406 547.898438 307.472656 546.769531 307.472656 544.796875 C 310.007812 545.359375 312.261719 546.488281 313.953125 548.179688 C 319.304688 553.53125 324.375 558.886719 329.449219 563.957031 C 333.394531 567.902344 337.335938 571.847656 341.28125 575.792969 C 346.070312 580.582031 350.582031 585.371094 355.371094 590.160156 C 358.1875 592.976562 361.285156 595.515625 364.386719 598.050781 C 369.175781 601.996094 374.246094 605.9375 379.601562 609.320312 C 384.390625 612.417969 389.746094 615.238281 395.097656 617.210938 C 404.675781 621.152344 415.667969 619.746094 424.117188 613.828125 C 429.191406 610.730469 432.570312 605.65625 433.980469 600.023438 C 436.234375 591.289062 436.796875 582.273438 435.390625 573.253906 C 435.390625 572.691406 435.390625 571.847656 435.390625 571.28125 C 435.390625 564.519531 434.542969 557.757812 433.136719 551.277344 C 431.726562 541.136719 430.035156 530.992188 428.0625 520.847656 C 426.65625 512.394531 424.683594 504.226562 422.992188 495.773438 C 421.582031 488.445312 419.046875 481.402344 417.355469 474.359375 C 415.101562 465.625 411.441406 457.453125 410.03125 448.4375 C 409.46875 445.902344 408.621094 443.367188 407.496094 440.828125 C 402.707031 427.585938 395.660156 415.472656 386.925781 404.484375 C 385.519531 402.792969 384.390625 401.382812 383.546875 399.410156 C 382.417969 398.003906 382.699219 396.3125 383.828125 395.183594 C 384.109375 394.902344 384.109375 394.902344 384.390625 394.902344 C 391.71875 391.238281 396.226562 384.476562 401.296875 378.5625 C 403.550781 375.460938 405.523438 372.082031 406.648438 368.417969 C 408.339844 364.191406 409.46875 359.964844 410.59375 355.457031 C 412.566406 348.132812 413.695312 340.523438 413.976562 332.917969 C 413.695312 328.972656 413.128906 324.746094 412.003906 321.082031 C 411.441406 318.265625 410.3125 315.449219 409.46875 312.628906 C 407.496094 306.996094 404.960938 301.359375 401.578125 296.289062 C 397.914062 289.808594 393.6875 283.609375 388.898438 277.972656 C 383.828125 271.492188 378.472656 265.011719 373.121094 258.8125 C 368.050781 252.898438 362.414062 247.542969 356.496094 242.191406 C 351.988281 237.964844 347.480469 234.300781 342.691406 230.355469 C 337.335938 225.847656 331.984375 221.621094 326.347656 217.113281 C 324.941406 215.988281 323.53125 214.859375 322.121094 213.734375 C 314.515625 207.535156 307.472656 201.054688 299.863281 195.417969 C 293.664062 190.628906 287.464844 185.839844 280.984375 181.332031 C 277.886719 179.359375 276.195312 175.695312 277.324219 172.03125 C 279.015625 163.582031 280.703125 154.847656 282.113281 146.113281 C 282.957031 140.476562 283.242188 134.558594 283.523438 128.640625 C 283.523438 127.234375 283.804688 126.105469 284.085938 124.699219 C 285.210938 119.625 285.777344 114.554688 286.058594 109.484375 C 286.339844 105.820312 286.058594 101.875 285.210938 98.210938 C 283.804688 92.015625 281.832031 85.535156 279.578125 79.617188 C 276.476562 71.445312 271.96875 64.121094 266.054688 57.921875 C 261.828125 53.695312 257.035156 50.03125 251.683594 46.933594 C 245.765625 43.269531 239.003906 42.425781 232.804688 40.453125 C 227.453125 39.042969 221.816406 39.324219 216.746094 41.296875 C 215.335938 41.859375 213.644531 42.144531 211.957031 42.707031 C 210.265625 38.761719 208.574219 35.382812 206.882812 31.71875 C 204.347656 26.363281 201.25 21.292969 197.585938 16.785156 C 192.234375 10.585938 185.753906 5.796875 178.144531 2.695312 C 173.074219 0.726562 167.4375 0.441406 162.085938 2.132812 C 151.660156 4.667969 142.363281 9.742188 134.753906 17.347656 C 134.191406 17.910156 133.628906 18.195312 133.34375 18.757812 C 128.554688 24.109375 124.046875 29.464844 119.539062 35.097656 C 115.03125 40.734375 110.523438 47.214844 106.015625 53.132812 C 104.042969 55.667969 102.070312 57.921875 100.097656 60.738281 C 97.28125 59.613281 94.746094 57.921875 92.492188 55.949219 C 86.855469 51.722656 81.503906 47.496094 76.148438 43.269531 C 73.050781 41.015625 69.949219 38.761719 66.570312 37.070312 C 60.371094 33.972656 52.761719 35.097656 47.972656 39.890625 C 47.410156 40.453125 46.847656 41.296875 46.5625 42.144531 C 44.875 46.652344 43.183594 50.878906 41.773438 55.386719 C 41.210938 57.359375 40.648438 59.332031 40.367188 61.300781 C 39.238281 69.753906 37.828125 78.207031 36.703125 86.660156 C 36.703125 86.941406 36.703125 87.222656 36.703125 87.222656 C 38.394531 93.703125 35.011719 100.183594 36.703125 106.382812 C 36.140625 110.046875 36.140625 113.992188 36.984375 117.652344 C 36.984375 118.78125 36.984375 119.90625 37.265625 121.035156 C 39.238281 125.261719 38.394531 129.769531 38.394531 134.277344 C 38.675781 143.855469 37.828125 153.4375 37.828125 163.015625 C 38.113281 166.679688 36.984375 170.34375 34.730469 173.160156 C 33.320312 174.851562 32.476562 177.105469 32.476562 179.359375 C 32.195312 182.457031 31.632812 185.558594 31.066406 188.65625 C 30.503906 191.191406 30.503906 194.011719 31.347656 196.546875 C 34.167969 204.433594 35.574219 212.886719 38.675781 221.058594 C 42.621094 230.921875 46 240.78125 49.945312 250.644531 C 51.074219 254.589844 51.355469 258.53125 50.789062 262.757812 C 50.789062 265.859375 49.945312 268.957031 49.664062 272.058594 C 49.382812 274.027344 49.101562 276 49.101562 277.972656 C 48.820312 283.328125 47.972656 288.679688 46.5625 293.753906 C 46.28125 295.160156 45.71875 296.289062 44.59375 297.132812 C 41.773438 300.234375 40.648438 304.742188 36.984375 307.277344 C 36.703125 307.277344 36.703125 307.558594 36.703125 307.839844 C 33.320312 315.730469 26.277344 321.363281 21.207031 328.125 C 20.078125 329.253906 18.953125 330.097656 17.261719 330.664062 C 10.78125 333.480469 5.992188 338.832031 3.171875 345.3125 C 1.203125 350.949219 0.636719 356.867188 1.484375 362.5 C 2.046875 368.136719 2.328125 373.769531 4.863281 378.84375 C 6.273438 389.550781 10.78125 399.128906 13.597656 409.273438 C 13.878906 410.679688 13.878906 412.371094 14.445312 413.78125 C 15.289062 418.289062 16.417969 422.515625 18.105469 426.742188 C 19.515625 430.121094 20.359375 433.503906 20.644531 437.167969 C 21.769531 444.210938 25.152344 450.972656 24.304688 458.296875 C 24.304688 459.425781 24.585938 460.550781 25.152344 461.398438 C 26.839844 465.90625 28.53125 470.695312 29.660156 475.484375 C 31.632812 482.8125 34.167969 490.136719 36.984375 497.179688 C 38.675781 501.40625 40.367188 505.351562 42.339844 509.578125 C 44.875 514.085938 47.691406 518.3125 51.074219 522.257812 C 53.328125 524.792969 55.015625 527.609375 57.269531 530.148438 L 60.933594 534.65625 C 62.0625 535.78125 63.1875 536.910156 64.035156 538.316406 C 66.851562 543.105469 68.824219 548.460938 69.386719 554.097656 C 69.667969 556.351562 69.949219 558.605469 70.796875 560.578125 C 73.332031 568.746094 76.996094 576.355469 80.9375 583.679688 C 82.628906 586.214844 83.476562 589.316406 83.476562 592.695312 C 83.191406 595.234375 84.882812 598.050781 83.757812 600.585938 C 83.476562 601.429688 83.757812 602.558594 84.320312 603.121094 C 86.574219 606.785156 86.011719 611.011719 86.292969 614.957031 C 86.855469 620.308594 87.699219 625.664062 88.828125 631.015625 C 89.671875 635.523438 90.519531 640.3125 91.925781 644.820312 C 93.335938 649.046875 94.464844 653.554688 95.027344 657.78125 C 95.027344 658.347656 95.308594 658.628906 95.308594 659.191406 C 97 662.007812 98.691406 664.828125 99.816406 667.925781 C 100.097656 671.023438 100.660156 674.125 101.507812 677.222656 C 103.199219 681.167969 104.605469 685.113281 106.296875 689.058594 C 106.859375 690.183594 107.425781 691.03125 107.707031 692.15625 C 108.269531 694.691406 109.394531 697.230469 110.523438 699.765625 C 115.59375 706.527344 118.976562 714.699219 125.457031 720.613281 C 130.527344 725.402344 136.445312 728.785156 143.488281 727.09375 C 146.871094 725.96875 150.25 724.558594 153.351562 722.867188 C 155.324219 721.742188 157.296875 720.613281 158.984375 719.488281 C 159.550781 719.207031 160.113281 718.925781 160.675781 718.359375 C 168.285156 711.316406 175.609375 704.273438 180.960938 694.972656 C 185.472656 687.929688 189.414062 680.605469 193.078125 673.277344 C 195.613281 667.082031 198.429688 660.882812 200.6875 654.402344 C 203.503906 647.074219 205.476562 639.46875 208.292969 632.144531 C 212.800781 619.746094 216.183594 606.785156 218.71875 593.824219 C 220.410156 586.496094 223.507812 579.734375 224.070312 572.410156 C 224.636719 571.847656 225.761719 571.28125 226.605469 570.15625 Z M 285.496094 456.324219 C 289.15625 452.664062 292.820312 449.28125 296.765625 446.183594 C 303.808594 441.109375 310.851562 436.039062 318.460938 431.53125 C 329.167969 424.769531 340.4375 418.570312 351.988281 412.933594 C 357.0625 410.679688 361.851562 407.863281 366.921875 405.609375 C 369.738281 404.199219 371.992188 404.484375 373.402344 407.019531 C 377.066406 413.78125 382.417969 419.132812 386.082031 425.894531 C 388.054688 430.6875 390.871094 434.914062 394.253906 438.855469 C 395.660156 440.828125 396.507812 442.800781 396.789062 445.054688 C 398.199219 450.691406 399.886719 456.324219 402.140625 461.679688 C 404.113281 465.34375 405.242188 469.285156 405.804688 473.230469 C 406.367188 476.613281 407.496094 480.273438 408.902344 483.375 C 409.46875 484.5 410.03125 485.910156 410.03125 487.039062 C 410.03125 490.136719 410.59375 493.234375 411.722656 496.335938 C 412.847656 498.871094 413.414062 501.40625 413.695312 504.226562 C 413.695312 510.421875 417.355469 516.339844 416.230469 522.820312 C 416.230469 523.382812 416.230469 524.230469 416.792969 524.792969 C 418.765625 529.019531 419.609375 533.808594 419.609375 538.597656 C 419.609375 540.007812 419.894531 541.417969 420.457031 542.542969 C 422.710938 549.304688 424.117188 556.351562 424.402344 563.675781 C 424.964844 572.128906 424.964844 580.582031 425.808594 589.035156 C 426.089844 592.976562 424.683594 596.640625 422.148438 599.457031 C 420.457031 601.996094 417.921875 603.683594 415.101562 603.96875 C 413.695312 604.25 412.003906 604.8125 410.59375 605.375 C 409.46875 605.65625 408.058594 605.65625 406.648438 605.65625 C 399.605469 603.683594 392.5625 600.585938 386.644531 596.640625 C 377.628906 590.441406 368.894531 583.679688 361.003906 576.074219 C 351.707031 566.773438 341.847656 557.757812 332.828125 548.179688 C 327.757812 542.824219 322.121094 538.035156 317.050781 532.683594 C 315.640625 531.554688 314.234375 530.429688 312.824219 529.300781 C 308.035156 525.636719 303.808594 521.410156 302.679688 514.929688 C 300.144531 500.5625 294.511719 487.039062 290.847656 472.949219 C 289.15625 467.03125 287.464844 462.242188 285.496094 456.324219 Z M 141.796875 713.289062 C 139.824219 712.726562 138.136719 711.878906 136.726562 711.035156 C 134.472656 709.0625 132.5 707.089844 130.808594 704.835938 C 124.328125 696.101562 119.257812 686.523438 115.875 676.378906 C 111.367188 664.542969 107.707031 652.710938 104.042969 640.59375 C 102.914062 636.652344 102.070312 632.707031 101.507812 628.761719 C 100.945312 625.378906 100.097656 622.28125 99.253906 618.898438 C 98.972656 617.773438 98.6875 616.644531 98.6875 615.519531 C 97.84375 609.039062 97.5625 602.558594 96.433594 596.078125 C 95.871094 593.261719 97 591.851562 99.816406 591.570312 C 102.070312 591.289062 104.324219 591.007812 106.296875 590.441406 C 116.160156 587.625 125.738281 583.398438 134.472656 578.046875 C 142.644531 572.691406 149.96875 566.210938 155.886719 558.605469 C 160.113281 553.25 164.058594 547.898438 167.4375 541.980469 C 168.566406 540.289062 169.972656 538.882812 171.664062 538.035156 C 175.328125 535.78125 178.988281 533.527344 182.652344 531.554688 C 184.34375 530.429688 186.597656 530.710938 187.726562 532.402344 C 187.726562 532.402344 187.726562 532.683594 188.007812 532.683594 C 189.132812 534.65625 190.542969 536.34375 191.949219 538.035156 C 197.867188 544.234375 204.066406 550.152344 210.265625 556.066406 C 216.183594 561.703125 216.183594 561.421875 214.210938 569.3125 C 213.929688 570.71875 213.363281 572.410156 212.800781 573.820312 C 211.957031 575.507812 211.675781 577.199219 211.675781 578.890625 C 211.675781 580.015625 211.390625 581.144531 210.828125 581.988281 C 208.574219 586.496094 207.730469 591.289062 207.730469 596.078125 C 207.449219 597.203125 207.164062 598.332031 206.882812 599.175781 C 206.039062 601.148438 205.476562 602.839844 204.910156 604.8125 C 204.066406 609.039062 202.941406 613.265625 201.53125 617.210938 C 199.839844 621.4375 199.277344 625.945312 198.148438 630.171875 C 197.023438 633.832031 195.613281 637.496094 194.207031 640.878906 C 195.613281 645.667969 190.542969 647.640625 189.695312 651.582031 C 189.414062 652.710938 189.132812 653.839844 188.851562 654.683594 C 188.007812 658.347656 186.597656 662.007812 184.90625 665.390625 C 182.652344 669.617188 180.398438 673.5625 178.144531 677.789062 C 172.511719 689.058594 166.59375 695.820312 156.730469 705.964844 C 152.503906 711.316406 147.152344 711.316406 141.796875 713.289062 Z M 275.351562 193.726562 C 279.296875 196.546875 283.523438 197.953125 286.902344 201.054688 C 291.128906 205.28125 295.917969 208.941406 300.992188 212.324219 C 306.90625 216.550781 312.542969 220.777344 317.898438 225.566406 C 320.714844 227.820312 323.25 230.355469 325.785156 232.609375 C 330.574219 237.117188 336.210938 240.21875 341 244.726562 C 344.664062 248.109375 348.328125 252.050781 352.269531 255.152344 C 356.214844 258.25 358.75 262.757812 362.695312 265.292969 C 364.386719 266.421875 365.230469 268.957031 366.921875 270.367188 C 370.585938 273.464844 373.683594 276.847656 376.21875 280.792969 C 377.066406 282.480469 377.910156 283.890625 379.039062 285.300781 C 384.109375 290.652344 388.335938 296.570312 391.71875 302.769531 C 393.125 305.304688 395.097656 307.558594 396.226562 310.09375 C 400.167969 319.109375 404.394531 328.125 401.859375 338.550781 C 401.015625 342.496094 401.296875 346.722656 399.605469 350.667969 C 399.324219 351.511719 399.042969 352.359375 399.324219 353.203125 C 399.605469 355.457031 399.042969 357.710938 397.632812 359.683594 C 394.253906 365.882812 391.71875 372.925781 385.238281 376.871094 C 384.671875 377.152344 384.109375 377.714844 383.828125 378.28125 C 382.417969 381.378906 379.320312 381.941406 377.066406 383.351562 C 374.8125 384.757812 372.839844 384.476562 370.867188 381.660156 C 370.304688 380.816406 370.023438 380.25 369.457031 379.40625 C 363.542969 369.542969 357.625 359.964844 351.425781 350.105469 C 348.609375 345.59375 345.226562 341.085938 342.128906 336.859375 C 339.027344 332.632812 335.929688 328.691406 332.265625 324.746094 C 326.066406 317.703125 320.152344 310.9375 313.953125 304.175781 C 309.445312 299.105469 304.652344 294.597656 299.582031 289.527344 C 299.582031 287.273438 299.582031 285.019531 299.582031 282.761719 C 299.300781 276.847656 300.425781 270.929688 298.738281 265.292969 C 297.046875 259.097656 295.074219 252.898438 292.539062 246.699219 C 289.15625 237.964844 284.367188 230.074219 278.167969 223.3125 C 275.914062 221.058594 273.660156 218.523438 271.125 215.988281 C 270.84375 208.941406 273.941406 201.617188 275.351562 193.726562 Z M 106.578125 81.871094 C 110.242188 83.5625 114.46875 84.40625 115.875 88.914062 C 115.875 89.195312 116.160156 89.195312 116.441406 89.476562 C 119.820312 90.042969 122.640625 92.296875 123.765625 95.675781 C 123.765625 95.957031 124.328125 96.242188 124.894531 96.523438 C 128.554688 98.777344 132.21875 101.03125 135.601562 103.566406 C 138.980469 106.101562 142.363281 108.917969 145.742188 111.171875 C 150.53125 114.554688 150.816406 115.398438 147.433594 120.191406 C 144.898438 124.132812 142.078125 127.796875 139.824219 132.023438 C 138.417969 133.714844 137.570312 135.96875 136.726562 137.941406 C 134.753906 143.574219 131.9375 148.929688 128.554688 154 C 124.894531 160.480469 121.792969 167.242188 119.820312 174.289062 C 119.539062 176.542969 117.566406 178.230469 115.03125 178.511719 C 109.679688 179.078125 104.324219 179.921875 98.972656 181.050781 C 98.125 181.050781 97.28125 181.332031 96.433594 181.613281 C 94.746094 182.457031 93.617188 184.429688 93.617188 186.402344 C 93.898438 188.65625 95.589844 190.066406 97.84375 189.785156 C 99.535156 189.785156 101.507812 189.503906 103.199219 189.21875 C 105.167969 188.9375 107.140625 188.375 109.113281 188.09375 C 111.085938 187.8125 112.496094 189.785156 111.367188 191.191406 C 108.550781 194.855469 107.988281 199.363281 104.886719 202.746094 C 104.042969 203.589844 103.761719 204.71875 103.480469 205.84375 C 103.199219 207.816406 102.070312 209.789062 100.660156 211.480469 C 100.097656 211.761719 99.816406 211.761719 99.816406 212.042969 C 99.253906 212.324219 98.40625 212.324219 97.84375 212.324219 C 93.335938 211.480469 89.953125 214.859375 85.730469 215.707031 C 82.066406 219.367188 76.992188 219.648438 71.921875 221.621094 C 70.796875 219.933594 69.949219 218.242188 69.105469 216.269531 C 65.722656 207.816406 62.34375 199.644531 59.242188 191.191406 C 57.269531 186.121094 55.300781 181.050781 53.328125 176.257812 C 52.480469 174.285156 52.761719 172.316406 53.890625 170.625 C 58.117188 163.582031 62.0625 156.816406 66.289062 149.773438 C 69.667969 144.140625 72.769531 138.503906 75.304688 132.304688 C 76.148438 130.613281 77.277344 128.640625 78.402344 126.953125 C 80.65625 123.851562 82.628906 120.753906 84.320312 117.089844 C 86.292969 110.890625 91.082031 106.664062 93.898438 101.03125 C 96.433594 96.242188 99.253906 91.730469 102.351562 87.222656 C 102.632812 84.125 104.324219 82.433594 106.578125 81.871094 Z M 121.792969 432.09375 C 123.203125 434.628906 124.046875 436.601562 125.457031 438.855469 C 127.429688 441.394531 129.121094 444.492188 130.527344 447.589844 C 131.9375 453.789062 136.164062 458.296875 138.417969 463.652344 C 140.390625 467.878906 142.925781 471.824219 145.742188 475.765625 C 149.125 480.839844 152.785156 485.628906 156.449219 490.417969 C 158.140625 492.671875 158.984375 496.054688 161.238281 497.460938 C 165.464844 500.28125 166.3125 505.351562 169.691406 508.734375 C 170.820312 510.140625 171.101562 512.394531 169.972656 513.804688 C 168.847656 515.496094 168 517.1875 167.15625 519.15625 C 165.464844 525.355469 160.957031 528.175781 155.605469 530.710938 C 151.097656 532.964844 146.304688 534.9375 141.515625 536.625 C 134.753906 538.597656 127.710938 540.289062 120.667969 541.136719 C 117.285156 541.980469 113.621094 541.980469 110.242188 540.570312 C 108.832031 540.007812 107.140625 539.726562 105.453125 539.726562 C 102.632812 539.445312 99.535156 539.445312 96.71875 538.597656 C 91.644531 537.472656 90.519531 535.5 90.238281 531.273438 C 89.953125 527.890625 89.671875 524.511719 89.390625 521.128906 C 89.109375 518.875 88.828125 516.621094 88.828125 514.367188 C 87.984375 506.195312 87.699219 498.308594 86.011719 490.136719 C 85.164062 485.066406 84.601562 479.992188 84.039062 474.921875 C 83.757812 471.539062 84.882812 468.160156 87.417969 465.625 C 89.390625 463.652344 91.644531 461.679688 93.898438 459.988281 C 95.589844 458.863281 97.28125 457.734375 98.6875 456.324219 C 103.761719 450.410156 109.960938 445.335938 114.1875 438.574219 C 115.3125 436.039062 118.128906 433.222656 121.792969 432.09375 Z M 297.890625 307.558594 C 298.738281 307.839844 300.144531 307.839844 300.710938 308.402344 C 302.679688 310.375 304.371094 312.910156 306.625 314.882812 C 310.570312 318.265625 313.953125 322.210938 316.769531 326.4375 C 318.460938 328.410156 320.152344 330.664062 321.558594 332.632812 C 322.6875 334.042969 323.8125 335.453125 324.941406 336.859375 C 326.347656 339.113281 328.320312 341.085938 330.574219 342.496094 C 332.546875 343.625 334.238281 345.3125 334.519531 347.566406 C 334.800781 348.414062 335.082031 349.257812 335.929688 349.820312 C 341 356.300781 345.507812 363.347656 349.734375 370.390625 C 350.296875 371.800781 351.144531 373.207031 352.269531 374.335938 C 356.214844 377.996094 357.34375 383.070312 360.160156 387.296875 C 361.851562 389.832031 361.003906 391.804688 358.1875 393.210938 C 349.453125 397.71875 341 402.792969 331.984375 406.738281 C 322.6875 410.964844 313.953125 416.035156 306.0625 422.234375 C 299.300781 427.023438 292.539062 431.8125 286.339844 437.167969 C 284.929688 438.292969 283.523438 439.703125 281.550781 438.855469 C 279.578125 438.011719 280.421875 436.039062 280.140625 434.628906 C 279.578125 432.375 278.449219 429.839844 277.886719 427.585938 C 277.042969 424.769531 276.761719 421.953125 275.632812 419.132812 C 274.789062 416.316406 275.070312 413.21875 276.476562 410.679688 C 279.296875 405.046875 281.832031 398.847656 283.804688 392.648438 C 284.648438 388.140625 285.777344 383.351562 287.183594 378.84375 C 288.03125 376.589844 288.59375 374.054688 288.875 371.515625 C 290.285156 363.910156 291.691406 356.019531 293.101562 348.414062 C 293.945312 344.1875 294.792969 339.960938 295.355469 336.015625 C 295.917969 327.28125 296.765625 317.703125 297.890625 307.558594 Z M 180.117188 496.335938 C 177.863281 496.335938 175.609375 494.925781 174.480469 492.953125 C 171.382812 489.011719 168.285156 484.785156 165.464844 480.558594 C 163.492188 477.738281 161.519531 474.640625 159.550781 471.539062 C 154.195312 463.371094 148.558594 455.199219 143.488281 446.464844 C 139.261719 439.421875 135.882812 431.8125 131.65625 424.488281 C 128.554688 419.980469 129.121094 414.0625 132.78125 410.117188 C 134.191406 408.425781 135.316406 406.453125 136.164062 404.484375 C 138.417969 398.566406 141.234375 392.929688 144.617188 387.859375 C 147.433594 383.632812 149.6875 378.84375 151.378906 374.054688 C 151.660156 373.207031 152.503906 372.363281 153.070312 372.363281 C 153.632812 372.363281 155.605469 372.644531 155.886719 373.488281 C 157.296875 376.308594 159.265625 378.84375 161.804688 380.535156 C 162.085938 380.816406 162.085938 380.816406 162.085938 381.097656 C 164.902344 387.859375 171.664062 391.804688 175.046875 398.285156 C 175.328125 398.566406 175.609375 399.128906 175.890625 399.128906 C 178.144531 400.539062 179.835938 402.792969 180.960938 405.046875 C 181.527344 406.171875 182.089844 407.019531 183.214844 407.582031 C 184.625 408.425781 185.46875 409.835938 185.753906 411.246094 C 186.035156 412.371094 186.597656 413.21875 187.441406 414.0625 C 192.515625 420.542969 197.585938 427.304688 202.941406 433.503906 C 205.476562 436.039062 206.039062 440.265625 204.347656 443.367188 C 202.375 447.308594 199.558594 450.410156 199.558594 454.917969 C 199.558594 455.199219 199.277344 455.199219 199.277344 455.480469 C 194.488281 461.679688 191.105469 469.003906 189.132812 476.332031 C 189.132812 476.894531 188.851562 477.738281 188.289062 478.304688 C 184.625 483.65625 181.808594 489.855469 180.117188 496.335938 Z M 217.308594 406.171875 C 214.773438 405.890625 212.519531 404.484375 210.828125 402.511719 C 205.195312 397.15625 199.558594 391.523438 193.921875 385.886719 C 190.824219 383.351562 188.007812 380.535156 185.1875 377.433594 C 179.835938 369.828125 172.792969 363.910156 166.3125 357.148438 C 159.832031 350.386719 160.394531 353.484375 163.492188 343.90625 C 163.773438 343.058594 164.058594 342.214844 164.621094 341.371094 C 166.59375 336.859375 168.566406 332.351562 170.253906 327.5625 C 171.664062 323.617188 172.511719 319.390625 173.917969 315.164062 C 176.453125 308.683594 178.425781 301.921875 180.117188 295.160156 C 180.960938 291.214844 183.214844 287.554688 183.5 283.609375 C 183.5 282.761719 185.46875 281.917969 186.316406 282.480469 C 187.160156 283.046875 188.289062 283.609375 189.132812 284.453125 C 193.640625 287.273438 197.023438 291.5 201.8125 294.035156 C 207.730469 297.132812 210.546875 303.050781 215.335938 306.996094 C 215.617188 306.996094 215.617188 307.277344 215.617188 307.558594 C 216.183594 312.347656 219 316.574219 218.71875 321.929688 C 218.4375 325.871094 219 330.097656 219.84375 333.761719 C 220.691406 337.144531 222.378906 340.523438 220.972656 344.1875 C 220.691406 345.03125 221.253906 346.441406 221.535156 347.566406 C 222.378906 350.949219 222.945312 354.613281 223.507812 358.273438 C 224.070312 364.191406 224.351562 369.828125 224.351562 375.742188 C 224.351562 380.25 224.070312 384.757812 222.945312 388.984375 C 221.535156 393.496094 220.691406 398.003906 219.28125 402.511719 C 218.71875 403.636719 218.15625 404.765625 217.308594 406.171875 Z M 272.535156 133.714844 C 272.25 138.785156 269.714844 143.574219 272.535156 148.367188 C 269.996094 152.59375 267.179688 156.535156 269.152344 161.609375 C 269.433594 162.453125 269.152344 163.296875 268.589844 164.144531 C 267.460938 166.117188 266.054688 167.808594 264.644531 169.496094 C 263.800781 168.933594 262.953125 168.652344 261.828125 168.089844 C 256.472656 164.425781 251.402344 160.480469 246.046875 156.816406 C 241.257812 153.4375 236.46875 150.335938 231.398438 146.957031 C 228.578125 145.265625 226.890625 141.886719 227.171875 138.503906 C 227.453125 127.796875 226.890625 117.089844 225.199219 106.382812 C 225.199219 105.820312 225.199219 104.976562 225.199219 104.410156 C 225.761719 100.183594 225.480469 95.957031 224.351562 91.730469 C 224.070312 90.324219 224.070312 88.914062 223.789062 87.789062 C 223.226562 81.308594 222.097656 74.828125 220.125 68.628906 C 218.71875 65.246094 217.589844 61.585938 217.308594 57.640625 L 220.410156 55.949219 C 224.351562 53.976562 228.296875 52.566406 232.523438 54.539062 C 233.933594 54.820312 235.625 55.105469 237.03125 55.386719 C 241.257812 56.511719 246.046875 56.792969 249.710938 59.332031 C 256.753906 63.839844 262.671875 70.035156 266.335938 77.644531 C 268.027344 81.027344 269.433594 84.6875 271.125 88.070312 C 274.789062 96.804688 274.507812 96.804688 274.222656 105.820312 C 273.941406 108.636719 273.941406 111.738281 274.222656 114.554688 C 275.070312 117.9375 274.789062 121.316406 273.941406 124.417969 C 273.378906 126.671875 273.378906 128.925781 274.507812 130.898438 C 274.789062 131.179688 274.507812 131.742188 274.222656 132.304688 Z M 112.496094 70.035156 C 114.1875 68.347656 115.875 66.375 117.285156 64.121094 C 120.949219 57.921875 125.175781 52.285156 129.964844 46.652344 C 135.597656 39.324219 141.796875 32.5625 148.558594 26.363281 C 154.195312 21.292969 161.238281 17.910156 168.847656 16.222656 C 174.765625 15.09375 180.960938 16.785156 185.753906 20.730469 C 189.414062 23.265625 192.515625 26.644531 194.769531 30.589844 C 196.742188 34.253906 198.148438 38.480469 200.402344 42.144531 C 202.65625 45.804688 202.09375 47.777344 198.429688 50.878906 C 196.175781 52.566406 194.203125 54.257812 192.515625 56.230469 C 186.878906 63.554688 181.527344 70.882812 176.171875 78.488281 C 170.820312 86.097656 166.875 93.703125 161.519531 100.75 C 160.957031 101.3125 160.394531 102.15625 159.550781 102.722656 C 158.703125 102.722656 157.578125 102.4375 156.730469 102.15625 C 143.488281 94.269531 131.089844 84.6875 118.695312 75.671875 C 116.441406 73.980469 114.46875 72.007812 112.496094 70.035156 Z M 49.945312 317.136719 C 49.945312 319.390625 50.226562 320.800781 50.226562 322.210938 C 50.226562 326.152344 50.507812 330.378906 51.074219 334.324219 C 51.636719 336.578125 51.917969 339.113281 51.636719 341.652344 C 51.636719 343.90625 51.917969 346.160156 52.199219 348.414062 C 52.480469 349.539062 52.761719 350.667969 53.042969 351.792969 C 53.328125 359.121094 54.171875 366.445312 55.582031 373.769531 C 56.144531 377.996094 56.144531 382.222656 56.144531 386.449219 C 56.144531 387.578125 55.863281 388.703125 55.582031 389.550781 C 52.199219 396.59375 49.382812 403.917969 47.128906 411.527344 C 45.71875 416.597656 44.59375 421.953125 44.308594 427.304688 C 43.464844 436.039062 44.027344 444.773438 45.4375 453.507812 C 46.847656 461.117188 49.664062 468.160156 53.890625 474.640625 C 55.582031 478.019531 59.523438 479.710938 63.1875 478.585938 C 64.878906 478.304688 66.289062 477.738281 67.695312 477.738281 C 69.105469 477.738281 70.230469 478.585938 70.515625 479.992188 C 70.796875 482.8125 70.515625 485.910156 70.230469 488.726562 C 69.105469 495.773438 66.851562 502.535156 67.132812 510.140625 C 66.851562 512.113281 66.570312 514.085938 66.570312 516.058594 C 66.570312 516.621094 66.003906 517.1875 65.441406 517.46875 C 64.878906 517.75 64.316406 517.1875 63.75 516.902344 C 63.46875 516.621094 63.1875 516.339844 62.90625 516.058594 C 55.296875 506.761719 49.382812 495.773438 45.71875 484.21875 C 44.308594 479.429688 43.464844 474.640625 41.773438 469.851562 C 38.675781 460.550781 36.421875 451.253906 35.011719 441.675781 C 33.601562 435.195312 32.195312 428.996094 30.503906 422.796875 C 28.25 415.191406 25.714844 407.863281 23.460938 400.257812 C 20.644531 390.113281 16.132812 380.535156 15.289062 369.828125 C 15.289062 369.261719 15.007812 368.417969 14.726562 367.855469 C 12.753906 363.910156 13.597656 359.964844 13.597656 356.019531 C 13.316406 353.765625 14.445312 351.511719 16.417969 350.386719 C 21.207031 348.132812 24.585938 344.1875 28.53125 340.804688 C 34.167969 336.015625 40.082031 331.507812 43.746094 324.746094 C 44.308594 321.082031 46.847656 318.546875 49.945312 317.136719 Z M 215.335938 246.136719 C 212.238281 246.699219 209.421875 245.851562 206.601562 244.445312 C 187.160156 237.402344 168.566406 228.101562 149.125 221.339844 C 141.234375 218.523438 133.34375 216.550781 125.457031 214.015625 C 122.074219 212.886719 118.414062 212.886719 115.03125 210.632812 L 127.148438 187.246094 C 128.273438 186.964844 129.402344 186.683594 130.527344 186.402344 C 134.191406 186.402344 138.136719 186.121094 141.796875 186.402344 C 150.816406 186.683594 159.550781 185.277344 168.566406 186.964844 C 175.890625 188.375 183.214844 188.9375 190.542969 190.347656 C 196.460938 191.472656 202.375 193.164062 208.292969 194.292969 C 217.308594 196.265625 215.054688 195.136719 217.027344 204.433594 C 217.027344 205.5625 217.027344 206.6875 217.027344 207.816406 C 217.308594 216.550781 215.902344 225.285156 217.027344 234.019531 C 217.308594 237.964844 216.746094 242.191406 215.335938 246.136719 Z M 276.476562 575.226562 C 272.535156 575.507812 268.589844 574.945312 264.644531 574.101562 C 257.320312 571.847656 250.273438 568.746094 243.792969 564.800781 C 239.851562 562.546875 236.46875 559.730469 232.804688 557.195312 C 231.117188 556.351562 230.550781 554.378906 231.117188 552.40625 C 231.398438 551.277344 231.679688 550.152344 231.960938 549.023438 C 233.652344 544.515625 234.777344 540.007812 235.625 535.5 C 238.441406 523.382812 240.132812 511.269531 240.695312 498.871094 C 240.976562 497.179688 241.539062 495.492188 242.667969 494.082031 C 243.792969 492.671875 244.921875 491.265625 246.046875 490.136719 C 248.300781 487.882812 249.992188 487.882812 252.246094 490.136719 C 255.347656 492.953125 258.445312 495.773438 261.546875 498.871094 C 262.109375 499.433594 262.953125 500 263.515625 500.84375 C 269.152344 508.453125 276.195312 515.496094 283.804688 521.128906 C 290.285156 526.484375 295.917969 532.117188 294.792969 541.417969 C 294.792969 541.980469 294.792969 542.824219 295.074219 543.390625 C 297.046875 548.179688 295.636719 553.25 295.636719 558.039062 C 295.636719 562.832031 294.230469 567.621094 289.722656 570.15625 C 287.464844 571.566406 286.621094 574.664062 283.523438 574.945312 C 280.421875 575.226562 277.886719 575.226562 276.476562 575.226562 Z M 133.910156 175.695312 C 133.910156 174.570312 133.910156 173.441406 134.191406 172.316406 C 134.753906 170.90625 135.597656 169.496094 136.164062 168.089844 C 140.109375 157.945312 145.179688 148.082031 151.097656 139.066406 C 154.195312 134.839844 156.730469 130.613281 159.832031 126.386719 C 163.210938 121.597656 164.621094 121.316406 169.972656 124.132812 C 171.382812 124.980469 172.792969 125.824219 174.199219 126.105469 C 178.144531 126.671875 180.679688 129.488281 183.78125 131.742188 C 184.90625 132.585938 185.753906 133.714844 186.878906 134.277344 C 193.921875 136.8125 199.277344 141.886719 206.039062 145.265625 C 208.574219 146.675781 210.828125 148.367188 213.082031 150.335938 C 214.773438 151.464844 215.617188 153.4375 215.898438 155.410156 C 216.746094 160.761719 215.335938 166.117188 218.15625 171.1875 L 217.027344 184.710938 C 213.082031 184.710938 209.136719 184.429688 205.476562 183.585938 C 197.585938 181.050781 189.414062 179.359375 181.246094 178.796875 C 175.328125 178.511719 169.691406 177.667969 163.773438 177.386719 C 158.140625 176.824219 152.503906 176.542969 147.152344 176.824219 C 142.363281 176.542969 138.136719 176.257812 133.910156 175.695312 Z M 260.699219 281.917969 L 275.351562 287.273438 C 277.605469 288.117188 279.578125 289.808594 280.984375 291.78125 C 281.832031 293.1875 282.957031 294.316406 284.367188 295.160156 C 286.339844 296.289062 287.464844 298.824219 286.902344 301.078125 C 286.621094 303.050781 286.621094 305.023438 286.339844 306.996094 C 285.777344 310.9375 285.210938 314.882812 284.929688 319.109375 C 284.929688 322.773438 284.648438 326.152344 283.804688 329.816406 C 283.242188 333.761719 282.675781 337.707031 282.675781 341.933594 C 282.675781 343.625 282.675781 345.03125 282.394531 346.441406 C 279.578125 354.046875 279.296875 362.21875 276.195312 369.828125 C 275.914062 370.671875 275.914062 371.515625 275.914062 372.363281 C 276.476562 379.96875 273.660156 386.167969 269.714844 392.367188 C 269.152344 393.496094 268.027344 393.777344 266.898438 393.496094 C 265.207031 390.394531 263.800781 387.015625 262.953125 383.632812 C 260.980469 376.308594 258.726562 368.980469 255.910156 361.9375 C 253.65625 356.019531 251.964844 350.105469 249.429688 344.1875 C 247.738281 340.523438 247.738281 336.578125 249.429688 333.199219 C 249.992188 331.789062 250.273438 330.097656 250.554688 328.691406 C 252.527344 318.546875 254.21875 308.402344 256.191406 298.261719 C 256.753906 295.441406 257.320312 292.625 258.164062 289.808594 C 258.726562 286.988281 259.574219 285.019531 260.699219 281.917969 Z M 66.289062 290.089844 C 67.132812 290.652344 67.695312 290.933594 67.976562 291.5 C 69.667969 294.597656 71.359375 297.980469 72.769531 301.078125 C 76.148438 310.09375 79.25 319.109375 82.628906 328.410156 C 83.757812 331.226562 84.882812 334.324219 86.011719 337.144531 C 87.136719 339.960938 88.546875 343.90625 89.671875 347.285156 C 90.238281 348.414062 90.519531 349.257812 90.800781 350.386719 C 91.644531 356.019531 93.617188 361.09375 97 365.601562 C 96.71875 368.417969 96.433594 371.234375 96.152344 373.769531 C 96.152344 378.5625 95.027344 383.070312 93.054688 387.296875 C 92.492188 388.421875 91.925781 389.832031 91.644531 390.957031 C 89.671875 397.71875 87.417969 404.765625 85.730469 411.527344 C 84.601562 413.78125 84.320312 416.316406 85.164062 418.851562 C 85.445312 419.699219 85.164062 420.542969 84.601562 421.386719 C 81.785156 426.460938 80.375 431.8125 80.09375 437.449219 C 80.09375 438.574219 80.09375 440.265625 78.121094 440.828125 C 77.839844 440.265625 76.992188 439.421875 76.992188 438.855469 C 76.429688 430.40625 73.332031 422.234375 72.484375 413.78125 C 71.921875 406.738281 70.796875 399.976562 69.386719 393.210938 C 68.542969 389.269531 69.667969 385.042969 72.769531 382.222656 C 75.867188 378.84375 78.683594 374.898438 80.9375 370.671875 C 83.191406 367.007812 85.164062 363.347656 87.136719 359.402344 C 88.546875 356.585938 87.984375 352.921875 85.164062 350.949219 C 82.347656 350.105469 79.25 351.511719 77.558594 354.046875 C 76.429688 355.738281 75.304688 357.429688 74.175781 359.121094 C 72.203125 362.5 69.105469 365.035156 65.722656 367.007812 C 65.160156 365.882812 64.878906 364.753906 64.597656 363.347656 C 64.316406 359.402344 64.035156 355.175781 63.46875 351.230469 C 62.90625 344.1875 61.777344 337.425781 61.496094 330.378906 C 60.933594 319.957031 60.933594 309.8125 60.652344 299.386719 C 60.933594 295.722656 62.90625 292.0625 66.289062 290.089844 Z M 53.042969 140.195312 C 52.480469 139.066406 51.917969 137.660156 51.636719 136.25 C 51.074219 128.359375 49.945312 120.753906 49.664062 112.863281 C 49.382812 107.230469 49.664062 101.59375 49.945312 95.957031 C 50.226562 91.167969 50.789062 86.660156 51.355469 81.871094 C 51.917969 72.855469 53.890625 64.121094 56.707031 55.386719 C 58.398438 51.160156 59.242188 49.1875 65.160156 50.878906 C 66.570312 51.160156 67.695312 51.722656 68.824219 52.566406 C 75.304688 56.230469 81.21875 60.738281 86.574219 65.8125 C 88.828125 67.78125 90.800781 69.753906 92.210938 72.289062 C 91.925781 74.261719 91.644531 76.234375 91.082031 78.207031 C 90.238281 79.898438 89.390625 81.308594 88.265625 82.714844 L 82.628906 90.886719 C 80.375 93.703125 78.402344 96.804688 76.710938 99.902344 C 73.613281 106.664062 69.667969 113.425781 65.160156 119.625 C 64.316406 120.472656 63.75 121.597656 63.46875 122.726562 C 62.34375 128.640625 57.554688 132.585938 55.296875 138.222656 C 55.582031 138.785156 54.453125 139.066406 53.042969 140.195312 Z M 121.230469 298.824219 C 119.820312 297.976562 118.695312 297.695312 118.128906 297.132812 C 115.59375 293.753906 113.058594 290.371094 110.804688 286.707031 C 104.324219 276.285156 97.5625 265.859375 91.082031 255.433594 C 90.519531 254.304688 89.953125 253.179688 89.390625 252.050781 C 91.363281 246.417969 95.871094 243.035156 98.6875 238.527344 C 99.535156 237.117188 101.507812 236.835938 102.914062 237.683594 C 104.886719 238.527344 106.859375 239.65625 109.113281 240.5 C 112.214844 241.34375 115.59375 242.472656 118.695312 243.882812 C 124.328125 246.980469 130.246094 249.515625 136.445312 251.769531 C 139.824219 252.898438 143.207031 254.589844 143.207031 259.097656 C 140.953125 262.757812 138.699219 266.421875 136.726562 269.804688 C 135.882812 270.929688 135.601562 272.058594 135.316406 273.464844 C 135.035156 276 133.910156 278.253906 131.9375 279.945312 C 130.246094 281.355469 129.121094 283.328125 128.554688 285.582031 C 126.582031 290.371094 124.328125 294.878906 121.230469 298.824219 Z M 151.660156 339.679688 C 149.6875 337.988281 147.714844 336.296875 146.023438 334.605469 C 141.515625 329.816406 137.570312 324.746094 133.0625 319.957031 C 132.21875 318.828125 131.375 317.984375 130.527344 316.855469 C 128.273438 314.039062 128.273438 310.375 130.246094 307.277344 C 131.089844 305.867188 131.9375 304.742188 132.78125 303.332031 C 137.855469 292.90625 143.488281 282.761719 149.96875 272.902344 C 151.097656 270.929688 152.503906 269.238281 153.914062 267.546875 C 155.324219 265.578125 158.140625 265.011719 160.113281 266.421875 C 160.113281 266.421875 160.394531 266.703125 160.394531 266.703125 C 162.648438 268.113281 164.902344 269.519531 167.15625 270.929688 C 170.253906 272.058594 171.664062 275.4375 171.101562 278.539062 C 170.253906 283.609375 169.410156 288.679688 168.847656 293.753906 C 168.566406 295.722656 167.71875 297.695312 167.15625 299.386719 C 166.03125 303.050781 163.210938 306.429688 163.210938 310.65625 C 162.929688 312.066406 162.367188 313.195312 161.804688 314.320312 C 160.957031 316.574219 159.832031 318.828125 158.984375 321.082031 C 157.859375 324.464844 157.011719 327.84375 155.886719 331.226562 C 155.039062 333.761719 153.351562 336.296875 151.660156 339.679688 Z M 214.773438 134.839844 C 213.363281 134.277344 212.519531 133.714844 211.390625 133.152344 C 205.195312 129.488281 198.996094 125.261719 192.515625 121.878906 C 186.597656 118.78125 180.398438 116.246094 174.765625 112.582031 C 173.917969 112.019531 173.074219 111.171875 172.226562 110.328125 C 173.636719 108.074219 174.480469 106.101562 175.890625 104.410156 C 181.527344 95.957031 187.441406 87.222656 193.078125 78.769531 C 194.488281 76.234375 196.175781 73.980469 197.867188 71.726562 C 200.402344 68.910156 202.375 65.527344 206.039062 64.121094 C 206.601562 64.683594 207.449219 64.964844 207.730469 65.527344 C 209.136719 69.191406 210.265625 73.136719 210.828125 77.082031 C 210.828125 79.335938 211.109375 81.589844 211.957031 83.5625 C 212.238281 84.40625 212.519531 85.25 212.519531 86.097656 C 212.800781 88.351562 213.082031 90.605469 213.082031 92.859375 C 213.363281 97.367188 213.929688 101.59375 213.929688 106.101562 C 213.929688 115.117188 213.082031 124.132812 215.335938 132.867188 C 215.335938 132.867188 215.054688 133.433594 214.773438 134.839844 Z M 215.617188 449.28125 C 216.464844 449.5625 217.308594 449.84375 217.589844 450.410156 C 221.253906 454.636719 224.917969 458.863281 228.296875 463.371094 C 229.144531 464.496094 229.707031 466.1875 229.707031 467.597656 C 229.707031 473.230469 229.707031 478.867188 229.707031 484.5 C 229.707031 486.753906 228.578125 489.011719 226.605469 490.136719 C 219.84375 494.644531 213.929688 500 207.164062 504.226562 C 202.375 507.324219 197.023438 509.015625 192.234375 511.832031 C 190.824219 512.675781 188.851562 512.113281 188.007812 510.707031 C 186.597656 509.296875 186.316406 507.324219 187.160156 505.632812 C 188.289062 502.535156 189.414062 499.714844 191.105469 497.179688 C 195.894531 490.417969 198.429688 482.8125 202.375 475.765625 C 206.882812 467.597656 210.546875 458.863281 214.492188 450.410156 C 214.773438 450.128906 215.054688 449.84375 215.617188 449.28125 Z M 122.074219 399.410156 C 121.230469 398.003906 120.382812 396.59375 119.539062 394.902344 C 117.566406 390.675781 115.875 386.167969 113.902344 381.941406 C 112.496094 378.5625 111.648438 375.179688 110.523438 371.800781 C 109.679688 369.261719 109.679688 366.445312 110.804688 363.910156 C 113.621094 355.175781 116.441406 346.441406 119.257812 337.707031 C 119.539062 335.453125 120.949219 333.199219 122.640625 331.507812 C 123.484375 332.070312 124.894531 332.351562 125.175781 332.917969 C 128.554688 337.988281 133.0625 342.214844 135.882812 347.566406 C 138.136719 351.792969 140.953125 355.457031 143.769531 359.683594 C 143.488281 360.527344 143.488281 361.09375 143.207031 361.9375 C 139.824219 368.980469 136.726562 376.308594 133.0625 383.351562 C 131.089844 387.296875 129.121094 391.238281 126.863281 394.902344 C 125.738281 396.59375 124.894531 399.128906 122.074219 399.410156 Z M 230.269531 202.746094 C 234.214844 205 238.160156 205.28125 241.539062 207.535156 C 244.921875 209.789062 248.867188 212.042969 252.527344 214.296875 C 253.9375 215.421875 255.347656 216.550781 256.753906 217.675781 C 258.164062 218.804688 259.007812 220.777344 258.445312 222.46875 C 256.753906 230.074219 257.320312 237.964844 254.78125 245.570312 C 254.5 246.136719 254.5 246.980469 254.5 247.542969 C 254.78125 250.644531 254.21875 253.742188 253.09375 256.558594 C 251.964844 260.503906 250.273438 261.351562 246.894531 259.941406 C 242.105469 257.96875 237.3125 256.277344 232.523438 254.304688 C 231.398438 253.742188 229.988281 252.898438 228.859375 252.332031 C 228.015625 237.117188 229.425781 221.902344 229.707031 206.6875 C 229.425781 205.28125 229.988281 203.871094 230.269531 202.746094 Z M 228.859375 161.609375 C 231.398438 161.890625 233.933594 163.015625 235.625 164.988281 C 237.03125 166.398438 238.722656 167.523438 240.414062 168.652344 C 247.175781 171.75 252.246094 177.386719 259.007812 180.765625 C 261.546875 181.894531 262.953125 184.710938 262.390625 187.53125 C 262.390625 190.347656 262.390625 192.882812 261.828125 195.417969 C 261.546875 198.800781 260.699219 202.460938 259.574219 205.84375 C 255.066406 205.28125 252.8125 201.898438 249.429688 200.207031 C 246.046875 198.519531 242.667969 196.546875 239.285156 194.855469 C 235.339844 193.726562 231.960938 191.757812 228.859375 188.9375 Z M 243.792969 360.808594 L 245.484375 365.882812 C 246.894531 369.828125 247.738281 374.054688 249.429688 377.996094 C 252.527344 383.914062 254.78125 390.113281 255.910156 396.59375 C 255.910156 397.4375 256.191406 398.285156 256.472656 399.128906 C 257.320312 401.664062 258.164062 404.199219 258.445312 406.738281 C 259.855469 410.398438 258.164062 414.625 254.78125 416.597656 C 250.839844 419.699219 246.046875 421.671875 240.976562 421.953125 C 239.285156 420.824219 238.441406 418.851562 238.722656 416.878906 C 238.160156 407.582031 237.59375 398.566406 236.46875 389.269531 C 235.90625 384.757812 236.1875 380.25 237.3125 376.023438 C 238.722656 371.234375 240.132812 366.445312 241.539062 361.9375 C 242.386719 361.65625 242.949219 361.375 243.792969 360.808594 Z M 92.210938 553.53125 C 93.054688 553.25 93.617188 552.6875 94.179688 552.6875 C 97.28125 553.8125 100.660156 554.378906 104.042969 554.097656 C 108.832031 556.632812 113.621094 555.785156 118.695312 555.503906 C 124.046875 555.785156 129.402344 554.941406 134.472656 553.25 C 137.007812 551.839844 140.109375 551.558594 142.925781 552.40625 C 142.925781 553.25 142.925781 553.8125 142.925781 554.660156 C 142.925781 555.503906 137.289062 561.421875 137.007812 561.421875 C 132.21875 563.675781 128.554688 567.621094 123.484375 568.746094 C 122.074219 569.027344 120.949219 569.875 120.382812 571 C 118.128906 574.664062 114.75 574.945312 111.085938 574.945312 C 109.679688 575.226562 108.550781 575.226562 107.140625 575.507812 C 104.605469 575.792969 102.351562 576.074219 99.816406 576.074219 C 96.152344 576.074219 94.464844 574.664062 93.898438 571 C 93.054688 565.648438 92.773438 559.449219 92.210938 553.53125 Z M 251.121094 466.75 C 250.273438 466.1875 249.429688 465.34375 248.585938 464.496094 C 246.894531 462.523438 245.765625 460.550781 243.792969 458.863281 C 241.820312 456.890625 240.695312 453.789062 240.976562 450.972656 C 240.976562 448.15625 240.695312 445.335938 240.695312 442.238281 C 240.695312 440.828125 240.695312 439.140625 240.695312 437.449219 C 241.820312 437.167969 242.949219 436.601562 244.074219 436.320312 C 247.738281 435.195312 251.402344 434.628906 255.066406 433.503906 C 256.753906 432.941406 258.445312 432.09375 259.855469 431.25 C 261.261719 430.40625 262.671875 428.148438 264.082031 428.148438 C 266.898438 428.148438 265.488281 431.25 266.898438 432.660156 C 269.996094 436.320312 269.714844 441.109375 270.84375 445.335938 C 271.6875 448.15625 270.5625 451.535156 267.742188 452.945312 C 266.335938 454.070312 264.925781 455.199219 263.800781 456.324219 C 259.855469 460.269531 255.628906 463.652344 251.121094 466.75 Z M 79.25 284.453125 C 84.039062 288.960938 88.828125 293.753906 92.773438 299.105469 C 93.617188 300.234375 94.179688 301.640625 95.027344 302.488281 C 100.945312 306.714844 104.324219 313.195312 110.242188 317.417969 C 111.933594 318.828125 112.496094 321.363281 111.648438 323.617188 C 110.523438 326.71875 109.679688 330.097656 108.832031 333.199219 C 108.832031 334.324219 108.269531 335.453125 107.988281 336.296875 C 106.296875 338.832031 105.167969 341.933594 104.605469 345.03125 C 104.324219 346.160156 104.324219 347.847656 102.070312 347.847656 C 95.027344 331.507812 89.671875 314.039062 82.347656 297.695312 C 80.9375 294.316406 79.8125 290.933594 78.683594 287.554688 C 78.683594 286.988281 78.402344 286.707031 78.402344 286.144531 C 78.402344 285.863281 78.402344 285.582031 78.683594 285.582031 C 78.964844 285.019531 78.964844 285.019531 79.25 284.453125 Z M 228.015625 269.519531 C 229.425781 269.238281 229.988281 268.957031 230.269531 269.238281 C 234.777344 270.648438 239.285156 271.773438 243.792969 273.464844 C 246.613281 274.875 248.300781 277.972656 247.738281 281.355469 C 247.457031 283.046875 247.175781 284.734375 246.894531 286.425781 C 246.046875 290.933594 244.640625 295.441406 244.074219 300.234375 C 243.230469 305.867188 240.695312 310.9375 241.820312 316.855469 C 242.105469 318.265625 240.976562 319.957031 239.566406 319.957031 C 239.566406 319.957031 239.285156 319.957031 239.285156 319.957031 C 238.722656 319.675781 238.441406 319.675781 238.160156 319.390625 C 235.339844 314.882812 232.523438 310.375 229.707031 305.585938 C 228.296875 303.332031 227.734375 300.515625 227.734375 297.695312 C 227.734375 290.652344 227.453125 283.328125 227.453125 276.285156 C 227.734375 274.027344 228.015625 271.773438 228.015625 269.519531 Z M 269.714844 231.484375 C 274.789062 235.148438 277.042969 239.9375 279.578125 244.726562 C 280.984375 247.542969 282.394531 250.363281 283.523438 253.179688 C 284.085938 254.871094 283.804688 256.84375 284.367188 258.25 C 287.183594 264.167969 287.183594 270.367188 287.75 276.566406 C 287.75 277.410156 287.464844 278.253906 287.183594 278.820312 C 284.648438 279.382812 281.832031 278.539062 280.140625 276.566406 C 276.476562 273.746094 272.535156 271.492188 268.308594 270.085938 C 263.234375 267.832031 262.953125 267.546875 263.234375 262.195312 C 263.234375 261.632812 263.234375 260.785156 263.515625 260.222656 C 264.082031 256.277344 264.644531 252.332031 265.488281 248.390625 C 266.335938 244.445312 268.308594 240.5 267.742188 235.992188 C 267.742188 234.582031 268.871094 233.175781 269.714844 231.484375 Z M 214.210938 286.425781 C 211.390625 285.300781 208.574219 283.328125 206.601562 281.074219 C 205.476562 279.945312 204.347656 279.101562 202.941406 278.253906 C 197.867188 275.71875 193.921875 271.773438 189.132812 269.238281 C 186.878906 267.832031 185.1875 265.578125 184.625 262.757812 C 183.78125 259.378906 183.214844 255.714844 182.652344 252.332031 C 182.652344 251.769531 183.5 250.925781 184.34375 250.644531 C 185.1875 250.363281 185.753906 250.925781 186.316406 251.207031 C 191.105469 253.460938 195.894531 255.714844 200.96875 257.96875 C 202.65625 258.8125 204.628906 259.660156 206.601562 259.941406 C 209.136719 260.503906 211.675781 261.351562 214.210938 262.757812 C 215.617188 263.324219 216.464844 265.011719 216.464844 266.703125 C 216.464844 272.339844 216.464844 277.972656 216.183594 283.328125 C 215.335938 284.171875 214.773438 285.300781 214.210938 286.425781 Z M 91.082031 447.027344 L 89.671875 446.746094 C 89.671875 443.363281 90.238281 440.265625 90.800781 436.886719 C 92.773438 430.121094 93.898438 423.359375 95.871094 416.878906 C 98.40625 408.992188 99.253906 400.539062 102.914062 393.210938 C 103.480469 392.367188 104.042969 391.523438 104.605469 390.957031 C 107.988281 396.3125 107.707031 402.230469 111.648438 406.453125 C 111.933594 406.738281 111.933594 407.863281 111.933594 408.425781 C 111.933594 410.117188 112.496094 412.089844 112.777344 413.78125 C 114.1875 417.160156 112.496094 419.980469 110.804688 422.515625 C 108.550781 426.179688 105.734375 429.839844 102.914062 433.222656 C 99.253906 437.730469 95.027344 442.519531 91.082031 447.027344 Z M 228.296875 507.605469 C 228.859375 510.988281 228.578125 514.367188 227.453125 517.75 C 226.605469 519.441406 226.324219 521.410156 226.042969 523.667969 C 226.042969 525.355469 225.761719 527.328125 225.199219 528.738281 C 224.351562 532.117188 223.226562 535.5 222.378906 539.164062 C 222.097656 541.417969 220.972656 543.671875 219 545.363281 C 215.054688 542.824219 211.390625 539.445312 208.292969 535.78125 C 204.628906 532.402344 201.53125 528.738281 198.996094 524.511719 C 204.066406 521.695312 208.574219 518.59375 213.363281 516.339844 C 218.15625 514.085938 221.816406 508.734375 228.296875 507.605469 Z M 287.464844 504.789062 C 286.339844 504.507812 285.210938 503.941406 284.085938 503.097656 C 279.578125 498.871094 275.632812 494.363281 271.125 490.417969 C 268.027344 487.320312 264.925781 483.9375 262.390625 480.273438 C 260.980469 478.867188 260.699219 476.613281 262.109375 475.203125 C 262.390625 474.921875 262.671875 474.640625 262.953125 474.640625 C 264.925781 472.667969 267.179688 470.695312 269.433594 468.722656 C 271.125 467.597656 272.816406 466.46875 274.789062 465.625 C 276.476562 464.777344 279.015625 466.1875 278.730469 468.160156 C 278.167969 472.105469 280.140625 475.203125 280.984375 478.585938 C 281.269531 479.148438 281.550781 479.710938 281.550781 480.558594 C 283.523438 487.320312 285.496094 493.800781 287.183594 500.5625 C 287.183594 501.6875 287.183594 503.097656 287.464844 504.789062 Z M 59.242188 412.933594 L 60.371094 412.933594 C 60.652344 414.625 60.933594 416.316406 61.214844 418.007812 C 62.625 422.796875 63.46875 427.585938 63.75 432.660156 C 64.035156 434.347656 64.316406 436.039062 64.878906 437.730469 C 65.160156 439.140625 66.003906 440.828125 66.003906 442.238281 C 66.851562 447.589844 67.414062 452.945312 68.257812 458.296875 C 68.257812 459.144531 68.257812 460.269531 67.976562 461.117188 C 67.132812 461.398438 66.289062 461.960938 65.441406 462.242188 C 62.34375 463.089844 61.214844 462.804688 60.371094 459.707031 C 58.960938 454.917969 57.554688 450.128906 56.425781 445.335938 C 55.015625 436.320312 55.296875 427.023438 57.269531 418.007812 C 57.554688 416.316406 58.398438 414.625 59.242188 412.933594 Z M 58.679688 237.964844 C 57.554688 236.835938 56.707031 235.710938 56.144531 234.582031 C 53.890625 228.667969 51.636719 222.75 49.664062 217.113281 C 47.691406 210.632812 45.71875 204.152344 44.027344 197.953125 C 43.464844 195.136719 44.027344 192.039062 45.71875 189.785156 C 47.691406 191.757812 49.101562 194.011719 49.945312 196.546875 C 50.789062 199.925781 51.917969 203.308594 53.328125 206.6875 C 54.453125 210.632812 55.863281 214.296875 58.117188 217.675781 C 60.371094 221.058594 60.371094 225.003906 62.0625 228.101562 C 62.625 229.511719 62.34375 231.203125 61.777344 232.609375 C 60.933594 234.300781 59.808594 236.273438 58.679688 237.964844 Z M 114.1875 226.695312 C 117.003906 226.695312 119.820312 226.695312 122.355469 226.695312 C 123.203125 226.695312 124.046875 226.695312 124.894531 227.257812 C 127.429688 228.667969 130.246094 229.511719 133.0625 229.792969 C 135.316406 230.074219 137.289062 230.921875 139.261719 231.765625 C 143.769531 234.019531 148.558594 235.992188 153.632812 237.402344 C 155.886719 237.683594 158.140625 239.089844 158.984375 241.34375 L 153.351562 245.851562 L 119.820312 229.792969 C 118.128906 228.949219 116.160156 227.820312 114.1875 226.695312 Z M 229.425781 442.519531 C 227.453125 440.546875 226.605469 439.703125 225.761719 438.855469 C 224.351562 437.449219 223.226562 435.757812 222.097656 434.066406 C 221.253906 432.660156 221.816406 430.96875 223.226562 430.121094 C 223.226562 430.121094 223.507812 429.839844 223.789062 429.839844 C 228.015625 432.660156 230.269531 437.449219 229.425781 442.519531 Z M 85.164062 271.210938 C 85.445312 270.367188 85.445312 269.519531 86.011719 269.238281 C 86.574219 268.957031 87.136719 269.519531 87.699219 269.519531 C 87.699219 270.085938 87.699219 270.929688 87.136719 271.210938 C 86.574219 271.492188 86.011719 271.492188 85.164062 271.210938 Z M 76.710938 280.792969 L 76.710938 280.226562 L 77.277344 280.507812 Z M 233.371094 341.367188 C 233.652344 341.085938 233.933594 340.804688 234.214844 340.804688 C 234.214844 340.804688 234.496094 341.085938 234.496094 341.085938 C 234.496094 341.367188 234.214844 341.652344 233.933594 341.933594 Z M 233.371094 341.367188 " fill-opacity="1" fill-rule="nonzero"/></g></g></g></g><g transform="matrix(1, 0, 0, 1, 227, 426)"><g clip-path="url(#8da88a34fd)"><g fill="#EEEEE8" fill-opacity="1"><g transform="translate(7.606815, 299.936552)"><g><path d="M 190.625 -79.171875 C 190.625 -79.671875 190.375 -80.421875 189.875 -81.421875 C 188.625 -85.171875 187.117188 -88.046875 185.359375 -90.046875 C 183.609375 -92.054688 180.734375 -93.3125 176.734375 -93.8125 L 174.109375 -93.8125 C 173.859375 -94.0625 173.484375 -94.1875 172.984375 -94.1875 C 168.234375 -94.1875 164.414062 -92.054688 161.53125 -87.796875 C 158.65625 -83.546875 156.34375 -77.976562 154.59375 -71.09375 C 152.84375 -64.21875 151.15625 -56.898438 149.53125 -49.140625 C 147.90625 -41.390625 145.84375 -33.953125 143.34375 -26.828125 C 140.84375 -19.703125 137.460938 -13.757812 133.203125 -9 C 128.953125 -4.25 123.328125 -1.5 116.328125 -0.75 C 109.566406 0 102.5625 0.375 95.3125 0.375 C 92.8125 0.375 90.242188 0.25 87.609375 0 C 84.984375 -0.25 82.421875 -0.875 79.921875 -1.875 C 74.671875 -3.875 70.414062 -7.8125 67.15625 -13.6875 C 63.90625 -19.570312 61.28125 -25.953125 59.28125 -32.828125 C 57.28125 -39.710938 55.53125 -45.53125 54.03125 -50.28125 C 49.28125 -65.539062 44.273438 -80.863281 39.015625 -96.25 C 33.765625 -111.632812 28.265625 -126.832031 22.515625 -141.84375 C 20.015625 -148.84375 16.757812 -155.96875 12.75 -163.21875 C 8.75 -170.476562 5.4375 -177.859375 2.8125 -185.359375 C 0.1875 -192.867188 -0.625 -200.5 0.375 -208.25 C 0.875 -213.757812 3.125 -216.515625 7.125 -216.515625 C 11.132812 -216.515625 15.890625 -216.640625 21.390625 -216.890625 C 26.390625 -217.140625 31.328125 -217.140625 36.203125 -216.890625 C 41.085938 -216.640625 45.90625 -215.765625 50.65625 -214.265625 C 51.90625 -214.015625 53.84375 -212.195312 56.46875 -208.8125 C 59.09375 -205.4375 61.160156 -201.625 62.671875 -197.375 C 64.171875 -193.375 65.609375 -189.492188 66.984375 -185.734375 C 68.359375 -181.984375 69.671875 -178.109375 70.921875 -174.109375 C 74.421875 -164.097656 78.171875 -153.835938 82.171875 -143.328125 C 86.179688 -132.828125 90.8125 -122.445312 96.0625 -112.1875 C 98.3125 -108.6875 101.1875 -106.9375 104.6875 -106.9375 C 104.9375 -106.9375 105.125 -106.9375 105.25 -106.9375 C 105.375 -106.9375 105.5625 -106.9375 105.8125 -106.9375 C 110.0625 -107.4375 112.816406 -109.691406 114.078125 -113.703125 C 115.578125 -117.953125 117.078125 -122.265625 118.578125 -126.640625 C 120.078125 -131.015625 121.578125 -135.332031 123.078125 -139.59375 C 126.578125 -149.84375 130.140625 -160.28125 133.765625 -170.90625 C 137.398438 -181.539062 140.84375 -192.238281 144.09375 -203 C 145.59375 -208.25 147.53125 -211.6875 149.90625 -213.3125 C 152.28125 -214.945312 156.597656 -215.765625 162.859375 -215.765625 L 164.734375 -215.765625 C 172.734375 -215.765625 179.671875 -215.515625 185.546875 -215.015625 C 191.429688 -214.515625 196.4375 -212.632812 200.5625 -209.375 C 204.6875 -206.125 208.125 -200.125 210.875 -191.375 C 215.132812 -178.613281 219.453125 -165.914062 223.828125 -153.28125 C 228.203125 -140.644531 232.390625 -127.953125 236.390625 -115.203125 C 237.398438 -112.691406 239.28125 -109.875 242.03125 -106.75 C 244.78125 -103.625 247.78125 -102.5625 251.03125 -103.5625 C 253.28125 -104.0625 255.15625 -105.75 256.65625 -108.625 C 258.15625 -111.507812 259.46875 -114.578125 260.59375 -117.828125 C 261.71875 -121.078125 262.660156 -123.578125 263.421875 -125.328125 C 267.921875 -135.835938 272.109375 -146.46875 275.984375 -157.21875 C 279.859375 -167.976562 283.546875 -178.738281 287.046875 -189.5 C 290.054688 -198.25 293.5 -205.0625 297.375 -209.9375 C 301.25 -214.820312 308.191406 -217.265625 318.203125 -217.265625 C 320.953125 -217.265625 324.703125 -217.328125 329.453125 -217.453125 C 334.203125 -217.578125 338.765625 -217.265625 343.140625 -216.515625 C 347.523438 -215.765625 350.21875 -214.007812 351.21875 -211.25 C 352.21875 -208.75 351.96875 -204.875 350.46875 -199.625 C 348.96875 -194.375 347.15625 -189.179688 345.03125 -184.046875 C 342.90625 -178.921875 341.34375 -174.984375 340.34375 -172.234375 C 334.082031 -152.722656 327.070312 -133.457031 319.3125 -114.4375 C 311.5625 -95.425781 304.5625 -76.039062 298.3125 -56.28125 C 297.0625 -51.78125 295.75 -45.773438 294.375 -38.265625 C 293 -30.765625 291.117188 -23.632812 288.734375 -16.875 C 286.359375 -10.125 282.796875 -5.5 278.046875 -3 C 276.546875 -2.25 274.984375 -1.75 273.359375 -1.5 C 271.734375 -1.25 270.046875 -1 268.296875 -0.75 C 260.785156 0 253.210938 0.3125 245.578125 0.1875 C 237.953125 0.0625 231.015625 -1.5 224.765625 -4.5 C 218.515625 -7.5 213.507812 -13.003906 209.75 -21.015625 C 205.75 -30.515625 202.4375 -40.207031 199.8125 -50.09375 C 197.1875 -59.976562 194.125 -69.671875 190.625 -79.171875 Z M 190.625 -79.171875 "/></g></g></g><g fill="#EEEEE8" fill-opacity="1"><g transform="translate(363.3314, 299.936552)"><g><path d="M 14.265625 -236.390625 C 8.753906 -239.898438 4.75 -244.84375 2.25 -251.21875 C -0.246094 -257.59375 -0.371094 -264.535156 1.875 -272.046875 C 6.125 -286.804688 16.128906 -294.4375 31.890625 -294.9375 L 32.640625 -294.9375 C 40.398438 -294.9375 46.90625 -292.867188 52.15625 -288.734375 C 57.40625 -284.609375 60.910156 -278.921875 62.671875 -271.671875 C 64.921875 -262.660156 64.039062 -254.398438 60.03125 -246.890625 C 56.03125 -239.390625 49.28125 -234.515625 39.78125 -232.265625 C 35.019531 -231.265625 30.453125 -231.140625 26.078125 -231.890625 C 21.703125 -232.640625 17.765625 -234.140625 14.265625 -236.390625 Z M 9 -198.875 C 12.507812 -201.125 17.515625 -202.125 24.015625 -201.875 C 27.765625 -201.875 31.890625 -202 36.390625 -202.25 C 40.898438 -202.5 45.09375 -202.0625 48.96875 -200.9375 C 52.84375 -199.8125 55.40625 -197.25 56.65625 -193.25 C 58.90625 -186.988281 59.65625 -179.414062 58.90625 -170.53125 C 58.15625 -161.65625 57.78125 -153.96875 57.78125 -147.46875 C 58.03125 -132.207031 58.15625 -117.070312 58.15625 -102.0625 C 58.15625 -87.050781 58.28125 -71.914062 58.53125 -56.65625 C 58.53125 -54.15625 58.84375 -49.960938 59.46875 -44.078125 C 60.09375 -38.203125 60.46875 -31.890625 60.59375 -25.140625 C 60.71875 -18.390625 60.03125 -12.632812 58.53125 -7.875 C 57.03125 -3.125 54.03125 -0.625 49.53125 -0.375 C 43.78125 -0.125 37.773438 0.0625 31.515625 0.1875 C 25.265625 0.3125 19.265625 0 13.515625 -0.75 C 9.503906 -1.25 6.75 -3.4375 5.25 -7.3125 C 3.75 -11.195312 2.9375 -15.890625 2.8125 -21.390625 C 2.6875 -26.890625 2.875 -32.140625 3.375 -37.140625 C 3.875 -42.148438 4.125 -46.03125 4.125 -48.78125 C 3.875 -59.039062 3.6875 -69.359375 3.5625 -79.734375 C 3.4375 -90.117188 3.375 -100.4375 3.375 -110.6875 C 3.125 -119.445312 3 -128.203125 3 -136.953125 C 3 -145.710938 2.875 -154.347656 2.625 -162.859375 C 2.625 -170.109375 2.5 -177.109375 2.25 -183.859375 C 2 -190.617188 4.25 -195.625 9 -198.875 Z M 9 -198.875 "/></g></g></g><g fill="#EEEEE8" fill-opacity="1"><g transform="translate(431.24891, 299.936552)"><g><path d="M 55.90625 -5.25 C 54.15625 -3 51.65625 -1.75 48.40625 -1.5 C 45.15625 -1.25 41.78125 -0.875 38.28125 -0.375 C 35.019531 -0.125 31.203125 0.125 26.828125 0.375 C 22.453125 0.625 18.320312 0.183594 14.4375 -0.9375 C 10.5625 -2.0625 7.625 -4.375 5.625 -7.875 C 2.625 -13.382812 0.875 -19.453125 0.375 -26.078125 C -0.121094 -32.703125 0 -39.453125 0.75 -46.328125 C 1.5 -53.210938 1.875 -59.660156 1.875 -65.671875 C 2.125 -77.421875 2.3125 -89.113281 2.4375 -100.75 C 2.5625 -112.382812 2.75 -124.078125 3 -135.828125 C 3.25 -159.097656 3.3125 -182.425781 3.1875 -205.8125 C 3.0625 -229.207031 2.75 -252.535156 2.25 -275.796875 C 2.25 -282.296875 3.625 -286.984375 6.375 -289.859375 C 9.125 -292.742188 12.75 -294.4375 17.25 -294.9375 C 21.757812 -295.4375 26.640625 -295.3125 31.890625 -294.5625 C 37.148438 -293.8125 42.15625 -293.1875 46.90625 -292.6875 C 52.15625 -292.1875 55.59375 -289.367188 57.21875 -284.234375 C 58.84375 -279.109375 59.59375 -273.601562 59.46875 -267.71875 C 59.34375 -261.84375 59.15625 -257.15625 58.90625 -253.65625 C 58.40625 -242.144531 58.09375 -230.507812 57.96875 -218.75 C 57.84375 -207 57.78125 -195.242188 57.78125 -183.484375 C 57.78125 -154.972656 57.78125 -126.457031 57.78125 -97.9375 C 57.78125 -69.414062 57.78125 -40.894531 57.78125 -12.375 C 57.78125 -9.375 57.15625 -7 55.90625 -5.25 Z M 55.90625 -5.25 "/></g></g></g><g fill="#EEEEE8" fill-opacity="1"><g transform="translate(494.663671, 299.936552)"><g><path d="M 15.390625 -51.78125 C 7.378906 -66.289062 2.5625 -81.050781 0.9375 -96.0625 C -0.683594 -111.070312 0.375 -125.515625 4.125 -139.390625 C 7.875 -153.273438 13.5625 -165.722656 21.1875 -176.734375 C 28.820312 -187.742188 37.769531 -196.375 48.03125 -202.625 C 62.039062 -211.132812 77.675781 -215.390625 94.9375 -215.390625 C 98.4375 -215.390625 102.875 -214.632812 108.25 -213.125 C 113.632812 -211.625 119.265625 -210.0625 125.140625 -208.4375 C 131.015625 -206.8125 136.640625 -205.875 142.015625 -205.625 C 147.398438 -205.375 151.96875 -206.375 155.71875 -208.625 C 159.46875 -210.875 161.847656 -215.128906 162.859375 -221.390625 C 164.109375 -230.390625 164.351562 -240.144531 163.59375 -250.65625 C 162.84375 -261.164062 162.21875 -271.046875 161.71875 -280.296875 C 161.46875 -286.554688 162.71875 -290.5625 165.46875 -292.3125 C 168.226562 -294.0625 171.921875 -294.8125 176.546875 -294.5625 C 181.171875 -294.3125 185.863281 -294.0625 190.625 -293.8125 C 195.125 -293.8125 199.375 -294.125 203.375 -294.75 C 207.375 -295.375 210.625 -295.0625 213.125 -293.8125 C 215.632812 -292.5625 216.890625 -288.804688 216.890625 -282.546875 C 216.890625 -259.535156 216.890625 -236.519531 216.890625 -213.5 C 216.890625 -190.488281 216.890625 -167.476562 216.890625 -144.46875 C 216.640625 -123.195312 217.140625 -101.867188 218.390625 -80.484375 C 219.640625 -59.097656 219.265625 -37.773438 217.265625 -16.515625 C 216.765625 -11.003906 215.007812 -7.4375 212 -5.8125 C 209 -4.1875 205.375 -3.6875 201.125 -4.3125 C 196.875 -4.9375 192.492188 -6 187.984375 -7.5 C 183.484375 -9 179.359375 -10 175.609375 -10.5 C 166.347656 -11.75 157.71875 -11.875 149.71875 -10.875 C 141.71875 -9.875 133.335938 -7.625 124.578125 -4.125 C 110.566406 1.121094 96.054688 1.996094 81.046875 -1.5 C 67.285156 -4.5 54.523438 -10.5625 42.765625 -19.6875 C 31.015625 -28.820312 21.890625 -39.519531 15.390625 -51.78125 Z M 110.3125 -171.859375 C 100.8125 -171.859375 91.867188 -168.789062 83.484375 -162.65625 C 75.109375 -156.53125 68.289062 -148.585938 63.03125 -138.828125 C 57.78125 -129.078125 55.15625 -118.695312 55.15625 -107.6875 C 55.15625 -97.1875 57.71875 -87.242188 62.84375 -77.859375 C 67.976562 -68.484375 74.734375 -60.851562 83.109375 -54.96875 C 91.492188 -49.09375 100.4375 -46.03125 109.9375 -45.78125 L 111.4375 -45.78125 C 124.195312 -45.78125 135.207031 -50.40625 144.46875 -59.65625 C 156.21875 -71.914062 162.09375 -88.050781 162.09375 -108.0625 C 162.09375 -126.570312 157.335938 -141.769531 147.828125 -153.65625 C 138.328125 -165.539062 126.070312 -171.609375 111.0625 -171.859375 Z M 110.3125 -171.859375 "/></g></g></g><g fill="#EEEEE8" fill-opacity="1"><g transform="translate(717.55422, 299.936552)"><g><path d="M 55.90625 -5.25 C 54.15625 -3 51.65625 -1.75 48.40625 -1.5 C 45.15625 -1.25 41.78125 -0.875 38.28125 -0.375 C 35.019531 -0.125 31.203125 0.125 26.828125 0.375 C 22.453125 0.625 18.320312 0.183594 14.4375 -0.9375 C 10.5625 -2.0625 7.625 -4.375 5.625 -7.875 C 2.625 -13.382812 0.875 -19.453125 0.375 -26.078125 C -0.121094 -32.703125 0 -39.453125 0.75 -46.328125 C 1.5 -53.210938 1.875 -59.660156 1.875 -65.671875 C 2.125 -77.421875 2.3125 -89.113281 2.4375 -100.75 C 2.5625 -112.382812 2.75 -124.078125 3 -135.828125 C 3.25 -159.097656 3.3125 -182.425781 3.1875 -205.8125 C 3.0625 -229.207031 2.75 -252.535156 2.25 -275.796875 C 2.25 -282.296875 3.625 -286.984375 6.375 -289.859375 C 9.125 -292.742188 12.75 -294.4375 17.25 -294.9375 C 21.757812 -295.4375 26.640625 -295.3125 31.890625 -294.5625 C 37.148438 -293.8125 42.15625 -293.1875 46.90625 -292.6875 C 52.15625 -292.1875 55.59375 -289.367188 57.21875 -284.234375 C 58.84375 -279.109375 59.59375 -273.601562 59.46875 -267.71875 C 59.34375 -261.84375 59.15625 -257.15625 58.90625 -253.65625 C 58.40625 -242.144531 58.09375 -230.507812 57.96875 -218.75 C 57.84375 -207 57.78125 -195.242188 57.78125 -183.484375 C 57.78125 -154.972656 57.78125 -126.457031 57.78125 -97.9375 C 57.78125 -69.414062 57.78125 -40.894531 57.78125 -12.375 C 57.78125 -9.375 57.15625 -7 55.90625 -5.25 Z M 55.90625 -5.25 "/></g></g></g><g fill="#EEEEE8" fill-opacity="1"><g transform="translate(780.968928, 299.936552)"><g><path d="M 57.03125 79.921875 C 50.78125 79.921875 44.523438 79.234375 38.265625 77.859375 C 32.015625 76.484375 26.015625 74.421875 20.265625 71.671875 C 14.503906 68.921875 10.1875 65.351562 7.3125 60.96875 C 4.4375 56.59375 4.75 51.28125 8.25 45.03125 C 11.507812 39.269531 14.453125 34.578125 17.078125 30.953125 C 19.703125 27.328125 22.828125 25.015625 26.453125 24.015625 C 30.078125 23.015625 35.019531 23.890625 41.28125 26.640625 C 46.28125 28.640625 51.40625 28.953125 56.65625 27.578125 C 61.914062 26.203125 66.171875 23.515625 69.421875 19.515625 C 73.421875 15.015625 75.234375 10.632812 74.859375 6.375 C 74.484375 2.125 74.296875 -2.625 74.296875 -7.875 C 74.296875 -13.882812 72.734375 -20.203125 69.609375 -26.828125 C 66.484375 -33.453125 63.914062 -39.519531 61.90625 -45.03125 C 59.40625 -52.03125 56.78125 -59.03125 54.03125 -66.03125 C 51.28125 -73.039062 48.53125 -80.046875 45.78125 -87.046875 C 40.269531 -101.554688 34.828125 -116.003906 29.453125 -130.390625 C 24.078125 -144.773438 18.640625 -159.222656 13.140625 -173.734375 C 11.378906 -178.984375 9.0625 -184.109375 6.1875 -189.109375 C 3.3125 -194.117188 1.375 -199.375 0.375 -204.875 C -0.625 -210.132812 0.625 -213.578125 4.125 -215.203125 C 7.625 -216.828125 11.9375 -217.578125 17.0625 -217.453125 C 22.195312 -217.328125 26.515625 -217.265625 30.015625 -217.265625 C 33.265625 -217.265625 36.515625 -217.078125 39.765625 -216.703125 C 43.023438 -216.328125 46.15625 -215.390625 49.15625 -213.890625 C 54.40625 -211.378906 58.71875 -206.5625 62.09375 -199.4375 C 65.476562 -192.3125 68.359375 -184.742188 70.734375 -176.734375 C 73.109375 -168.734375 75.171875 -162.101562 76.921875 -156.84375 C 80.421875 -148.34375 83.921875 -139.773438 87.421875 -131.140625 C 90.929688 -122.515625 95.1875 -114.195312 100.1875 -106.1875 C 104.4375 -99.4375 108.6875 -96.875 112.9375 -98.5 C 117.195312 -100.125 120.578125 -104.0625 123.078125 -110.3125 C 129.328125 -125.820312 135.515625 -141.332031 141.640625 -156.84375 C 147.773438 -172.351562 153.96875 -187.738281 160.21875 -203 C 160.71875 -205 161.40625 -206.8125 162.28125 -208.4375 C 163.164062 -210.0625 164.359375 -211.503906 165.859375 -212.765625 C 167.859375 -214.015625 169.921875 -214.828125 172.046875 -215.203125 C 174.171875 -215.578125 176.359375 -215.765625 178.609375 -215.765625 C 183.859375 -216.015625 189.046875 -216.203125 194.171875 -216.328125 C 199.304688 -216.453125 204.375 -216.390625 209.375 -216.140625 C 210.875 -216.140625 212.3125 -216.078125 213.6875 -215.953125 C 215.070312 -215.828125 216.265625 -215.265625 217.265625 -214.265625 C 219.265625 -212.753906 220.078125 -210.625 219.703125 -207.875 C 219.328125 -205.125 218.640625 -202.625 217.640625 -200.375 C 203.878906 -165.851562 189.992188 -131.394531 175.984375 -97 C 161.972656 -62.601562 148.335938 -28.144531 135.078125 6.375 C 132.078125 14.382812 129.078125 22.578125 126.078125 30.953125 C 123.078125 39.335938 118.953125 46.90625 113.703125 53.65625 C 106.941406 62.164062 98.554688 68.609375 88.546875 72.984375 C 78.546875 77.359375 68.039062 79.671875 57.03125 79.921875 Z M 57.03125 79.921875 "/></g></g></g></g></g><g transform="matrix(1, 0, 0, 1, 251, 736)"><g clip-path="url(#4aadb0824d)"><g fill="#EEEEE8" fill-opacity="1"><g transform="translate(0.711876, 129.412862)"><g><path d="M 104.265625 -49.59375 C 104.265625 -39.3125 102.300781 -30.3125 98.375 -22.59375 C 94.445312 -14.875 88.8125 -8.945312 81.46875 -4.8125 C 74.125 -0.675781 65.453125 1.390625 55.453125 1.390625 C 45.359375 1.390625 36.648438 -0.648438 29.328125 -4.734375 C 22.003906 -8.828125 16.410156 -14.742188 12.546875 -22.484375 C 8.691406 -30.234375 6.765625 -39.269531 6.765625 -49.59375 C 6.765625 -65.3125 11.066406 -77.597656 19.671875 -86.453125 C 28.273438 -95.304688 40.25 -99.734375 55.59375 -99.734375 C 65.582031 -99.734375 74.25 -97.742188 81.59375 -93.765625 C 88.945312 -89.796875 94.5625 -84.019531 98.4375 -76.4375 C 102.320312 -68.863281 104.265625 -59.914062 104.265625 -49.59375 Z M 90.671875 -49.59375 C 90.671875 -61.820312 87.613281 -71.421875 81.5 -78.390625 C 75.382812 -85.367188 66.75 -88.859375 55.59375 -88.859375 C 44.332031 -88.859375 35.632812 -85.414062 29.5 -78.53125 C 23.363281 -71.65625 20.296875 -62.007812 20.296875 -49.59375 C 20.296875 -37.269531 23.398438 -27.492188 29.609375 -20.265625 C 35.816406 -13.035156 44.429688 -9.421875 55.453125 -9.421875 C 66.796875 -9.421875 75.5 -12.914062 81.5625 -19.90625 C 87.632812 -26.90625 90.671875 -36.800781 90.671875 -49.59375 Z M 90.671875 -49.59375 "/></g></g></g><g fill="#EEEEE8" fill-opacity="1"><g transform="translate(111.818424, 129.412862)"><g><path d="M 54.546875 0 L 40.734375 0 L 0.625 -98.28125 L 14.640625 -98.28125 L 41.84375 -29.078125 L 47.703125 -11.71875 L 53.5625 -29.078125 L 80.625 -98.28125 L 94.640625 -98.28125 Z M 54.546875 0 "/></g></g></g><g fill="#EEEEE8" fill-opacity="1"><g transform="translate(207.09247, 129.412862)"><g><path d="M 11.71875 0 L 11.71875 -98.28125 L 86.28125 -98.28125 L 86.28125 -87.390625 L 25.046875 -87.390625 L 25.046875 -55.875 L 82.09375 -55.875 L 82.09375 -45.125 L 25.046875 -45.125 L 25.046875 -10.875 L 89.140625 -10.875 L 89.140625 0 Z M 11.71875 0 "/></g></g></g><g fill="#EEEEE8" fill-opacity="1"><g transform="translate(302.366492, 129.412862)"><g><path d="M 81.1875 0 L 55.65625 -40.796875 L 25.046875 -40.796875 L 25.046875 0 L 11.71875 0 L 11.71875 -98.28125 L 57.953125 -98.28125 C 69.023438 -98.28125 77.570312 -95.800781 83.59375 -90.84375 C 89.613281 -85.894531 92.625 -79.003906 92.625 -70.171875 C 92.625 -62.867188 90.492188 -56.726562 86.234375 -51.75 C 81.984375 -46.78125 76.113281 -43.644531 68.625 -42.34375 L 96.53125 0 Z M 79.234375 -70.03125 C 79.234375 -75.75 77.289062 -80.109375 73.40625 -83.109375 C 69.519531 -86.109375 63.929688 -87.609375 56.640625 -87.609375 L 25.046875 -87.609375 L 25.046875 -51.328125 L 57.1875 -51.328125 C 64.207031 -51.328125 69.632812 -52.96875 73.46875 -56.25 C 77.3125 -59.53125 79.234375 -64.125 79.234375 -70.03125 Z M 79.234375 -70.03125 "/></g></g></g><g fill="#EEEEE8" fill-opacity="1"><g transform="translate(405.521924, 129.412862)"><g><path d="M 81.1875 0 L 55.65625 -40.796875 L 25.046875 -40.796875 L 25.046875 0 L 11.71875 0 L 11.71875 -98.28125 L 57.953125 -98.28125 C 69.023438 -98.28125 77.570312 -95.800781 83.59375 -90.84375 C 89.613281 -85.894531 92.625 -79.003906 92.625 -70.171875 C 92.625 -62.867188 90.492188 -56.726562 86.234375 -51.75 C 81.984375 -46.78125 76.113281 -43.644531 68.625 -42.34375 L 96.53125 0 Z M 79.234375 -70.03125 C 79.234375 -75.75 77.289062 -80.109375 73.40625 -83.109375 C 69.519531 -86.109375 63.929688 -87.609375 56.640625 -87.609375 L 25.046875 -87.609375 L 25.046875 -51.328125 L 57.1875 -51.328125 C 64.207031 -51.328125 69.632812 -52.96875 73.46875 -56.25 C 77.3125 -59.53125 79.234375 -64.125 79.234375 -70.03125 Z M 79.234375 -70.03125 "/></g></g></g><g fill="#EEEEE8" fill-opacity="1"><g transform="translate(508.67731, 129.412862)"><g><path d="M 50.984375 1.390625 C 42.941406 1.390625 35.921875 -0.0703125 29.921875 -3 C 23.921875 -5.925781 19.269531 -10.175781 15.96875 -15.75 C 12.664062 -21.332031 11.015625 -27.988281 11.015625 -35.71875 L 11.015625 -98.28125 L 24.34375 -98.28125 L 24.34375 -36.828125 C 24.34375 -27.847656 26.617188 -21.035156 31.171875 -16.390625 C 35.734375 -11.742188 42.316406 -9.421875 50.921875 -9.421875 C 59.753906 -9.421875 66.625 -11.828125 71.53125 -16.640625 C 76.4375 -21.453125 78.890625 -28.484375 78.890625 -37.734375 L 78.890625 -98.28125 L 92.140625 -98.28125 L 92.140625 -36.96875 C 92.140625 -29.019531 90.453125 -22.160156 87.078125 -16.390625 C 83.710938 -10.617188 78.945312 -6.210938 72.78125 -3.171875 C 66.625 -0.128906 59.359375 1.390625 50.984375 1.390625 Z M 50.984375 1.390625 "/></g></g></g><g fill="#EEEEE8" fill-opacity="1"><g transform="translate(611.832741, 129.412862)"><g><path d="M 75.46875 0 L 22.875 -83.703125 L 23.21875 -76.9375 L 23.578125 -65.28125 L 23.578125 0 L 11.71875 0 L 11.71875 -98.28125 L 27.203125 -98.28125 L 80.34375 -14.015625 C 79.789062 -23.128906 79.515625 -29.734375 79.515625 -33.828125 L 79.515625 -98.28125 L 91.515625 -98.28125 L 91.515625 0 Z M 75.46875 0 "/></g></g></g></g></g></svg>