<svg xmlns="http://www.w3.org/2000/svg" xmlns:xlink="http://www.w3.org/1999/xlink" width="1800" zoomAndPan="magnify" viewBox="0 0 1350 599.999999" height="800" preserveAspectRatio="xMidYMid meet" version="1.0"><defs><g/><clipPath id="65202a7eeb"><path d="M 854.769531 0 L 1211.019531 0 L 1211.019531 596 L 854.769531 596 Z M 854.769531 0 " clip-rule="nonzero"/></clipPath><clipPath id="de8d0de9ff"><path d="M 1.074219 0 L 357 0 L 357 595 L 1.074219 595 Z M 1.074219 0 " clip-rule="nonzero"/></clipPath><clipPath id="b330249bd0"><rect x="0" width="358" y="0" height="596"/></clipPath><clipPath id="f247b976b3"><rect x="0" width="823" y="0" height="314"/></clipPath><clipPath id="a82245e768"><rect x="0" width="585" y="0" height="132"/></clipPath></defs><g clip-path="url(#65202a7eeb)"><g transform="matrix(1, 0, 0, 1, 854, -0.000000000000034788)"><g clip-path="url(#b330249bd0)"><g clip-path="url(#de8d0de9ff)"><path fill="#e8640a" d="M 185.496094 466.066406 C 186.417969 466.523438 187.339844 467.214844 188.261719 467.90625 C 191.945312 471.59375 197.011719 473.433594 201.160156 476.199219 C 202.308594 476.890625 203.460938 477.351562 204.613281 477.582031 C 206.457031 478.042969 208.527344 478.734375 210.371094 479.425781 C 220.507812 484.492188 230.179688 481.957031 239.625 478.042969 C 244.460938 475.96875 247.914062 471.59375 249.066406 466.523438 C 250.449219 460.765625 251.371094 455.007812 251.371094 449.019531 C 251.371094 447.867188 251.601562 446.945312 251.601562 445.335938 C 253.675781 445.796875 255.515625 446.714844 256.898438 448.097656 C 261.273438 452.476562 265.421875 456.851562 269.566406 460.996094 C 272.792969 464.222656 276.015625 467.445312 279.242188 470.671875 C 283.15625 474.585938 286.84375 478.503906 290.757812 482.417969 C 293.0625 484.722656 295.59375 486.792969 298.128906 488.867188 C 302.042969 492.09375 306.191406 495.316406 310.566406 498.082031 C 314.480469 500.613281 318.859375 502.917969 323.234375 504.53125 C 331.066406 507.753906 340.050781 506.601562 346.957031 501.765625 C 351.105469 499.234375 353.867188 495.085938 355.019531 490.480469 C 356.863281 483.339844 357.324219 475.96875 356.171875 468.597656 C 356.171875 468.136719 356.171875 467.445312 356.171875 466.984375 C 356.171875 461.457031 355.480469 455.929688 354.328125 450.632812 C 353.179688 442.339844 351.796875 434.046875 350.183594 425.757812 C 349.03125 418.847656 347.417969 412.167969 346.039062 405.257812 C 344.886719 399.269531 342.8125 393.511719 341.429688 387.75 C 339.589844 380.613281 336.59375 373.933594 335.441406 366.5625 C 334.980469 364.488281 334.289062 362.414062 333.371094 360.34375 C 329.453125 349.515625 323.695312 339.613281 316.554688 330.628906 C 315.402344 329.246094 314.480469 328.09375 313.792969 326.484375 C 312.871094 325.332031 313.101562 323.949219 314.019531 323.027344 C 314.25 322.796875 314.25 322.796875 314.480469 322.796875 C 320.46875 319.804688 324.15625 314.277344 328.300781 309.4375 C 330.144531 306.90625 331.757812 304.140625 332.679688 301.148438 C 334.058594 297.691406 334.980469 294.238281 335.902344 290.550781 C 337.515625 284.5625 338.4375 278.34375 338.667969 272.125 C 338.4375 268.898438 337.976562 265.445312 337.054688 262.449219 C 336.59375 260.148438 335.671875 257.84375 334.980469 255.539062 C 333.371094 250.933594 331.296875 246.328125 328.53125 242.179688 C 325.539062 236.882812 322.082031 231.816406 318.167969 227.210938 C 314.019531 221.914062 309.644531 216.613281 305.269531 211.546875 C 301.121094 206.710938 296.515625 202.335938 291.679688 197.957031 C 287.992188 194.503906 284.308594 191.507812 280.394531 188.285156 C 276.015625 184.597656 271.640625 181.144531 267.035156 177.457031 C 265.882812 176.535156 264.730469 175.617188 263.578125 174.695312 C 257.359375 169.625 251.601562 164.328125 245.382812 159.722656 C 240.316406 155.808594 235.246094 151.890625 229.949219 148.207031 C 227.417969 146.59375 226.035156 143.597656 226.957031 140.605469 C 228.335938 133.695312 229.71875 126.554688 230.871094 119.414062 C 231.5625 114.808594 231.792969 109.972656 232.023438 105.132812 C 232.023438 103.980469 232.253906 103.0625 232.484375 101.910156 C 233.40625 97.761719 233.867188 93.617188 234.097656 89.472656 C 234.328125 86.476562 234.097656 83.253906 233.40625 80.257812 C 232.253906 75.191406 230.640625 69.894531 228.796875 65.054688 C 226.265625 58.375 222.578125 52.386719 217.742188 47.320312 C 214.289062 43.867188 210.371094 40.871094 205.996094 38.335938 C 201.160156 35.34375 195.628906 34.652344 190.5625 33.039062 C 186.1875 31.886719 181.582031 32.117188 177.433594 33.730469 C 176.28125 34.191406 174.902344 34.421875 173.519531 34.882812 C 172.136719 31.65625 170.753906 28.894531 169.371094 25.898438 C 167.300781 21.523438 164.765625 17.378906 161.773438 13.691406 C 157.394531 8.625 152.097656 4.707031 145.878906 2.175781 C 141.734375 0.5625 137.125 0.332031 132.75 1.714844 C 124.226562 3.789062 116.625 7.933594 110.40625 14.152344 C 109.945312 14.613281 109.484375 14.84375 109.253906 15.304688 C 105.339844 19.679688 101.65625 24.058594 97.96875 28.664062 C 94.285156 33.269531 90.597656 38.566406 86.914062 43.40625 C 85.300781 45.476562 83.6875 47.320312 82.078125 49.625 C 79.773438 48.703125 77.699219 47.320312 75.859375 45.707031 C 71.25 42.253906 66.875 38.796875 62.5 35.34375 C 59.964844 33.5 57.429688 31.65625 54.667969 30.277344 C 49.601562 27.742188 43.378906 28.664062 39.464844 32.578125 C 39.003906 33.039062 38.542969 33.730469 38.3125 34.421875 C 36.929688 38.105469 35.550781 41.5625 34.398438 45.246094 C 33.9375 46.859375 33.476562 48.472656 33.246094 50.085938 C 32.324219 56.996094 31.171875 63.902344 30.25 70.8125 C 30.25 71.042969 30.25 71.273438 30.25 71.273438 C 31.632812 76.574219 28.871094 81.871094 30.25 86.9375 C 29.792969 89.933594 29.792969 93.15625 30.480469 96.152344 C 30.480469 97.070312 30.480469 97.992188 30.710938 98.914062 C 32.324219 102.371094 31.632812 106.054688 31.632812 109.742188 C 31.863281 117.570312 31.171875 125.402344 31.171875 133.234375 C 31.402344 136.230469 30.480469 139.222656 28.640625 141.527344 C 27.488281 142.910156 26.796875 144.75 26.796875 146.59375 C 26.566406 149.128906 26.105469 151.660156 25.644531 154.195312 C 25.183594 156.265625 25.183594 158.570312 25.875 160.644531 C 28.179688 167.09375 29.332031 174.003906 31.863281 180.683594 C 35.089844 188.746094 37.851562 196.804688 41.078125 204.867188 C 42 208.09375 42.230469 211.316406 41.769531 214.773438 C 41.769531 217.304688 41.078125 219.839844 40.847656 222.371094 C 40.617188 223.984375 40.386719 225.597656 40.386719 227.210938 C 40.15625 231.585938 39.464844 235.960938 38.3125 240.109375 C 38.082031 241.261719 37.621094 242.179688 36.699219 242.871094 C 34.398438 245.40625 33.476562 249.089844 30.480469 251.164062 C 30.25 251.164062 30.25 251.394531 30.25 251.625 C 27.488281 258.074219 21.730469 262.679688 17.582031 268.210938 C 16.664062 269.128906 15.742188 269.820312 14.359375 270.28125 C 9.0625 272.585938 5.144531 276.960938 2.84375 282.257812 C 1.230469 286.867188 0.769531 291.703125 1.460938 296.308594 C 1.921875 300.917969 2.152344 305.523438 4.222656 309.667969 C 5.375 318.421875 9.0625 326.253906 11.363281 334.542969 C 11.59375 335.695312 11.59375 337.078125 12.054688 338.230469 C 12.746094 341.914062 13.667969 345.371094 15.050781 348.824219 C 16.203125 351.589844 16.894531 354.351562 17.121094 357.347656 C 18.042969 363.105469 20.808594 368.632812 20.117188 374.621094 C 20.117188 375.542969 20.347656 376.464844 20.808594 377.15625 C 22.191406 380.839844 23.570312 384.757812 24.492188 388.671875 C 26.105469 394.660156 28.179688 400.648438 30.480469 406.410156 C 31.863281 409.863281 33.246094 413.089844 34.859375 416.542969 C 36.929688 420.230469 39.234375 423.683594 42 426.910156 C 43.839844 428.980469 45.222656 431.285156 47.066406 433.359375 L 50.058594 437.042969 C 50.980469 437.964844 51.902344 438.886719 52.59375 440.039062 C 54.898438 443.953125 56.511719 448.328125 56.96875 452.9375 C 57.199219 454.777344 57.429688 456.621094 58.121094 458.234375 C 60.195312 464.914062 63.1875 471.132812 66.414062 477.121094 C 67.796875 479.195312 68.488281 481.726562 68.488281 484.492188 C 68.257812 486.5625 69.640625 488.867188 68.71875 490.941406 C 68.488281 491.632812 68.71875 492.554688 69.179688 493.015625 C 71.019531 496.007812 70.558594 499.464844 70.789062 502.6875 C 71.25 507.0625 71.941406 511.441406 72.863281 515.816406 C 73.554688 519.5 74.246094 523.417969 75.398438 527.101562 C 76.546875 530.558594 77.46875 534.242188 77.929688 537.699219 C 77.929688 538.160156 78.160156 538.390625 78.160156 538.851562 C 79.542969 541.152344 80.925781 543.457031 81.847656 545.988281 C 82.078125 548.523438 82.539062 551.058594 83.226562 553.589844 C 84.609375 556.816406 85.761719 560.039062 87.144531 563.265625 C 87.605469 564.1875 88.066406 564.878906 88.296875 565.796875 C 88.757812 567.871094 89.675781 569.945312 90.597656 572.019531 C 94.746094 577.546875 97.507812 584.226562 102.804688 589.0625 C 106.953125 592.976562 111.789062 595.742188 117.546875 594.359375 C 120.3125 593.4375 123.074219 592.285156 125.609375 590.90625 C 127.222656 589.984375 128.835938 589.0625 130.214844 588.140625 C 130.675781 587.910156 131.136719 587.679688 131.597656 587.21875 C 137.816406 581.460938 143.804688 575.703125 148.183594 568.101562 C 151.867188 562.34375 155.09375 556.355469 158.085938 550.367188 C 160.160156 545.300781 162.460938 540.230469 164.304688 534.933594 C 166.609375 528.945312 168.222656 522.726562 170.523438 516.738281 C 174.210938 506.601562 176.972656 496.007812 179.046875 485.414062 C 180.429688 479.425781 182.960938 473.894531 183.421875 467.90625 C 183.882812 467.445312 184.804688 466.984375 185.496094 466.066406 Z M 233.636719 373.011719 C 236.628906 370.015625 239.625 367.253906 242.847656 364.71875 C 248.605469 360.574219 254.367188 356.425781 260.585938 352.742188 C 269.335938 347.214844 278.550781 342.144531 287.992188 337.539062 C 292.140625 335.695312 296.054688 333.394531 300.203125 331.550781 C 302.503906 330.398438 304.347656 330.628906 305.5 332.703125 C 308.492188 338.230469 312.871094 342.605469 315.863281 348.132812 C 317.476562 352.050781 319.78125 355.503906 322.542969 358.730469 C 323.695312 360.34375 324.386719 361.953125 324.617188 363.796875 C 325.769531 368.402344 327.148438 373.011719 328.992188 377.386719 C 330.605469 380.382812 331.527344 383.605469 331.988281 386.832031 C 332.449219 389.59375 333.371094 392.589844 334.519531 395.121094 C 334.980469 396.042969 335.441406 397.195312 335.441406 398.117188 C 335.441406 400.648438 335.902344 403.183594 336.824219 405.71875 C 337.746094 407.789062 338.207031 409.863281 338.4375 412.167969 C 338.4375 417.234375 341.429688 422.070312 340.507812 427.367188 C 340.507812 427.828125 340.507812 428.519531 340.96875 428.980469 C 342.582031 432.4375 343.273438 436.351562 343.273438 440.265625 C 343.273438 441.417969 343.503906 442.570312 343.964844 443.492188 C 345.808594 449.019531 346.957031 454.777344 347.1875 460.765625 C 347.648438 467.675781 347.648438 474.585938 348.339844 481.496094 C 348.570312 484.722656 347.417969 487.714844 345.347656 490.019531 C 343.964844 492.09375 341.890625 493.472656 339.589844 493.703125 C 338.4375 493.933594 337.054688 494.394531 335.902344 494.855469 C 334.980469 495.085938 333.828125 495.085938 332.679688 495.085938 C 326.921875 493.472656 321.160156 490.941406 316.324219 487.714844 C 308.953125 482.648438 301.8125 477.121094 295.363281 470.902344 C 287.761719 463.300781 279.703125 455.929688 272.332031 448.097656 C 268.183594 443.722656 263.578125 439.808594 259.433594 435.429688 C 258.28125 434.507812 257.128906 433.585938 255.976562 432.667969 C 252.0625 429.671875 248.605469 426.21875 247.6875 420.917969 C 245.613281 409.171875 241.007812 398.117188 238.011719 386.601562 C 236.628906 381.761719 235.246094 377.847656 233.636719 373.011719 Z M 116.164062 583.074219 C 114.554688 582.613281 113.171875 581.921875 112.019531 581.230469 C 110.175781 579.617188 108.566406 578.007812 107.183594 576.164062 C 101.886719 569.023438 97.738281 561.191406 94.976562 552.898438 C 91.289062 543.226562 88.296875 533.550781 85.300781 523.648438 C 84.378906 520.421875 83.6875 517.199219 83.226562 513.972656 C 82.769531 511.210938 82.078125 508.675781 81.386719 505.914062 C 81.15625 504.992188 80.925781 504.070312 80.925781 503.148438 C 80.234375 497.851562 80.003906 492.554688 79.082031 487.253906 C 78.621094 484.953125 79.542969 483.800781 81.847656 483.570312 C 83.6875 483.339844 85.53125 483.109375 87.144531 482.648438 C 95.207031 480.34375 103.035156 476.890625 110.175781 472.515625 C 116.855469 468.136719 122.84375 462.839844 127.683594 456.621094 C 131.136719 452.246094 134.363281 447.867188 137.125 443.03125 C 138.046875 441.648438 139.199219 440.496094 140.582031 439.808594 C 143.574219 437.964844 146.570312 436.121094 149.5625 434.507812 C 150.945312 433.585938 152.789062 433.816406 153.710938 435.199219 C 153.710938 435.199219 153.710938 435.429688 153.941406 435.429688 C 154.863281 437.042969 156.011719 438.425781 157.164062 439.808594 C 162 444.875 167.070312 449.710938 172.136719 454.546875 C 176.972656 459.15625 176.972656 458.925781 175.359375 465.375 C 175.132812 466.527344 174.671875 467.90625 174.210938 469.058594 C 173.519531 470.441406 173.289062 471.824219 173.289062 473.203125 C 173.289062 474.125 173.058594 475.046875 172.597656 475.738281 C 170.753906 479.425781 170.0625 483.339844 170.0625 487.253906 C 169.832031 488.175781 169.601562 489.097656 169.371094 489.789062 C 168.679688 491.402344 168.222656 492.785156 167.761719 494.394531 C 167.070312 497.851562 166.148438 501.304688 164.996094 504.53125 C 163.613281 507.984375 163.152344 511.671875 162.230469 515.125 C 161.3125 518.121094 160.160156 521.113281 159.007812 523.878906 C 160.160156 527.792969 156.011719 529.40625 155.324219 532.632812 C 155.09375 533.550781 154.863281 534.472656 154.632812 535.164062 C 153.941406 538.160156 152.789062 541.152344 151.40625 543.917969 C 149.5625 547.371094 147.722656 550.597656 145.878906 554.050781 C 141.273438 563.265625 136.433594 568.792969 128.375 577.085938 C 124.917969 581.460938 120.542969 581.460938 116.164062 583.074219 Z M 225.34375 158.339844 C 228.566406 160.644531 232.023438 161.796875 234.785156 164.328125 C 238.242188 167.785156 242.15625 170.777344 246.304688 173.542969 C 251.140625 176.996094 255.746094 180.453125 260.125 184.367188 C 262.425781 186.210938 264.5 188.285156 266.574219 190.125 C 270.488281 193.8125 275.09375 196.34375 279.011719 200.03125 C 282.003906 202.792969 285 206.019531 288.222656 208.554688 C 291.449219 211.085938 293.523438 214.773438 296.746094 216.84375 C 298.128906 217.765625 298.820312 219.839844 300.203125 220.992188 C 303.195312 223.523438 305.730469 226.289062 307.800781 229.511719 C 308.492188 230.894531 309.183594 232.046875 310.105469 233.199219 C 314.25 237.574219 317.707031 242.410156 320.46875 247.480469 C 321.621094 249.550781 323.234375 251.394531 324.15625 253.46875 C 327.378906 260.839844 330.835938 268.210938 328.761719 276.730469 C 328.070312 279.957031 328.300781 283.410156 326.921875 286.636719 C 326.691406 287.328125 326.460938 288.019531 326.691406 288.707031 C 326.921875 290.550781 326.460938 292.394531 325.308594 294.007812 C 322.542969 299.074219 320.46875 304.832031 315.171875 308.054688 C 314.710938 308.285156 314.25 308.746094 314.019531 309.207031 C 312.871094 311.742188 310.335938 312.203125 308.492188 313.355469 C 306.652344 314.507812 305.039062 314.277344 303.425781 311.972656 C 302.964844 311.28125 302.734375 310.820312 302.273438 310.128906 C 297.4375 302.066406 292.601562 294.238281 287.53125 286.175781 C 285.230469 282.488281 282.464844 278.804688 279.933594 275.347656 C 277.398438 271.894531 274.863281 268.667969 271.871094 265.445312 C 266.804688 259.6875 261.964844 254.160156 256.898438 248.628906 C 253.214844 244.484375 249.296875 240.800781 245.152344 236.652344 C 245.152344 234.8125 245.152344 232.96875 245.152344 231.125 C 244.921875 226.289062 245.84375 221.453125 244.460938 216.84375 C 243.078125 211.777344 241.464844 206.710938 239.394531 201.644531 C 236.628906 194.503906 232.714844 188.054688 227.648438 182.523438 C 225.804688 180.683594 223.960938 178.609375 221.886719 176.535156 C 221.65625 170.777344 224.191406 164.789062 225.34375 158.339844 Z M 87.375 66.898438 C 90.367188 68.28125 93.824219 68.972656 94.976562 72.65625 C 94.976562 72.886719 95.207031 72.886719 95.4375 73.117188 C 98.199219 73.578125 100.503906 75.421875 101.425781 78.183594 C 101.425781 78.414062 101.886719 78.644531 102.347656 78.875 C 105.339844 80.71875 108.335938 82.5625 111.097656 84.632812 C 113.863281 86.707031 116.625 89.011719 119.390625 90.851562 C 123.304688 93.617188 123.535156 94.308594 120.773438 98.222656 C 118.699219 101.449219 116.394531 104.441406 114.554688 107.898438 C 113.402344 109.28125 112.710938 111.121094 112.019531 112.734375 C 110.40625 117.339844 108.105469 121.71875 105.339844 125.863281 C 102.347656 131.160156 99.8125 136.6875 98.199219 142.449219 C 97.96875 144.289062 96.355469 145.671875 94.285156 145.902344 C 89.90625 146.363281 85.53125 147.054688 81.15625 147.976562 C 80.464844 147.976562 79.773438 148.207031 79.082031 148.4375 C 77.699219 149.128906 76.777344 150.738281 76.777344 152.351562 C 77.007812 154.195312 78.390625 155.347656 80.234375 155.117188 C 81.617188 155.117188 83.226562 154.886719 84.609375 154.65625 C 86.222656 154.425781 87.835938 153.964844 89.445312 153.734375 C 91.058594 153.503906 92.210938 155.117188 91.289062 156.265625 C 88.988281 159.261719 88.527344 162.945312 85.992188 165.710938 C 85.300781 166.402344 85.070312 167.324219 84.839844 168.246094 C 84.609375 169.855469 83.6875 171.46875 82.539062 172.851562 C 82.078125 173.082031 81.847656 173.082031 81.847656 173.3125 C 81.386719 173.542969 80.695312 173.542969 80.234375 173.542969 C 76.546875 172.851562 73.785156 175.617188 70.328125 176.304688 C 67.335938 179.300781 63.1875 179.53125 59.042969 181.144531 C 58.121094 179.761719 57.429688 178.378906 56.738281 176.765625 C 53.976562 169.855469 51.210938 163.175781 48.679688 156.265625 C 47.066406 152.121094 45.453125 147.976562 43.839844 144.058594 C 43.152344 142.449219 43.378906 140.835938 44.300781 139.453125 C 47.757812 133.695312 50.980469 128.167969 54.4375 122.410156 C 57.199219 117.800781 59.734375 113.195312 61.808594 108.128906 C 62.5 106.746094 63.417969 105.132812 64.339844 103.75 C 66.183594 101.21875 67.796875 98.683594 69.179688 95.691406 C 70.789062 90.621094 74.707031 87.167969 77.007812 82.5625 C 79.082031 78.644531 81.386719 74.960938 83.917969 71.273438 C 84.148438 68.742188 85.53125 67.359375 87.375 66.898438 Z M 99.8125 353.203125 C 100.964844 355.273438 101.65625 356.886719 102.804688 358.730469 C 104.417969 360.800781 105.800781 363.335938 106.953125 365.871094 C 108.105469 370.9375 111.558594 374.621094 113.402344 379 C 115.015625 382.453125 117.085938 385.679688 119.390625 388.902344 C 122.15625 393.050781 125.148438 396.964844 128.144531 400.878906 C 129.523438 402.722656 130.214844 405.488281 132.058594 406.640625 C 135.515625 408.941406 136.203125 413.089844 138.96875 415.851562 C 139.890625 417.003906 140.121094 418.847656 139.199219 420 C 138.277344 421.378906 137.585938 422.761719 136.894531 424.375 C 135.515625 429.441406 131.828125 431.746094 127.453125 433.816406 C 123.765625 435.660156 119.851562 437.273438 115.933594 438.65625 C 110.40625 440.265625 104.648438 441.648438 98.890625 442.339844 C 96.125 443.03125 93.132812 443.03125 90.367188 441.878906 C 89.21875 441.417969 87.835938 441.1875 86.453125 441.1875 C 84.148438 440.957031 81.617188 440.957031 79.3125 440.265625 C 75.167969 439.347656 74.246094 437.734375 74.015625 434.277344 C 73.785156 431.515625 73.554688 428.75 73.324219 425.988281 C 73.09375 424.144531 72.863281 422.300781 72.863281 420.457031 C 72.171875 413.777344 71.941406 407.328125 70.558594 400.648438 C 69.867188 396.503906 69.410156 392.359375 68.949219 388.210938 C 68.71875 385.449219 69.636719 382.683594 71.710938 380.613281 C 73.324219 379 75.167969 377.386719 77.007812 376.003906 C 78.390625 375.082031 79.773438 374.160156 80.925781 373.011719 C 85.070312 368.171875 90.136719 364.027344 93.59375 358.5 C 94.515625 356.425781 96.816406 354.125 99.8125 353.203125 Z M 243.769531 251.394531 C 244.460938 251.625 245.613281 251.625 246.074219 252.085938 C 247.6875 253.699219 249.066406 255.769531 250.910156 257.382812 C 254.136719 260.148438 256.898438 263.371094 259.203125 266.828125 C 260.585938 268.4375 261.964844 270.28125 263.117188 271.894531 C 264.039062 273.046875 264.960938 274.199219 265.882812 275.347656 C 267.035156 277.191406 268.644531 278.804688 270.488281 279.957031 C 272.101562 280.878906 273.484375 282.257812 273.714844 284.101562 C 273.945312 284.792969 274.175781 285.484375 274.863281 285.945312 C 279.011719 291.242188 282.695312 297 286.152344 302.757812 C 286.613281 303.910156 287.304688 305.0625 288.222656 305.984375 C 291.449219 308.976562 292.371094 313.125 294.671875 316.578125 C 296.054688 318.652344 295.363281 320.265625 293.0625 321.414062 C 285.921875 325.101562 279.011719 329.246094 271.640625 332.472656 C 264.039062 335.925781 256.898438 340.074219 250.449219 345.140625 C 244.921875 349.054688 239.394531 352.972656 234.328125 357.347656 C 233.175781 358.269531 232.023438 359.421875 230.410156 358.730469 C 228.796875 358.039062 229.488281 356.425781 229.257812 355.273438 C 228.796875 353.433594 227.878906 351.359375 227.417969 349.515625 C 226.726562 347.214844 226.496094 344.910156 225.574219 342.605469 C 224.882812 340.304688 225.113281 337.769531 226.265625 335.695312 C 228.566406 331.089844 230.640625 326.023438 232.253906 320.957031 C 232.945312 317.269531 233.867188 313.355469 235.015625 309.667969 C 235.707031 307.828125 236.167969 305.753906 236.398438 303.679688 C 237.550781 297.460938 238.703125 291.011719 239.855469 284.792969 C 240.546875 281.339844 241.234375 277.882812 241.695312 274.660156 C 242.15625 267.519531 242.847656 259.6875 243.769531 251.394531 Z M 147.492188 405.71875 C 145.648438 405.71875 143.804688 404.566406 142.882812 402.953125 C 140.351562 399.730469 137.816406 396.273438 135.515625 392.820312 C 133.902344 390.515625 132.289062 387.980469 130.675781 385.449219 C 126.300781 378.769531 121.695312 372.089844 117.546875 364.949219 C 114.09375 359.191406 111.328125 352.972656 107.875 346.984375 C 105.339844 343.296875 105.800781 338.460938 108.796875 335.234375 C 109.945312 333.855469 110.867188 332.242188 111.558594 330.628906 C 113.402344 325.792969 115.707031 321.1875 118.46875 317.039062 C 120.773438 313.585938 122.613281 309.667969 123.996094 305.753906 C 124.226562 305.0625 124.917969 304.371094 125.378906 304.371094 C 125.839844 304.371094 127.453125 304.601562 127.683594 305.292969 C 128.835938 307.597656 130.445312 309.667969 132.519531 311.050781 C 132.75 311.28125 132.75 311.28125 132.75 311.511719 C 135.054688 317.039062 140.582031 320.265625 143.34375 325.5625 C 143.574219 325.792969 143.804688 326.253906 144.035156 326.253906 C 145.878906 327.40625 147.261719 329.246094 148.183594 331.089844 C 148.644531 332.011719 149.101562 332.703125 150.023438 333.164062 C 151.175781 333.855469 151.867188 335.003906 152.097656 336.15625 C 152.328125 337.078125 152.789062 337.769531 153.480469 338.460938 C 157.625 343.757812 161.773438 349.285156 166.148438 354.351562 C 168.222656 356.425781 168.679688 359.882812 167.300781 362.414062 C 165.6875 365.640625 163.382812 368.171875 163.382812 371.859375 C 163.382812 372.089844 163.152344 372.089844 163.152344 372.320312 C 159.238281 377.386719 156.472656 383.375 154.863281 389.363281 C 154.863281 389.824219 154.632812 390.515625 154.171875 390.976562 C 151.175781 395.351562 148.871094 400.417969 147.492188 405.71875 Z M 177.894531 332.011719 C 175.820312 331.78125 173.980469 330.628906 172.597656 329.015625 C 167.992188 324.640625 163.382812 320.035156 158.777344 315.425781 C 156.242188 313.355469 153.941406 311.050781 151.636719 308.515625 C 147.261719 302.296875 141.503906 297.460938 136.203125 291.933594 C 130.90625 286.40625 131.367188 288.9375 133.902344 281.109375 C 134.132812 280.417969 134.363281 279.726562 134.824219 279.035156 C 136.433594 275.347656 138.046875 271.664062 139.429688 267.75 C 140.582031 264.523438 141.273438 261.070312 142.421875 257.613281 C 144.496094 252.316406 146.109375 246.789062 147.492188 241.261719 C 148.183594 238.035156 150.023438 235.042969 150.253906 231.816406 C 150.253906 231.125 151.867188 230.433594 152.558594 230.894531 C 153.25 231.355469 154.171875 231.816406 154.863281 232.507812 C 158.546875 234.8125 161.3125 238.265625 165.226562 240.339844 C 170.0625 242.871094 172.367188 247.710938 176.28125 250.933594 C 176.511719 250.933594 176.511719 251.164062 176.511719 251.394531 C 176.972656 255.308594 179.277344 258.765625 179.046875 263.140625 C 178.816406 266.367188 179.277344 269.820312 179.96875 272.816406 C 180.660156 275.578125 182.039062 278.34375 180.890625 281.339844 C 180.660156 282.027344 181.121094 283.179688 181.351562 284.101562 C 182.039062 286.867188 182.5 289.859375 182.960938 292.855469 C 183.421875 297.691406 183.652344 302.296875 183.652344 307.136719 C 183.652344 310.820312 183.421875 314.507812 182.5 317.960938 C 181.351562 321.644531 180.660156 325.332031 179.507812 329.015625 C 179.046875 329.9375 178.585938 330.859375 177.894531 332.011719 Z M 223.039062 109.28125 C 222.808594 113.425781 220.738281 117.339844 223.039062 121.257812 C 220.96875 124.710938 218.664062 127.9375 220.277344 132.082031 C 220.507812 132.773438 220.277344 133.464844 219.816406 134.15625 C 218.894531 135.769531 217.742188 137.148438 216.589844 138.53125 C 215.898438 138.070312 215.207031 137.839844 214.289062 137.378906 C 209.910156 134.386719 205.765625 131.160156 201.390625 128.167969 C 197.472656 125.402344 193.558594 122.871094 189.410156 120.105469 C 187.109375 118.722656 185.726562 115.960938 185.957031 113.195312 C 186.1875 104.441406 185.726562 95.691406 184.34375 86.9375 C 184.34375 86.476562 184.34375 85.785156 184.34375 85.324219 C 184.804688 81.871094 184.574219 78.414062 183.652344 74.960938 C 183.421875 73.808594 183.421875 72.65625 183.191406 71.734375 C 182.730469 66.4375 181.8125 61.140625 180.199219 56.074219 C 179.046875 53.308594 178.125 50.316406 177.894531 47.089844 L 180.429688 45.707031 C 183.652344 44.09375 186.878906 42.945312 190.332031 44.554688 C 191.484375 44.785156 192.867188 45.015625 194.019531 45.246094 C 197.472656 46.167969 201.390625 46.398438 204.382812 48.472656 C 210.140625 52.15625 214.976562 57.222656 217.972656 63.445312 C 219.355469 66.207031 220.507812 69.203125 221.886719 71.964844 C 224.882812 79.105469 224.652344 79.105469 224.421875 86.476562 C 224.191406 88.78125 224.191406 91.3125 224.421875 93.617188 C 225.113281 96.382812 224.882812 99.144531 224.191406 101.679688 C 223.730469 103.519531 223.730469 105.363281 224.652344 106.976562 C 224.882812 107.207031 224.652344 107.667969 224.421875 108.128906 Z M 92.210938 57.222656 C 93.59375 55.84375 94.976562 54.230469 96.125 52.386719 C 99.121094 47.320312 102.574219 42.714844 106.492188 38.105469 C 111.097656 32.117188 116.164062 26.589844 121.695312 21.523438 C 126.300781 17.378906 132.058594 14.613281 138.277344 13.230469 C 143.113281 12.308594 148.183594 13.691406 152.097656 16.917969 C 155.09375 18.988281 157.625 21.753906 159.46875 24.976562 C 161.082031 27.972656 162.230469 31.425781 164.074219 34.421875 C 165.917969 37.414062 165.457031 39.027344 162.460938 41.5625 C 160.621094 42.945312 159.007812 44.324219 157.625 45.9375 C 153.019531 51.925781 148.644531 57.914062 144.265625 64.132812 C 139.890625 70.351562 136.664062 76.574219 132.289062 82.332031 C 131.828125 82.792969 131.367188 83.484375 130.675781 83.941406 C 129.984375 83.941406 129.0625 83.710938 128.375 83.484375 C 117.546875 77.03125 107.414062 69.203125 97.277344 61.832031 C 95.4375 60.449219 93.824219 58.835938 92.210938 57.222656 Z M 41.078125 259.226562 C 41.078125 261.070312 41.308594 262.21875 41.308594 263.371094 C 41.308594 266.597656 41.539062 270.050781 42 273.277344 C 42.460938 275.117188 42.691406 277.191406 42.460938 279.265625 C 42.460938 281.109375 42.691406 282.949219 42.921875 284.792969 C 43.152344 285.714844 43.378906 286.636719 43.609375 287.558594 C 43.839844 293.546875 44.53125 299.535156 45.683594 305.523438 C 46.144531 308.976562 46.144531 312.433594 46.144531 315.886719 C 46.144531 316.808594 45.914062 317.730469 45.683594 318.421875 C 42.921875 324.179688 40.617188 330.167969 38.773438 336.386719 C 37.621094 340.535156 36.699219 344.910156 36.472656 349.285156 C 35.78125 356.425781 36.242188 363.566406 37.390625 370.707031 C 38.542969 376.925781 40.847656 382.683594 44.300781 387.980469 C 45.683594 390.746094 48.910156 392.128906 51.902344 391.207031 C 53.285156 390.976562 54.4375 390.515625 55.589844 390.515625 C 56.738281 390.515625 57.660156 391.207031 57.890625 392.359375 C 58.121094 394.660156 57.890625 397.195312 57.660156 399.5 C 56.738281 405.257812 54.898438 410.785156 55.128906 417.003906 C 54.898438 418.617188 54.667969 420.230469 54.667969 421.839844 C 54.667969 422.300781 54.207031 422.761719 53.746094 422.992188 C 53.285156 423.222656 52.824219 422.761719 52.363281 422.53125 C 52.132812 422.300781 51.902344 422.070312 51.671875 421.839844 C 45.453125 414.238281 40.617188 405.257812 37.621094 395.8125 C 36.472656 391.898438 35.78125 387.980469 34.398438 384.066406 C 31.863281 376.464844 30.019531 368.863281 28.871094 361.03125 C 27.71875 355.734375 26.566406 350.667969 25.183594 345.601562 C 23.339844 339.382812 21.269531 333.394531 19.425781 327.175781 C 17.121094 318.882812 13.4375 311.050781 12.746094 302.296875 C 12.746094 301.835938 12.515625 301.148438 12.285156 300.6875 C 10.671875 297.460938 11.363281 294.238281 11.363281 291.011719 C 11.132812 289.167969 12.054688 287.328125 13.667969 286.40625 C 17.582031 284.5625 20.347656 281.339844 23.570312 278.574219 C 28.179688 274.660156 33.015625 270.972656 36.011719 265.445312 C 36.472656 262.449219 38.542969 260.378906 41.078125 259.226562 Z M 176.28125 201.183594 C 173.75 201.644531 171.445312 200.953125 169.140625 199.800781 C 153.25 194.042969 138.046875 186.441406 122.15625 180.914062 C 115.707031 178.609375 109.253906 176.996094 102.804688 174.925781 C 100.042969 174.003906 97.046875 174.003906 94.285156 172.160156 L 104.1875 153.042969 C 105.109375 152.8125 106.03125 152.582031 106.953125 152.351562 C 109.945312 152.351562 113.171875 152.121094 116.164062 152.351562 C 123.535156 152.582031 130.675781 151.429688 138.046875 152.8125 C 144.035156 153.964844 150.023438 154.425781 156.011719 155.578125 C 160.851562 156.496094 165.6875 157.878906 170.523438 158.800781 C 177.894531 160.414062 176.050781 159.492188 177.664062 167.09375 C 177.664062 168.015625 177.664062 168.9375 177.664062 169.855469 C 177.894531 176.996094 176.742188 184.136719 177.664062 191.277344 C 177.894531 194.503906 177.433594 197.957031 176.28125 201.183594 Z M 226.265625 470.210938 C 223.039062 470.441406 219.816406 469.980469 216.589844 469.289062 C 210.601562 467.445312 204.84375 464.914062 199.546875 461.6875 C 196.320312 459.847656 193.558594 457.542969 190.5625 455.46875 C 189.179688 454.777344 188.71875 453.167969 189.179688 451.554688 C 189.410156 450.632812 189.640625 449.710938 189.871094 448.789062 C 191.253906 445.105469 192.175781 441.417969 192.867188 437.734375 C 195.167969 427.828125 196.550781 417.925781 197.011719 407.789062 C 197.242188 406.410156 197.703125 405.027344 198.625 403.875 C 199.546875 402.722656 200.46875 401.570312 201.390625 400.648438 C 203.230469 398.808594 204.613281 398.808594 206.457031 400.648438 C 208.988281 402.953125 211.523438 405.257812 214.058594 407.789062 C 214.519531 408.25 215.207031 408.710938 215.667969 409.402344 C 220.277344 415.621094 226.035156 421.378906 232.253906 425.988281 C 237.550781 430.363281 242.15625 434.96875 241.234375 442.570312 C 241.234375 443.03125 241.234375 443.722656 241.464844 444.183594 C 243.078125 448.097656 241.925781 452.246094 241.925781 456.160156 C 241.925781 460.074219 240.777344 463.992188 237.089844 466.066406 C 235.246094 467.214844 234.558594 469.75 232.023438 469.980469 C 229.488281 470.210938 227.417969 470.210938 226.265625 470.210938 Z M 109.714844 143.597656 C 109.714844 142.679688 109.714844 141.757812 109.945312 140.835938 C 110.40625 139.683594 111.097656 138.53125 111.558594 137.378906 C 114.785156 129.089844 118.929688 121.027344 123.765625 113.65625 C 126.300781 110.199219 128.375 106.746094 130.90625 103.289062 C 133.671875 99.375 134.824219 99.144531 139.199219 101.449219 C 140.351562 102.140625 141.503906 102.832031 142.652344 103.0625 C 145.878906 103.519531 147.953125 105.824219 150.484375 107.667969 C 151.40625 108.359375 152.097656 109.28125 153.019531 109.742188 C 158.777344 111.8125 163.152344 115.960938 168.679688 118.722656 C 170.753906 119.875 172.597656 121.257812 174.441406 122.871094 C 175.820312 123.789062 176.511719 125.402344 176.742188 127.015625 C 177.433594 131.390625 176.28125 135.769531 178.585938 139.914062 L 177.664062 150.96875 C 174.441406 150.96875 171.214844 150.738281 168.222656 150.046875 C 161.773438 147.976562 155.09375 146.59375 148.414062 146.132812 C 143.574219 145.902344 138.96875 145.210938 134.132812 144.980469 C 129.523438 144.519531 124.917969 144.289062 120.542969 144.519531 C 116.625 144.289062 113.171875 144.058594 109.714844 143.597656 Z M 213.367188 230.433594 L 225.34375 234.8125 C 227.1875 235.5 228.796875 236.882812 229.949219 238.496094 C 230.640625 239.648438 231.5625 240.570312 232.714844 241.261719 C 234.328125 242.179688 235.246094 244.253906 234.785156 246.097656 C 234.558594 247.710938 234.558594 249.320312 234.328125 250.933594 C 233.867188 254.160156 233.40625 257.382812 233.175781 260.839844 C 233.175781 263.832031 232.945312 266.597656 232.253906 269.589844 C 231.792969 272.816406 231.332031 276.039062 231.332031 279.496094 C 231.332031 280.878906 231.332031 282.027344 231.101562 283.179688 C 228.796875 289.398438 228.566406 296.078125 226.035156 302.296875 C 225.804688 302.988281 225.804688 303.679688 225.804688 304.371094 C 226.265625 310.589844 223.960938 315.65625 220.738281 320.726562 C 220.277344 321.644531 219.355469 321.875 218.433594 321.644531 C 217.050781 319.113281 215.898438 316.347656 215.207031 313.585938 C 213.597656 307.597656 211.753906 301.605469 209.449219 295.847656 C 207.609375 291.011719 206.226562 286.175781 204.152344 281.339844 C 202.769531 278.34375 202.769531 275.117188 204.152344 272.355469 C 204.613281 271.203125 204.84375 269.820312 205.074219 268.667969 C 206.6875 260.378906 208.070312 252.085938 209.679688 243.792969 C 210.140625 241.492188 210.601562 239.1875 211.292969 236.882812 C 211.753906 234.582031 212.445312 232.96875 213.367188 230.433594 Z M 54.4375 237.113281 C 55.128906 237.574219 55.589844 237.804688 55.820312 238.265625 C 57.199219 240.800781 58.582031 243.5625 59.734375 246.097656 C 62.5 253.46875 65.03125 260.839844 67.796875 268.4375 C 68.71875 270.742188 69.636719 273.277344 70.558594 275.578125 C 71.480469 277.882812 72.632812 281.109375 73.554688 283.871094 C 74.015625 284.792969 74.246094 285.484375 74.476562 286.40625 C 75.167969 291.011719 76.777344 295.15625 79.542969 298.84375 C 79.3125 301.148438 79.082031 303.449219 78.851562 305.523438 C 78.851562 309.4375 77.929688 313.125 76.316406 316.578125 C 75.859375 317.5 75.398438 318.652344 75.167969 319.574219 C 73.554688 325.101562 71.710938 330.859375 70.328125 336.386719 C 69.410156 338.230469 69.179688 340.304688 69.867188 342.375 C 70.097656 343.066406 69.867188 343.757812 69.410156 344.449219 C 67.105469 348.59375 65.953125 352.972656 65.722656 357.578125 C 65.722656 358.5 65.722656 359.882812 64.109375 360.34375 C 63.878906 359.882812 63.1875 359.191406 63.1875 358.730469 C 62.730469 351.820312 60.195312 345.140625 59.503906 338.230469 C 59.042969 332.472656 58.121094 326.945312 56.96875 321.414062 C 56.28125 318.191406 57.199219 314.734375 59.734375 312.433594 C 62.269531 309.667969 64.570312 306.445312 66.414062 302.988281 C 68.257812 299.996094 69.867188 297 71.480469 293.777344 C 72.632812 291.472656 72.171875 288.476562 69.867188 286.867188 C 67.566406 286.175781 65.03125 287.328125 63.648438 289.398438 C 62.730469 290.78125 61.808594 292.164062 60.886719 293.546875 C 59.273438 296.308594 56.738281 298.382812 53.976562 299.996094 C 53.515625 299.074219 53.285156 298.152344 53.054688 297 C 52.824219 293.777344 52.59375 290.320312 52.132812 287.097656 C 51.671875 281.339844 50.75 275.808594 50.519531 270.050781 C 50.058594 261.53125 50.058594 253.238281 49.828125 244.714844 C 50.058594 241.722656 51.671875 238.726562 54.4375 237.113281 Z M 43.609375 114.578125 C 43.152344 113.65625 42.691406 112.503906 42.460938 111.351562 C 42 104.902344 41.078125 98.683594 40.847656 92.234375 C 40.617188 87.628906 40.847656 83.023438 41.078125 78.414062 C 41.308594 74.5 41.769531 70.8125 42.230469 66.898438 C 42.691406 59.527344 44.300781 52.386719 46.605469 45.246094 C 47.988281 41.792969 48.679688 40.179688 53.515625 41.5625 C 54.667969 41.792969 55.589844 42.253906 56.507812 42.945312 C 61.808594 45.9375 66.644531 49.625 71.019531 53.769531 C 72.863281 55.382812 74.476562 56.996094 75.628906 59.066406 C 75.398438 60.679688 75.167969 62.292969 74.707031 63.902344 C 74.015625 65.285156 73.324219 66.4375 72.402344 67.589844 L 67.796875 74.269531 C 65.953125 76.574219 64.339844 79.105469 62.960938 81.640625 C 60.425781 87.167969 57.199219 92.695312 53.515625 97.761719 C 52.824219 98.453125 52.363281 99.375 52.132812 100.296875 C 51.210938 105.132812 47.296875 108.359375 45.453125 112.964844 C 45.683594 113.425781 44.761719 113.65625 43.609375 114.578125 Z M 99.351562 244.253906 C 98.199219 243.5625 97.277344 243.332031 96.816406 242.871094 C 94.746094 240.109375 92.671875 237.34375 90.828125 234.351562 C 85.53125 225.828125 80.003906 217.304688 74.707031 208.785156 C 74.246094 207.863281 73.785156 206.941406 73.324219 206.019531 C 74.9375 201.414062 78.621094 198.648438 80.925781 194.964844 C 81.617188 193.8125 83.226562 193.582031 84.378906 194.273438 C 85.992188 194.964844 87.605469 195.882812 89.445312 196.574219 C 91.980469 197.265625 94.746094 198.1875 97.277344 199.339844 C 101.886719 201.875 106.722656 203.945312 111.789062 205.789062 C 114.554688 206.710938 117.316406 208.09375 117.316406 211.777344 C 115.476562 214.773438 113.632812 217.765625 112.019531 220.53125 C 111.328125 221.453125 111.097656 222.371094 110.867188 223.523438 C 110.636719 225.597656 109.714844 227.441406 108.105469 228.820312 C 106.722656 229.972656 105.800781 231.585938 105.339844 233.429688 C 103.726562 237.34375 101.886719 241.03125 99.351562 244.253906 Z M 124.226562 277.652344 C 122.613281 276.269531 121.003906 274.890625 119.621094 273.507812 C 115.933594 269.589844 112.710938 265.445312 109.027344 261.53125 C 108.335938 260.609375 107.644531 259.917969 106.953125 258.996094 C 105.109375 256.691406 105.109375 253.699219 106.722656 251.164062 C 107.414062 250.011719 108.105469 249.089844 108.796875 247.941406 C 112.941406 239.417969 117.546875 231.125 122.84375 223.0625 C 123.765625 221.453125 124.917969 220.070312 126.070312 218.6875 C 127.222656 217.074219 129.523438 216.613281 131.136719 217.765625 C 131.136719 217.765625 131.367188 217.996094 131.367188 217.996094 C 133.210938 219.148438 135.054688 220.300781 136.894531 221.453125 C 139.429688 222.371094 140.582031 225.136719 140.121094 227.671875 C 139.429688 231.816406 138.738281 235.960938 138.277344 240.109375 C 138.046875 241.722656 137.355469 243.332031 136.894531 244.714844 C 135.972656 247.710938 133.671875 250.472656 133.671875 253.929688 C 133.441406 255.082031 132.980469 256 132.519531 256.921875 C 131.828125 258.765625 130.90625 260.609375 130.214844 262.449219 C 129.292969 265.214844 128.605469 267.980469 127.683594 270.742188 C 126.992188 272.816406 125.609375 274.890625 124.226562 277.652344 Z M 175.820312 110.199219 C 174.671875 109.742188 173.980469 109.28125 173.058594 108.820312 C 167.992188 105.824219 162.921875 102.371094 157.625 99.605469 C 152.789062 97.070312 147.722656 95 143.113281 92.003906 C 142.421875 91.542969 141.734375 90.851562 141.042969 90.160156 C 142.195312 88.320312 142.882812 86.707031 144.035156 85.324219 C 148.644531 78.414062 153.480469 71.273438 158.085938 64.363281 C 159.238281 62.292969 160.621094 60.449219 162.003906 58.605469 C 164.074219 56.304688 165.6875 53.539062 168.679688 52.386719 C 169.140625 52.847656 169.832031 53.078125 170.0625 53.539062 C 171.214844 56.535156 172.136719 59.757812 172.597656 62.984375 C 172.597656 64.824219 172.828125 66.667969 173.519531 68.28125 C 173.75 68.972656 173.980469 69.664062 173.980469 70.351562 C 174.210938 72.195312 174.441406 74.039062 174.441406 75.882812 C 174.671875 79.566406 175.132812 83.023438 175.132812 86.707031 C 175.132812 94.078125 174.441406 101.449219 176.28125 108.589844 C 176.28125 108.589844 176.050781 109.050781 175.820312 110.199219 Z M 176.511719 367.253906 C 177.203125 367.480469 177.894531 367.710938 178.125 368.171875 C 181.121094 371.628906 184.113281 375.082031 186.878906 378.769531 C 187.570312 379.691406 188.03125 381.070312 188.03125 382.222656 C 188.03125 386.832031 188.03125 391.4375 188.03125 396.042969 C 188.03125 397.886719 187.109375 399.730469 185.496094 400.648438 C 179.96875 404.335938 175.132812 408.710938 169.601562 412.167969 C 165.6875 414.699219 161.3125 416.082031 157.394531 418.386719 C 156.242188 419.078125 154.632812 418.617188 153.941406 417.464844 C 152.789062 416.3125 152.558594 414.699219 153.25 413.320312 C 154.171875 410.785156 155.09375 408.480469 156.472656 406.410156 C 160.390625 400.878906 162.460938 394.660156 165.6875 388.902344 C 169.371094 382.222656 172.367188 375.082031 175.589844 368.171875 C 175.820312 367.941406 176.050781 367.710938 176.511719 367.253906 Z M 100.042969 326.484375 C 99.351562 325.332031 98.660156 324.179688 97.96875 322.796875 C 96.355469 319.34375 94.976562 315.65625 93.363281 312.203125 C 92.210938 309.4375 91.519531 306.675781 90.597656 303.910156 C 89.90625 301.835938 89.90625 299.535156 90.828125 297.460938 C 93.132812 290.320312 95.4375 283.179688 97.738281 276.039062 C 97.96875 274.199219 99.121094 272.355469 100.503906 270.972656 C 101.195312 271.433594 102.347656 271.664062 102.574219 272.125 C 105.339844 276.269531 109.027344 279.726562 111.328125 284.101562 C 113.171875 287.558594 115.476562 290.550781 117.777344 294.007812 C 117.546875 294.695312 117.546875 295.15625 117.316406 295.847656 C 114.554688 301.605469 112.019531 307.597656 109.027344 313.355469 C 107.414062 316.578125 105.800781 319.804688 103.957031 322.796875 C 103.035156 324.179688 102.347656 326.253906 100.042969 326.484375 Z M 188.488281 165.710938 C 191.714844 167.554688 194.941406 167.785156 197.703125 169.625 C 200.46875 171.46875 203.691406 173.3125 206.6875 175.15625 C 207.839844 176.074219 208.988281 176.996094 210.140625 177.917969 C 211.292969 178.839844 211.984375 180.453125 211.523438 181.835938 C 210.140625 188.054688 210.601562 194.503906 208.527344 200.722656 C 208.296875 201.183594 208.296875 201.875 208.296875 202.332031 C 208.527344 204.867188 208.070312 207.402344 207.148438 209.703125 C 206.226562 212.929688 204.84375 213.621094 202.078125 212.46875 C 198.164062 210.855469 194.25 209.472656 190.332031 207.863281 C 189.410156 207.402344 188.261719 206.710938 187.339844 206.25 C 186.648438 193.8125 187.800781 181.375 188.03125 168.9375 C 187.800781 167.785156 188.261719 166.632812 188.488281 165.710938 Z M 187.339844 132.082031 C 189.410156 132.3125 191.484375 133.234375 192.867188 134.847656 C 194.019531 136 195.398438 136.917969 196.78125 137.839844 C 202.308594 140.375 206.457031 144.980469 211.984375 147.746094 C 214.058594 148.667969 215.207031 150.96875 214.75 153.273438 C 214.75 155.578125 214.75 157.648438 214.289062 159.722656 C 214.058594 162.488281 213.367188 165.480469 212.445312 168.246094 C 208.757812 167.785156 206.917969 165.019531 204.152344 163.636719 C 201.390625 162.257812 198.625 160.644531 195.859375 159.261719 C 192.636719 158.339844 189.871094 156.726562 187.339844 154.425781 Z M 199.546875 294.925781 L 200.929688 299.074219 C 202.078125 302.296875 202.769531 305.753906 204.152344 308.976562 C 206.6875 313.816406 208.527344 318.882812 209.449219 324.179688 C 209.449219 324.871094 209.679688 325.5625 209.910156 326.253906 C 210.601562 328.324219 211.292969 330.398438 211.523438 332.472656 C 212.675781 335.464844 211.292969 338.921875 208.527344 340.535156 C 205.304688 343.066406 201.390625 344.679688 197.242188 344.910156 C 195.859375 343.988281 195.167969 342.375 195.398438 340.765625 C 194.941406 333.164062 194.480469 325.792969 193.558594 318.191406 C 193.097656 314.507812 193.328125 310.820312 194.25 307.367188 C 195.398438 303.449219 196.550781 299.535156 197.703125 295.847656 C 198.394531 295.617188 198.855469 295.386719 199.546875 294.925781 Z M 75.628906 452.476562 C 76.316406 452.246094 76.777344 451.785156 77.238281 451.785156 C 79.773438 452.707031 82.539062 453.167969 85.300781 452.9375 C 89.21875 455.007812 93.132812 454.316406 97.277344 454.085938 C 101.65625 454.316406 106.03125 453.625 110.175781 452.246094 C 112.25 451.09375 114.785156 450.863281 117.085938 451.554688 C 117.085938 452.246094 117.085938 452.707031 117.085938 453.394531 C 117.085938 454.085938 112.480469 458.925781 112.25 458.925781 C 108.335938 460.765625 105.339844 463.992188 101.195312 464.914062 C 100.042969 465.144531 99.121094 465.835938 98.660156 466.753906 C 96.816406 469.75 94.054688 469.980469 91.058594 469.980469 C 89.90625 470.210938 88.988281 470.210938 87.835938 470.441406 C 85.761719 470.671875 83.917969 470.902344 81.847656 470.902344 C 78.851562 470.902344 77.46875 469.75 77.007812 466.753906 C 76.316406 462.378906 76.089844 457.3125 75.628906 452.476562 Z M 205.535156 381.53125 C 204.84375 381.070312 204.152344 380.382812 203.460938 379.691406 C 202.078125 378.078125 201.160156 376.464844 199.546875 375.082031 C 197.933594 373.472656 197.011719 370.9375 197.242188 368.632812 C 197.242188 366.332031 197.011719 364.027344 197.011719 361.492188 C 197.011719 360.34375 197.011719 358.960938 197.011719 357.578125 C 197.933594 357.347656 198.855469 356.886719 199.777344 356.65625 C 202.769531 355.734375 205.765625 355.273438 208.757812 354.351562 C 210.140625 353.894531 211.523438 353.203125 212.675781 352.511719 C 213.828125 351.820312 214.976562 349.976562 216.128906 349.976562 C 218.433594 349.976562 217.28125 352.511719 218.433594 353.664062 C 220.96875 356.65625 220.738281 360.574219 221.65625 364.027344 C 222.347656 366.332031 221.429688 369.09375 219.125 370.246094 C 217.972656 371.167969 216.820312 372.089844 215.898438 373.011719 C 212.675781 376.234375 209.21875 379 205.535156 381.53125 Z M 65.03125 232.507812 C 68.949219 236.191406 72.863281 240.109375 76.089844 244.484375 C 76.777344 245.40625 77.238281 246.558594 77.929688 247.25 C 82.769531 250.703125 85.53125 256 90.367188 259.457031 C 91.75 260.609375 92.210938 262.679688 91.519531 264.523438 C 90.597656 267.058594 89.90625 269.820312 89.21875 272.355469 C 89.21875 273.277344 88.757812 274.199219 88.527344 274.890625 C 87.144531 276.960938 86.222656 279.496094 85.761719 282.027344 C 85.53125 282.949219 85.53125 284.332031 83.6875 284.332031 C 77.929688 270.972656 73.554688 256.691406 67.566406 243.332031 C 66.414062 240.570312 65.492188 237.804688 64.570312 235.042969 C 64.570312 234.582031 64.339844 234.351562 64.339844 233.890625 C 64.339844 233.660156 64.339844 233.429688 64.570312 233.429688 C 64.800781 232.96875 64.800781 232.96875 65.03125 232.507812 Z M 186.648438 220.300781 C 187.800781 220.070312 188.261719 219.839844 188.488281 220.070312 C 192.175781 221.222656 195.859375 222.144531 199.546875 223.523438 C 201.847656 224.675781 203.230469 227.210938 202.769531 229.972656 C 202.539062 231.355469 202.308594 232.738281 202.078125 234.121094 C 201.390625 237.804688 200.238281 241.492188 199.777344 245.40625 C 199.085938 250.011719 197.011719 254.160156 197.933594 258.996094 C 198.164062 260.148438 197.242188 261.53125 196.089844 261.53125 C 196.089844 261.53125 195.859375 261.53125 195.859375 261.53125 C 195.398438 261.300781 195.167969 261.300781 194.941406 261.070312 C 192.636719 257.382812 190.332031 253.699219 188.03125 249.78125 C 186.878906 247.941406 186.417969 245.636719 186.417969 243.332031 C 186.417969 237.574219 186.1875 231.585938 186.1875 225.828125 C 186.417969 223.984375 186.648438 222.144531 186.648438 220.300781 Z M 220.738281 189.203125 C 224.882812 192.199219 226.726562 196.113281 228.796875 200.03125 C 229.949219 202.332031 231.101562 204.636719 232.023438 206.941406 C 232.484375 208.324219 232.253906 209.933594 232.714844 211.085938 C 235.015625 215.921875 235.015625 220.992188 235.476562 226.058594 C 235.476562 226.75 235.246094 227.441406 235.015625 227.902344 C 232.945312 228.363281 230.640625 227.671875 229.257812 226.058594 C 226.265625 223.753906 223.039062 221.914062 219.585938 220.761719 C 215.4375 218.917969 215.207031 218.6875 215.4375 214.3125 C 215.4375 213.851562 215.4375 213.160156 215.667969 212.699219 C 216.128906 209.472656 216.589844 206.25 217.28125 203.023438 C 217.972656 199.800781 219.585938 196.574219 219.125 192.890625 C 219.125 191.738281 220.046875 190.585938 220.738281 189.203125 Z M 175.359375 234.121094 C 173.058594 233.199219 170.753906 231.585938 169.140625 229.742188 C 168.222656 228.820312 167.300781 228.132812 166.148438 227.441406 C 162 225.367188 158.777344 222.140625 154.863281 220.070312 C 153.019531 218.917969 151.636719 217.074219 151.175781 214.773438 C 150.484375 212.007812 150.023438 209.011719 149.5625 206.25 C 149.5625 205.789062 150.253906 205.097656 150.945312 204.867188 C 151.636719 204.636719 152.097656 205.097656 152.558594 205.328125 C 156.472656 207.171875 160.390625 209.011719 164.535156 210.855469 C 165.917969 211.546875 167.53125 212.238281 169.140625 212.46875 C 171.214844 212.929688 173.289062 213.621094 175.359375 214.773438 C 176.511719 215.234375 177.203125 216.613281 177.203125 217.996094 C 177.203125 222.601562 177.203125 227.210938 176.972656 231.585938 C 176.28125 232.277344 175.820312 233.199219 175.359375 234.121094 Z M 74.707031 365.410156 L 73.554688 365.179688 C 73.554688 362.414062 74.015625 359.882812 74.476562 357.117188 C 76.089844 351.589844 77.007812 346.0625 78.621094 340.765625 C 80.695312 334.316406 81.386719 327.40625 84.378906 321.414062 C 84.839844 320.726562 85.300781 320.035156 85.761719 319.574219 C 88.527344 323.949219 88.296875 328.785156 91.519531 332.242188 C 91.75 332.472656 91.75 333.394531 91.75 333.855469 C 91.75 335.234375 92.210938 336.847656 92.441406 338.230469 C 93.59375 340.992188 92.210938 343.296875 90.828125 345.371094 C 88.988281 348.363281 86.683594 351.359375 84.378906 354.125 C 81.386719 357.808594 77.929688 361.722656 74.707031 365.410156 Z M 186.878906 414.929688 C 187.339844 417.695312 187.109375 420.457031 186.1875 423.222656 C 185.496094 424.605469 185.265625 426.21875 185.035156 428.058594 C 185.035156 429.441406 184.804688 431.054688 184.34375 432.207031 C 183.652344 434.96875 182.730469 437.734375 182.039062 440.726562 C 181.808594 442.570312 180.890625 444.414062 179.277344 445.796875 C 176.050781 443.722656 173.058594 440.957031 170.523438 437.964844 C 167.53125 435.199219 164.996094 432.207031 162.921875 428.75 C 167.070312 426.449219 170.753906 423.914062 174.671875 422.070312 C 178.585938 420.230469 181.582031 415.851562 186.878906 414.929688 Z M 235.246094 412.628906 C 234.328125 412.398438 233.40625 411.9375 232.484375 411.246094 C 228.796875 407.789062 225.574219 404.105469 221.886719 400.878906 C 219.355469 398.347656 216.820312 395.582031 214.75 392.589844 C 213.597656 391.4375 213.367188 389.59375 214.519531 388.441406 C 214.75 388.210938 214.976562 387.980469 215.207031 387.980469 C 216.820312 386.371094 218.664062 384.757812 220.507812 383.144531 C 221.886719 382.222656 223.269531 381.300781 224.882812 380.609375 C 226.265625 379.921875 228.335938 381.070312 228.105469 382.683594 C 227.648438 385.910156 229.257812 388.441406 229.949219 391.207031 C 230.179688 391.667969 230.410156 392.128906 230.410156 392.820312 C 232.023438 398.347656 233.636719 403.644531 235.015625 409.171875 C 235.015625 410.09375 235.015625 411.246094 235.246094 412.628906 Z M 48.679688 337.539062 L 49.601562 337.539062 C 49.828125 338.921875 50.058594 340.304688 50.289062 341.683594 C 51.441406 345.601562 52.132812 349.515625 52.363281 353.664062 C 52.59375 355.042969 52.824219 356.425781 53.285156 357.808594 C 53.515625 358.960938 54.207031 360.34375 54.207031 361.492188 C 54.898438 365.871094 55.359375 370.246094 56.050781 374.621094 C 56.050781 375.3125 56.050781 376.234375 55.820312 376.925781 C 55.128906 377.15625 54.4375 377.617188 53.746094 377.847656 C 51.210938 378.539062 50.289062 378.308594 49.601562 375.773438 C 48.449219 371.859375 47.296875 367.941406 46.375 364.027344 C 45.222656 356.65625 45.453125 349.054688 47.066406 341.683594 C 47.296875 340.304688 47.988281 338.921875 48.679688 337.539062 Z M 48.21875 194.503906 C 47.296875 193.582031 46.605469 192.660156 46.144531 191.738281 C 44.300781 186.902344 42.460938 182.066406 40.847656 177.457031 C 39.234375 172.160156 37.621094 166.863281 36.242188 161.796875 C 35.78125 159.492188 36.242188 156.957031 37.621094 155.117188 C 39.234375 156.726562 40.386719 158.570312 41.078125 160.644531 C 41.769531 163.40625 42.691406 166.171875 43.839844 168.9375 C 44.761719 172.160156 45.914062 175.15625 47.757812 177.917969 C 49.601562 180.683594 49.601562 183.90625 50.980469 186.441406 C 51.441406 187.59375 51.210938 188.976562 50.75 190.125 C 50.058594 191.507812 49.140625 193.121094 48.21875 194.503906 Z M 93.59375 185.289062 C 95.898438 185.289062 98.199219 185.289062 100.273438 185.289062 C 100.964844 185.289062 101.65625 185.289062 102.347656 185.75 C 104.417969 186.902344 106.722656 187.59375 109.027344 187.824219 C 110.867188 188.054688 112.480469 188.746094 114.09375 189.433594 C 117.777344 191.277344 121.695312 192.890625 125.839844 194.042969 C 127.683594 194.273438 129.523438 195.425781 130.214844 197.265625 L 125.609375 200.953125 L 98.199219 187.824219 C 96.816406 187.132812 95.207031 186.210938 93.59375 185.289062 Z M 187.800781 361.722656 C 186.1875 360.113281 185.496094 359.421875 184.804688 358.730469 C 183.652344 357.578125 182.730469 356.195312 181.808594 354.8125 C 181.121094 353.664062 181.582031 352.28125 182.730469 351.589844 C 182.730469 351.589844 182.960938 351.359375 183.191406 351.359375 C 186.648438 353.664062 188.488281 357.578125 187.800781 361.722656 Z M 69.867188 221.683594 C 70.097656 220.992188 70.097656 220.300781 70.558594 220.070312 C 71.019531 219.839844 71.480469 220.300781 71.941406 220.300781 C 71.941406 220.761719 71.941406 221.453125 71.480469 221.683594 C 71.019531 221.914062 70.558594 221.914062 69.867188 221.683594 Z M 62.960938 229.511719 L 62.960938 229.050781 L 63.417969 229.28125 Z M 191.023438 279.035156 C 191.253906 278.804688 191.484375 278.574219 191.714844 278.574219 C 191.714844 278.574219 191.945312 278.804688 191.945312 278.804688 C 191.945312 279.035156 191.714844 279.265625 191.484375 279.496094 Z M 191.023438 279.035156 " fill-opacity="1" fill-rule="nonzero"/></g></g></g></g><g transform="matrix(1, 0, 0, 1, 208, 105)"><g clip-path="url(#f247b976b3)"><g fill="#eeeee8" fill-opacity="1"><g transform="translate(6.330935, 245.635033)"><g><path d="M 155.84375 -64.734375 C 155.84375 -65.140625 155.632812 -65.75 155.21875 -66.5625 C 154.195312 -69.632812 152.96875 -71.988281 151.53125 -73.625 C 150.101562 -75.257812 147.753906 -76.28125 144.484375 -76.6875 L 142.34375 -76.6875 C 142.132812 -76.894531 141.828125 -77 141.421875 -77 C 137.535156 -77 134.414062 -75.257812 132.0625 -71.78125 C 129.707031 -68.300781 127.8125 -63.75 126.375 -58.125 C 124.945312 -52.507812 123.566406 -46.53125 122.234375 -40.1875 C 120.910156 -33.84375 119.222656 -27.753906 117.171875 -21.921875 C 115.128906 -16.097656 112.367188 -11.242188 108.890625 -7.359375 C 105.421875 -3.472656 100.820312 -1.222656 95.09375 -0.609375 C 89.570312 0.00390625 83.847656 0.3125 77.921875 0.3125 C 75.867188 0.3125 73.769531 0.207031 71.625 0 C 69.476562 -0.207031 67.382812 -0.71875 65.34375 -1.53125 C 61.050781 -3.164062 57.570312 -6.382812 54.90625 -11.1875 C 52.25 -16 50.101562 -21.21875 48.46875 -26.84375 C 46.832031 -32.46875 45.398438 -37.222656 44.171875 -41.109375 C 40.285156 -53.578125 36.195312 -66.097656 31.90625 -78.671875 C 27.613281 -91.253906 23.113281 -103.679688 18.40625 -115.953125 C 16.363281 -121.679688 13.703125 -127.507812 10.421875 -133.4375 C 7.148438 -139.375 4.441406 -145.410156 2.296875 -151.546875 C 0.148438 -157.679688 -0.507812 -163.914062 0.3125 -170.25 C 0.71875 -174.75 2.554688 -177 5.828125 -177 C 9.097656 -177 12.984375 -177.101562 17.484375 -177.3125 C 21.578125 -177.519531 25.613281 -177.519531 29.59375 -177.3125 C 33.582031 -177.101562 37.519531 -176.382812 41.40625 -175.15625 C 42.4375 -174.957031 44.023438 -173.476562 46.171875 -170.71875 C 48.316406 -167.957031 50.003906 -164.835938 51.234375 -161.359375 C 52.460938 -158.085938 53.632812 -154.914062 54.75 -151.84375 C 55.875 -148.78125 56.953125 -145.613281 57.984375 -142.34375 C 60.835938 -134.15625 63.898438 -125.765625 67.171875 -117.171875 C 70.453125 -108.585938 74.238281 -100.101562 78.53125 -91.71875 C 80.375 -88.851562 82.726562 -87.421875 85.59375 -87.421875 C 85.789062 -87.421875 85.941406 -87.421875 86.046875 -87.421875 C 86.148438 -87.421875 86.304688 -87.421875 86.515625 -87.421875 C 89.984375 -87.835938 92.226562 -89.679688 93.25 -92.953125 C 94.476562 -96.429688 95.707031 -99.957031 96.9375 -103.53125 C 98.164062 -107.113281 99.394531 -110.640625 100.625 -114.109375 C 103.476562 -122.492188 106.390625 -131.03125 109.359375 -139.71875 C 112.328125 -148.414062 115.140625 -157.160156 117.796875 -165.953125 C 119.023438 -170.253906 120.609375 -173.066406 122.546875 -174.390625 C 124.492188 -175.722656 128.023438 -176.390625 133.140625 -176.390625 L 134.671875 -176.390625 C 141.210938 -176.390625 146.882812 -176.179688 151.6875 -175.765625 C 156.5 -175.359375 160.59375 -173.828125 163.96875 -171.171875 C 167.34375 -168.515625 170.15625 -163.609375 172.40625 -156.453125 C 175.882812 -146.023438 179.410156 -135.644531 182.984375 -125.3125 C 186.566406 -114.988281 189.992188 -104.609375 193.265625 -94.171875 C 194.078125 -92.128906 195.609375 -89.828125 197.859375 -87.265625 C 200.109375 -84.710938 202.5625 -83.847656 205.21875 -84.671875 C 207.0625 -85.078125 208.597656 -86.457031 209.828125 -88.8125 C 211.054688 -91.164062 212.128906 -93.671875 213.046875 -96.328125 C 213.960938 -98.984375 214.726562 -101.023438 215.34375 -102.453125 C 219.03125 -111.046875 222.457031 -119.738281 225.625 -128.53125 C 228.789062 -137.320312 231.804688 -146.117188 234.671875 -154.921875 C 237.128906 -162.078125 239.941406 -167.648438 243.109375 -171.640625 C 246.273438 -175.628906 251.953125 -177.625 260.140625 -177.625 C 262.390625 -177.625 265.457031 -177.671875 269.34375 -177.765625 C 273.226562 -177.867188 276.957031 -177.613281 280.53125 -177 C 284.113281 -176.382812 286.3125 -174.953125 287.125 -172.703125 C 287.945312 -170.660156 287.742188 -167.488281 286.515625 -163.1875 C 285.285156 -158.894531 283.800781 -154.65625 282.0625 -150.46875 C 280.332031 -146.28125 279.054688 -143.0625 278.234375 -140.8125 C 273.117188 -124.851562 267.390625 -109.101562 261.046875 -93.5625 C 254.710938 -78.019531 248.988281 -62.171875 243.875 -46.015625 C 242.851562 -42.335938 241.78125 -37.429688 240.65625 -31.296875 C 239.53125 -25.160156 237.992188 -19.328125 236.046875 -13.796875 C 234.109375 -8.273438 231.195312 -4.492188 227.3125 -2.453125 C 226.082031 -1.835938 224.800781 -1.425781 223.46875 -1.21875 C 222.144531 -1.019531 220.769531 -0.816406 219.34375 -0.609375 C 213.207031 0.00390625 207.019531 0.257812 200.78125 0.15625 C 194.539062 0.0507812 188.863281 -1.222656 183.75 -3.671875 C 178.632812 -6.128906 174.546875 -10.628906 171.484375 -17.171875 C 168.210938 -24.953125 165.5 -32.878906 163.34375 -40.953125 C 161.195312 -49.035156 158.695312 -56.960938 155.84375 -64.734375 Z M 155.84375 -64.734375 "/></g></g></g><g fill="#eeeee8" fill-opacity="1"><g transform="translate(297.137171, 245.635033)"><g><path d="M 11.65625 -193.265625 C 7.15625 -196.128906 3.878906 -200.164062 1.828125 -205.375 C -0.210938 -210.59375 -0.3125 -216.269531 1.53125 -222.40625 C 5.007812 -234.46875 13.191406 -240.707031 26.078125 -241.125 L 26.6875 -241.125 C 33.03125 -241.125 38.347656 -239.4375 42.640625 -236.0625 C 46.929688 -232.6875 49.796875 -228.03125 51.234375 -222.09375 C 53.066406 -214.738281 52.347656 -207.992188 49.078125 -201.859375 C 45.804688 -195.722656 40.285156 -191.734375 32.515625 -189.890625 C 28.628906 -189.066406 24.894531 -188.960938 21.3125 -189.578125 C 17.738281 -190.191406 14.519531 -191.421875 11.65625 -193.265625 Z M 7.359375 -162.578125 C 10.222656 -164.421875 14.316406 -165.242188 19.640625 -165.046875 C 22.703125 -165.046875 26.070312 -165.144531 29.75 -165.34375 C 33.4375 -165.550781 36.863281 -165.191406 40.03125 -164.265625 C 43.195312 -163.347656 45.296875 -161.253906 46.328125 -157.984375 C 48.160156 -152.867188 48.769531 -146.679688 48.15625 -139.421875 C 47.539062 -132.160156 47.234375 -125.875 47.234375 -120.5625 C 47.441406 -108.082031 47.546875 -95.707031 47.546875 -83.4375 C 47.546875 -71.164062 47.648438 -58.796875 47.859375 -46.328125 C 47.859375 -44.273438 48.113281 -40.847656 48.625 -36.046875 C 49.132812 -31.242188 49.441406 -26.078125 49.546875 -20.546875 C 49.648438 -15.023438 49.085938 -10.320312 47.859375 -6.4375 C 46.628906 -2.550781 44.175781 -0.507812 40.5 -0.3125 C 35.789062 -0.101562 30.878906 0.0507812 25.765625 0.15625 C 20.648438 0.257812 15.742188 0.00390625 11.046875 -0.609375 C 7.773438 -1.023438 5.523438 -2.816406 4.296875 -5.984375 C 3.066406 -9.148438 2.398438 -12.984375 2.296875 -17.484375 C 2.191406 -21.984375 2.34375 -26.273438 2.75 -30.359375 C 3.164062 -34.453125 3.375 -37.625 3.375 -39.875 C 3.164062 -48.257812 3.007812 -56.695312 2.90625 -65.1875 C 2.8125 -73.675781 2.765625 -82.113281 2.765625 -90.5 C 2.554688 -97.65625 2.453125 -104.8125 2.453125 -111.96875 C 2.453125 -119.125 2.347656 -126.179688 2.140625 -133.140625 C 2.140625 -139.066406 2.035156 -144.789062 1.828125 -150.3125 C 1.628906 -155.832031 3.472656 -159.921875 7.359375 -162.578125 Z M 7.359375 -162.578125 "/></g></g></g><g fill="#eeeee8" fill-opacity="1"><g transform="translate(352.66, 245.635033)"><g><path d="M 45.703125 -4.296875 C 44.273438 -2.453125 42.226562 -1.425781 39.5625 -1.21875 C 36.90625 -1.019531 34.148438 -0.71875 31.296875 -0.3125 C 28.628906 -0.101562 25.503906 0.0976562 21.921875 0.296875 C 18.347656 0.503906 14.976562 0.148438 11.8125 -0.765625 C 8.644531 -1.679688 6.238281 -3.570312 4.59375 -6.4375 C 2.144531 -10.9375 0.710938 -15.894531 0.296875 -21.3125 C -0.109375 -26.738281 -0.00390625 -32.265625 0.609375 -37.890625 C 1.222656 -43.515625 1.53125 -48.78125 1.53125 -53.6875 C 1.738281 -63.300781 1.890625 -72.859375 1.984375 -82.359375 C 2.085938 -91.867188 2.242188 -101.429688 2.453125 -111.046875 C 2.660156 -130.066406 2.710938 -149.132812 2.609375 -168.25 C 2.503906 -187.375 2.25 -206.445312 1.84375 -225.46875 C 1.84375 -230.789062 2.96875 -234.625 5.21875 -236.96875 C 7.46875 -239.320312 10.429688 -240.703125 14.109375 -241.109375 C 17.796875 -241.523438 21.785156 -241.425781 26.078125 -240.8125 C 30.367188 -240.195312 34.457031 -239.6875 38.34375 -239.28125 C 42.632812 -238.863281 45.445312 -236.5625 46.78125 -232.375 C 48.113281 -228.1875 48.726562 -223.6875 48.625 -218.875 C 48.519531 -214.070312 48.363281 -210.238281 48.15625 -207.375 C 47.75 -197.96875 47.492188 -188.457031 47.390625 -178.84375 C 47.285156 -169.226562 47.234375 -159.617188 47.234375 -150.015625 C 47.234375 -126.691406 47.234375 -103.375 47.234375 -80.0625 C 47.234375 -56.75 47.234375 -33.4375 47.234375 -10.125 C 47.234375 -7.664062 46.722656 -5.722656 45.703125 -4.296875 Z M 45.703125 -4.296875 "/></g></g></g><g fill="#eeeee8" fill-opacity="1"><g transform="translate(404.501815, 245.635033)"><g><path d="M 12.578125 -42.328125 C 6.035156 -54.191406 2.097656 -66.257812 0.765625 -78.53125 C -0.566406 -90.800781 0.296875 -102.609375 3.359375 -113.953125 C 6.429688 -125.304688 11.085938 -135.484375 17.328125 -144.484375 C 23.566406 -153.484375 30.878906 -160.539062 39.265625 -165.65625 C 50.710938 -172.601562 63.492188 -176.078125 77.609375 -176.078125 C 80.472656 -176.078125 84.101562 -175.460938 88.5 -174.234375 C 92.894531 -173.015625 97.492188 -171.738281 102.296875 -170.40625 C 107.109375 -169.082031 111.710938 -168.316406 116.109375 -168.109375 C 120.503906 -167.898438 124.234375 -168.71875 127.296875 -170.5625 C 130.367188 -172.40625 132.316406 -175.878906 133.140625 -180.984375 C 134.160156 -188.347656 134.363281 -196.320312 133.75 -204.90625 C 133.132812 -213.5 132.625 -221.582031 132.21875 -229.15625 C 132.007812 -234.269531 133.03125 -237.539062 135.28125 -238.96875 C 137.53125 -240.40625 140.546875 -241.019531 144.328125 -240.8125 C 148.117188 -240.601562 151.957031 -240.398438 155.84375 -240.203125 C 159.519531 -240.203125 162.992188 -240.457031 166.265625 -240.96875 C 169.535156 -241.476562 172.191406 -241.21875 174.234375 -240.1875 C 176.285156 -239.164062 177.3125 -236.101562 177.3125 -231 C 177.3125 -212.175781 177.3125 -193.359375 177.3125 -174.546875 C 177.3125 -155.734375 177.3125 -136.921875 177.3125 -118.109375 C 177.101562 -100.722656 177.507812 -83.285156 178.53125 -65.796875 C 179.5625 -48.316406 179.257812 -30.882812 177.625 -13.5 C 177.207031 -9 175.769531 -6.082031 173.3125 -4.75 C 170.863281 -3.425781 167.898438 -3.019531 164.421875 -3.53125 C 160.953125 -4.039062 157.375 -4.90625 153.6875 -6.125 C 150.007812 -7.351562 146.632812 -8.175781 143.5625 -8.59375 C 136 -9.613281 128.941406 -9.710938 122.390625 -8.890625 C 115.847656 -8.078125 109 -6.238281 101.84375 -3.375 C 90.394531 0.914062 78.535156 1.628906 66.265625 -1.234375 C 55.015625 -3.679688 44.582031 -8.632812 34.96875 -16.09375 C 25.351562 -23.5625 17.890625 -32.304688 12.578125 -42.328125 Z M 90.1875 -140.5 C 82.414062 -140.5 75.101562 -137.992188 68.25 -132.984375 C 61.40625 -127.972656 55.832031 -121.476562 51.53125 -113.5 C 47.238281 -105.53125 45.09375 -97.046875 45.09375 -88.046875 C 45.09375 -79.453125 47.1875 -71.320312 51.375 -63.65625 C 55.570312 -55.988281 61.09375 -49.75 67.9375 -44.9375 C 74.789062 -40.132812 82.101562 -37.628906 89.875 -37.421875 L 91.109375 -37.421875 C 101.535156 -37.421875 110.535156 -41.207031 118.109375 -48.78125 C 127.710938 -58.800781 132.515625 -71.988281 132.515625 -88.34375 C 132.515625 -103.476562 128.628906 -115.898438 120.859375 -125.609375 C 113.085938 -135.328125 103.066406 -140.289062 90.796875 -140.5 Z M 90.1875 -140.5 "/></g></g></g><g fill="#eeeee8" fill-opacity="1"><g transform="translate(586.715709, 245.635033)"><g><path d="M 45.703125 -4.296875 C 44.273438 -2.453125 42.226562 -1.425781 39.5625 -1.21875 C 36.90625 -1.019531 34.148438 -0.71875 31.296875 -0.3125 C 28.628906 -0.101562 25.503906 0.0976562 21.921875 0.296875 C 18.347656 0.503906 14.976562 0.148438 11.8125 -0.765625 C 8.644531 -1.679688 6.238281 -3.570312 4.59375 -6.4375 C 2.144531 -10.9375 0.710938 -15.894531 0.296875 -21.3125 C -0.109375 -26.738281 -0.00390625 -32.265625 0.609375 -37.890625 C 1.222656 -43.515625 1.53125 -48.78125 1.53125 -53.6875 C 1.738281 -63.300781 1.890625 -72.859375 1.984375 -82.359375 C 2.085938 -91.867188 2.242188 -101.429688 2.453125 -111.046875 C 2.660156 -130.066406 2.710938 -149.132812 2.609375 -168.25 C 2.503906 -187.375 2.25 -206.445312 1.84375 -225.46875 C 1.84375 -230.789062 2.96875 -234.625 5.21875 -236.96875 C 7.46875 -239.320312 10.429688 -240.703125 14.109375 -241.109375 C 17.796875 -241.523438 21.785156 -241.425781 26.078125 -240.8125 C 30.367188 -240.195312 34.457031 -239.6875 38.34375 -239.28125 C 42.632812 -238.863281 45.445312 -236.5625 46.78125 -232.375 C 48.113281 -228.1875 48.726562 -223.6875 48.625 -218.875 C 48.519531 -214.070312 48.363281 -210.238281 48.15625 -207.375 C 47.75 -197.96875 47.492188 -188.457031 47.390625 -178.84375 C 47.285156 -169.226562 47.234375 -159.617188 47.234375 -150.015625 C 47.234375 -126.691406 47.234375 -103.375 47.234375 -80.0625 C 47.234375 -56.75 47.234375 -33.4375 47.234375 -10.125 C 47.234375 -7.664062 46.722656 -5.722656 45.703125 -4.296875 Z M 45.703125 -4.296875 "/></g></g></g><g fill="#eeeee8" fill-opacity="1"><g transform="translate(638.55748, 245.635033)"><g><path d="M 46.625 65.34375 C 41.507812 65.34375 36.394531 64.78125 31.28125 63.65625 C 26.175781 62.53125 21.269531 60.84375 16.5625 58.59375 C 11.863281 56.34375 8.335938 53.425781 5.984375 49.84375 C 3.628906 46.269531 3.882812 41.925781 6.75 36.8125 C 9.40625 32.101562 11.804688 28.265625 13.953125 25.296875 C 16.097656 22.335938 18.65625 20.445312 21.625 19.625 C 24.59375 18.8125 28.632812 19.53125 33.75 21.78125 C 37.832031 23.414062 42.019531 23.671875 46.3125 22.546875 C 50.613281 21.421875 54.09375 19.222656 56.75 15.953125 C 60.019531 12.273438 61.5 8.695312 61.1875 5.21875 C 60.882812 1.738281 60.734375 -2.144531 60.734375 -6.4375 C 60.734375 -11.34375 59.457031 -16.503906 56.90625 -21.921875 C 54.351562 -27.347656 52.253906 -32.3125 50.609375 -36.8125 C 48.566406 -42.539062 46.421875 -48.265625 44.171875 -53.984375 C 41.921875 -59.710938 39.671875 -65.441406 37.421875 -71.171875 C 32.921875 -83.035156 28.472656 -94.84375 24.078125 -106.59375 C 19.679688 -118.351562 15.234375 -130.164062 10.734375 -142.03125 C 9.304688 -146.320312 7.414062 -150.515625 5.0625 -154.609375 C 2.707031 -158.703125 1.125 -163 0.3125 -167.5 C -0.507812 -171.789062 0.507812 -174.597656 3.375 -175.921875 C 6.238281 -177.253906 9.765625 -177.867188 13.953125 -177.765625 C 18.148438 -177.671875 21.679688 -177.625 24.546875 -177.625 C 27.203125 -177.625 29.859375 -177.46875 32.515625 -177.15625 C 35.171875 -176.851562 37.726562 -176.085938 40.1875 -174.859375 C 44.476562 -172.804688 48.003906 -168.863281 50.765625 -163.03125 C 53.523438 -157.207031 55.875 -151.023438 57.8125 -144.484375 C 59.757812 -137.941406 61.453125 -132.523438 62.890625 -128.234375 C 65.753906 -121.273438 68.613281 -114.265625 71.46875 -107.203125 C 74.332031 -100.148438 77.8125 -93.351562 81.90625 -86.8125 C 85.382812 -81.289062 88.859375 -79.191406 92.328125 -80.515625 C 95.804688 -81.847656 98.570312 -85.070312 100.625 -90.1875 C 105.726562 -102.863281 110.785156 -115.539062 115.796875 -128.21875 C 120.804688 -140.90625 125.867188 -153.484375 130.984375 -165.953125 C 131.398438 -167.597656 131.960938 -169.082031 132.671875 -170.40625 C 133.390625 -171.738281 134.363281 -172.914062 135.59375 -173.9375 C 137.226562 -174.957031 138.914062 -175.617188 140.65625 -175.921875 C 142.394531 -176.234375 144.179688 -176.390625 146.015625 -176.390625 C 150.316406 -176.597656 154.5625 -176.75 158.75 -176.84375 C 162.945312 -176.945312 167.085938 -176.898438 171.171875 -176.703125 C 172.398438 -176.703125 173.578125 -176.648438 174.703125 -176.546875 C 175.828125 -176.441406 176.800781 -175.976562 177.625 -175.15625 C 179.257812 -173.9375 179.921875 -172.203125 179.609375 -169.953125 C 179.304688 -167.703125 178.742188 -165.65625 177.921875 -163.8125 C 166.671875 -135.59375 155.316406 -107.421875 143.859375 -79.296875 C 132.410156 -51.179688 121.269531 -23.007812 110.4375 5.21875 C 107.976562 11.757812 105.519531 18.453125 103.0625 25.296875 C 100.613281 32.148438 97.242188 38.34375 92.953125 43.875 C 87.429688 50.820312 80.578125 56.082031 72.390625 59.65625 C 64.210938 63.238281 55.625 65.132812 46.625 65.34375 Z M 46.625 65.34375 "/></g></g></g></g></g><g transform="matrix(1, 0, 0, 1, 228, 359)"><g clip-path="url(#a82245e768)"><g fill="#eeeee8" fill-opacity="1"><g transform="translate(0.314378, 105.657509)"><g><path d="M 85.25 -40.546875 C 85.25 -32.140625 83.640625 -24.78125 80.421875 -18.46875 C 77.210938 -12.164062 72.601562 -7.320312 66.59375 -3.9375 C 60.59375 -0.550781 53.503906 1.140625 45.328125 1.140625 C 37.078125 1.140625 29.957031 -0.53125 23.96875 -3.875 C 17.988281 -7.21875 13.421875 -12.054688 10.265625 -18.390625 C 7.109375 -24.722656 5.53125 -32.109375 5.53125 -40.546875 C 5.53125 -53.390625 9.046875 -63.429688 16.078125 -70.671875 C 23.109375 -77.921875 32.898438 -81.546875 45.453125 -81.546875 C 53.617188 -81.546875 60.703125 -79.921875 66.703125 -76.671875 C 72.710938 -73.421875 77.304688 -68.695312 80.484375 -62.5 C 83.660156 -56.300781 85.25 -48.984375 85.25 -40.546875 Z M 74.125 -40.546875 C 74.125 -50.546875 71.625 -58.394531 66.625 -64.09375 C 61.625 -69.789062 54.566406 -72.640625 45.453125 -72.640625 C 36.242188 -72.640625 29.128906 -69.828125 24.109375 -64.203125 C 19.097656 -58.578125 16.59375 -50.691406 16.59375 -40.546875 C 16.59375 -30.472656 19.128906 -22.476562 24.203125 -16.5625 C 29.273438 -10.65625 36.316406 -7.703125 45.328125 -7.703125 C 54.609375 -7.703125 61.726562 -10.5625 66.6875 -16.28125 C 71.644531 -22 74.125 -30.085938 74.125 -40.546875 Z M 74.125 -40.546875 "/></g></g></g><g fill="#eeeee8" fill-opacity="1"><g transform="translate(91.144412, 105.657509)"><g><path d="M 44.59375 0 L 33.296875 0 L 0.515625 -80.34375 L 11.96875 -80.34375 L 34.21875 -23.78125 L 39 -9.578125 L 43.796875 -23.78125 L 65.921875 -80.34375 L 77.375 -80.34375 Z M 44.59375 0 "/></g></g></g><g fill="#eeeee8" fill-opacity="1"><g transform="translate(169.031314, 105.657509)"><g><path d="M 9.578125 0 L 9.578125 -80.34375 L 70.53125 -80.34375 L 70.53125 -71.453125 L 20.46875 -71.453125 L 20.46875 -45.671875 L 67.109375 -45.671875 L 67.109375 -36.890625 L 20.46875 -36.890625 L 20.46875 -8.890625 L 72.875 -8.890625 L 72.875 0 Z M 9.578125 0 "/></g></g></g><g fill="#eeeee8" fill-opacity="1"><g transform="translate(246.918198, 105.657509)"><g><path d="M 66.375 0 L 45.5 -33.359375 L 20.46875 -33.359375 L 20.46875 0 L 9.578125 0 L 9.578125 -80.34375 L 47.390625 -80.34375 C 56.429688 -80.34375 63.410156 -78.316406 68.328125 -74.265625 C 73.253906 -70.222656 75.71875 -64.585938 75.71875 -57.359375 C 75.71875 -51.390625 73.976562 -46.367188 70.5 -42.296875 C 67.03125 -38.234375 62.234375 -35.671875 56.109375 -34.609375 L 78.921875 0 Z M 64.78125 -57.25 C 64.78125 -61.925781 63.191406 -65.488281 60.015625 -67.9375 C 56.835938 -70.394531 52.265625 -71.625 46.296875 -71.625 L 20.46875 -71.625 L 20.46875 -41.96875 L 46.765625 -41.96875 C 52.503906 -41.96875 56.941406 -43.304688 60.078125 -45.984375 C 63.210938 -48.671875 64.78125 -52.425781 64.78125 -57.25 Z M 64.78125 -57.25 "/></g></g></g><g fill="#eeeee8" fill-opacity="1"><g transform="translate(331.248163, 105.657509)"><g><path d="M 66.375 0 L 45.5 -33.359375 L 20.46875 -33.359375 L 20.46875 0 L 9.578125 0 L 9.578125 -80.34375 L 47.390625 -80.34375 C 56.429688 -80.34375 63.410156 -78.316406 68.328125 -74.265625 C 73.253906 -70.222656 75.71875 -64.585938 75.71875 -57.359375 C 75.71875 -51.390625 73.976562 -46.367188 70.5 -42.296875 C 67.03125 -38.234375 62.234375 -35.671875 56.109375 -34.609375 L 78.921875 0 Z M 64.78125 -57.25 C 64.78125 -61.925781 63.191406 -65.488281 60.015625 -67.9375 C 56.835938 -70.394531 52.265625 -71.625 46.296875 -71.625 L 20.46875 -71.625 L 20.46875 -41.96875 L 46.765625 -41.96875 C 52.503906 -41.96875 56.941406 -43.304688 60.078125 -45.984375 C 63.210938 -48.671875 64.78125 -52.425781 64.78125 -57.25 Z M 64.78125 -57.25 "/></g></g></g><g fill="#eeeee8" fill-opacity="1"><g transform="translate(415.578092, 105.657509)"><g><path d="M 41.6875 1.140625 C 35.101562 1.140625 29.359375 -0.0546875 24.453125 -2.453125 C 19.554688 -4.847656 15.757812 -8.328125 13.0625 -12.890625 C 10.363281 -17.453125 9.015625 -22.890625 9.015625 -29.203125 L 9.015625 -80.34375 L 19.90625 -80.34375 L 19.90625 -30.109375 C 19.90625 -22.773438 21.765625 -17.207031 25.484375 -13.40625 C 29.210938 -9.601562 34.59375 -7.703125 41.625 -7.703125 C 48.84375 -7.703125 54.457031 -9.664062 58.46875 -13.59375 C 62.476562 -17.53125 64.484375 -23.28125 64.484375 -30.84375 L 64.484375 -80.34375 L 75.328125 -80.34375 L 75.328125 -30.21875 C 75.328125 -23.71875 73.945312 -18.109375 71.1875 -13.390625 C 68.4375 -8.679688 64.539062 -5.082031 59.5 -2.59375 C 54.46875 -0.101562 48.53125 1.140625 41.6875 1.140625 Z M 41.6875 1.140625 "/></g></g></g><g fill="#eeeee8" fill-opacity="1"><g transform="translate(499.908058, 105.657509)"><g><path d="M 61.703125 0 L 18.703125 -68.421875 L 18.984375 -62.890625 L 19.28125 -53.375 L 19.28125 0 L 9.578125 0 L 9.578125 -80.34375 L 22.234375 -80.34375 L 65.6875 -11.46875 C 65.226562 -18.914062 65 -24.3125 65 -27.65625 L 65 -80.34375 L 74.8125 -80.34375 L 74.8125 0 Z M 61.703125 0 "/></g></g></g></g></g></svg>